<svg width="25" height="25" viewBox="0 0 25 25" fill="none" xmlns="http://www.w3.org/2000/svg">
<path d="M14.9305 19.7955C15.1205 19.7955 15.3105 19.7255 15.4605 19.5755L21.5305 13.5055C21.8205 13.2155 21.8205 12.7355 21.5305 12.4455L15.4605 6.37546C15.1705 6.08546 14.6905 6.08546 14.4005 6.37546C14.1105 6.66546 14.1105 7.14546 14.4005 7.43546L19.9405 12.9755L14.4005 18.5155C14.1105 18.8055 14.1105 19.2855 14.4005 19.5755C14.5405 19.7255 14.7405 19.7955 14.9305 19.7955Z" fill="white"/>
<path d="M4.00008 13.7253H20.8301C21.2401 13.7253 21.5801 13.3853 21.5801 12.9753C21.5801 12.5653 21.2401 12.2253 20.8301 12.2253H4.00008C3.59008 12.2253 3.25008 12.5653 3.25008 12.9753C3.25008 13.3853 3.59008 13.7253 4.00008 13.7253Z" fill="white"/>
</svg>
