<svg width="21" height="20" viewBox="0 0 21 20" fill="none" xmlns="http://www.w3.org/2000/svg">
<path d="M6.89164 4.79175C6.55002 4.79175 6.26672 4.50841 6.26672 4.16675V1.66675C6.26672 1.32508 6.55002 1.04175 6.89164 1.04175C7.23327 1.04175 7.51656 1.32508 7.51656 1.66675V4.16675C7.51656 4.50841 7.23327 4.79175 6.89164 4.79175Z" fill="#000B0C"/>
<path d="M13.5575 4.79175C13.2159 4.79175 12.9326 4.50841 12.9326 4.16675V1.66675C12.9326 1.32508 13.2159 1.04175 13.5575 1.04175C13.8991 1.04175 14.1824 1.32508 14.1824 1.66675V4.16675C14.1824 4.50841 13.8991 4.79175 13.5575 4.79175Z" fill="#000B0C"/>
<path d="M7.3082 12.0834C7.19988 12.0834 7.09156 12.0584 6.99158 12.0168C6.88326 11.9751 6.79993 11.9168 6.71661 11.8418C6.56663 11.6834 6.47498 11.4751 6.47498 11.2501C6.47498 11.1418 6.49997 11.0334 6.54164 10.9334C6.5833 10.8334 6.64162 10.7418 6.71661 10.6584C6.79993 10.5834 6.88326 10.5251 6.99158 10.4834C7.29154 10.3584 7.66649 10.4251 7.89979 10.6584C8.04977 10.8168 8.14143 11.0334 8.14143 11.2501C8.14143 11.3001 8.1331 11.3584 8.12476 11.4168C8.11643 11.4668 8.09977 11.5168 8.07477 11.5668C8.0581 11.6168 8.03311 11.6668 7.99978 11.7168C7.97478 11.7584 7.93312 11.8001 7.89979 11.8418C7.74148 11.9918 7.52484 12.0834 7.3082 12.0834Z" fill="#000B0C"/>
<path d="M10.2246 12.0834C10.1163 12.0834 10.0079 12.0584 9.90796 12.0168C9.79964 11.9751 9.71632 11.9167 9.63299 11.8417C9.48301 11.6834 9.39136 11.4751 9.39136 11.2501C9.39136 11.1417 9.41636 11.0334 9.45802 10.9334C9.49968 10.8334 9.558 10.7418 9.63299 10.6584C9.71632 10.5834 9.79964 10.5251 9.90796 10.4834C10.2079 10.3501 10.5829 10.4251 10.8162 10.6584C10.9662 10.8168 11.0578 11.0334 11.0578 11.2501C11.0578 11.3001 11.0495 11.3584 11.0411 11.4168C11.0328 11.4668 11.0161 11.5167 10.9911 11.5667C10.9745 11.6167 10.9495 11.6667 10.9162 11.7167C10.8912 11.7584 10.8495 11.8001 10.8162 11.8417C10.6579 11.9917 10.4412 12.0834 10.2246 12.0834Z" fill="#000B0C"/>
<path d="M13.1408 12.0834C13.0325 12.0834 12.9242 12.0584 12.8242 12.0168C12.7159 11.9751 12.6326 11.9167 12.5493 11.8417C12.5159 11.8001 12.4826 11.7584 12.4493 11.7167C12.4159 11.6667 12.3909 11.6167 12.3743 11.5667C12.3493 11.5167 12.3326 11.4668 12.3243 11.4168C12.3159 11.3584 12.3076 11.3001 12.3076 11.2501C12.3076 11.0334 12.3993 10.8168 12.5493 10.6584C12.6326 10.5834 12.7159 10.5251 12.8242 10.4834C13.1325 10.3501 13.4991 10.4251 13.7324 10.6584C13.8824 10.8168 13.9741 11.0334 13.9741 11.2501C13.9741 11.3001 13.9657 11.3584 13.9574 11.4168C13.9491 11.4668 13.9324 11.5167 13.9074 11.5667C13.8907 11.6167 13.8658 11.6667 13.8324 11.7167C13.8074 11.7584 13.7658 11.8001 13.7324 11.8417C13.5741 11.9917 13.3575 12.0834 13.1408 12.0834Z" fill="#000B0C"/>
<path d="M7.3082 15.0001C7.19988 15.0001 7.09156 14.9752 6.99158 14.9335C6.89159 14.8918 6.79993 14.8335 6.71661 14.7585C6.56663 14.6001 6.47498 14.3835 6.47498 14.1668C6.47498 14.0585 6.49997 13.9501 6.54164 13.8501C6.5833 13.7418 6.64162 13.6502 6.71661 13.5752C7.02491 13.2668 7.5915 13.2668 7.89979 13.5752C8.04977 13.7335 8.14143 13.9501 8.14143 14.1668C8.14143 14.3835 8.04977 14.6001 7.89979 14.7585C7.74148 14.9085 7.52484 15.0001 7.3082 15.0001Z" fill="#000B0C"/>
<path d="M10.2246 15.0001C10.0079 15.0001 9.79131 14.9085 9.63299 14.7585C9.48301 14.6001 9.39136 14.3835 9.39136 14.1668C9.39136 14.0585 9.41636 13.9501 9.45802 13.8501C9.49968 13.7418 9.558 13.6502 9.63299 13.5752C9.94129 13.2668 10.5079 13.2668 10.8162 13.5752C10.8912 13.6502 10.9495 13.7418 10.9911 13.8501C11.0328 13.9501 11.0578 14.0585 11.0578 14.1668C11.0578 14.3835 10.9662 14.6001 10.8162 14.7585C10.6579 14.9085 10.4412 15.0001 10.2246 15.0001Z" fill="#000B0C"/>
<path d="M13.1408 15.0002C12.9242 15.0002 12.7076 14.9085 12.5493 14.7585C12.4743 14.6835 12.4159 14.5918 12.3743 14.4835C12.3326 14.3835 12.3076 14.2752 12.3076 14.1668C12.3076 14.0585 12.3326 13.9502 12.3743 13.8502C12.4159 13.7418 12.4743 13.6502 12.5493 13.5752C12.7409 13.3835 13.0325 13.2918 13.2992 13.3502C13.3575 13.3585 13.4075 13.3752 13.4575 13.4002C13.5075 13.4168 13.5575 13.4418 13.6075 13.4752C13.6491 13.5002 13.6908 13.5418 13.7324 13.5752C13.8824 13.7335 13.9741 13.9502 13.9741 14.1668C13.9741 14.3835 13.8824 14.6002 13.7324 14.7585C13.5741 14.9085 13.3575 15.0002 13.1408 15.0002Z" fill="#000B0C"/>
<path d="M17.307 8.2001H3.14219C2.80057 8.2001 2.51727 7.91677 2.51727 7.5751C2.51727 7.23344 2.80057 6.9501 3.14219 6.9501H17.307C17.6487 6.9501 17.932 7.23344 17.932 7.5751C17.932 7.91677 17.6487 8.2001 17.307 8.2001Z" fill="#000B0C"/>
<path d="M13.5574 18.9584H6.89164C3.85036 18.9584 2.10059 17.2084 2.10059 14.1667V7.08335C2.10059 4.04169 3.85036 2.29169 6.89164 2.29169H13.5574C16.5987 2.29169 18.3485 4.04169 18.3485 7.08335V14.1667C18.3485 17.2084 16.5987 18.9584 13.5574 18.9584ZM6.89164 3.54169C4.50861 3.54169 3.35043 4.70002 3.35043 7.08335V14.1667C3.35043 16.55 4.50861 17.7084 6.89164 17.7084H13.5574C15.9405 17.7084 17.0987 16.55 17.0987 14.1667V7.08335C17.0987 4.70002 15.9405 3.54169 13.5574 3.54169H6.89164Z" fill="#000B0C"/>
</svg>
