<svg width="20" height="20" viewBox="0 0 20 20" fill="none" xmlns="http://www.w3.org/2000/svg">
<path d="M14.541 18.179C13.5993 18.179 12.6077 17.9736 11.5827 17.5779C10.5827 17.1899 9.57435 16.6573 8.59102 16.0105C7.61602 15.3562 6.67435 14.6257 5.78268 13.8268C4.89935 13.0127 4.09935 12.1529 3.39102 11.2703C2.67435 10.3573 2.09935 9.44423 1.69102 8.56162C1.25768 7.61814 1.04102 6.7051 1.04102 5.84531C1.04102 5.25183 1.15768 4.68879 1.38268 4.16379C1.61602 3.62357 1.99102 3.1214 2.49935 2.6877C3.14102 2.10944 3.87435 1.82031 4.65768 1.82031C4.98268 1.82031 5.31602 1.88879 5.59935 2.01053C5.92435 2.14749 6.19935 2.35292 6.39935 2.62683L8.33268 5.11488C8.50768 5.33553 8.64102 5.54857 8.73268 5.76162C8.84102 5.98988 8.89935 6.21814 8.89935 6.43879C8.89935 6.72792 8.80768 7.00944 8.63268 7.27575C8.50768 7.48118 8.31602 7.70183 8.07435 7.92249L7.50768 8.4627C7.51602 8.48553 7.52435 8.50075 7.53268 8.51596C7.63268 8.67575 7.83268 8.94966 8.21602 9.36053C8.62435 9.78662 9.00768 10.1747 9.39102 10.5323C9.88268 10.9736 10.291 11.3236 10.6743 11.6127C11.1494 11.9779 11.4577 12.1605 11.641 12.2442L11.6243 12.2823L12.2327 11.7344C12.491 11.4986 12.741 11.3236 12.9827 11.2094C13.441 10.9507 14.0244 10.9051 14.6077 11.1257C14.8244 11.2094 15.0577 11.3236 15.3077 11.4834L18.0744 13.279C18.3827 13.4692 18.6077 13.7127 18.741 14.0018C18.866 14.291 18.9243 14.5573 18.9243 14.8236C18.9243 15.1888 18.8327 15.554 18.6577 15.8964C18.4827 16.2388 18.266 16.5355 17.991 16.8094C17.516 17.2888 16.9993 17.6312 16.3994 17.8518C15.8244 18.0649 15.1994 18.179 14.541 18.179ZM4.65768 2.96162C4.19935 2.96162 3.77435 3.14423 3.36602 3.50944C2.98268 3.83662 2.71602 4.19423 2.54935 4.58227C2.37435 4.97792 2.29102 5.3964 2.29102 5.84531C2.29102 6.55292 2.47435 7.3214 2.84102 8.1127C3.21602 8.91923 3.74102 9.75618 4.40768 10.5931C5.07435 11.4301 5.83268 12.2442 6.66602 13.0127C7.49935 13.766 8.39935 14.466 9.32435 15.0823C10.2243 15.6834 11.1493 16.1703 12.066 16.5203C13.491 17.0757 14.8244 17.2051 15.9243 16.7866C16.3493 16.6268 16.7243 16.3834 17.066 16.0334C17.2577 15.8431 17.4077 15.6377 17.5327 15.3942C17.6327 15.204 17.6827 15.0062 17.6827 14.8084C17.6827 14.6866 17.6577 14.5649 17.591 14.4279C17.566 14.3823 17.516 14.2986 17.3577 14.1997L14.591 12.404C14.4243 12.2975 14.2743 12.2214 14.1327 12.1681C13.9493 12.0997 13.8743 12.0312 13.591 12.191C13.4243 12.2671 13.2743 12.3812 13.1077 12.5334L12.4743 13.104C12.1494 13.3931 11.6494 13.4616 11.266 13.3323L11.041 13.241C10.6993 13.0736 10.2993 12.8149 9.85768 12.4725C9.45768 12.1605 9.02435 11.7953 8.49935 11.3236C8.09102 10.9431 7.68268 10.5399 7.25768 10.091C6.86602 9.67249 6.58268 9.31488 6.40768 9.01814L6.30768 8.78988C6.25768 8.61488 6.24102 8.51596 6.24102 8.40944C6.24102 8.13553 6.34935 7.89205 6.55768 7.70183L7.18268 7.10836C7.34935 6.95618 7.47435 6.81162 7.55768 6.68227C7.62435 6.58336 7.64935 6.49966 7.64935 6.42357C7.64935 6.3627 7.62435 6.2714 7.58268 6.1801C7.52435 6.05836 7.43268 5.9214 7.31602 5.77683L5.38268 3.28118C5.29935 3.17466 5.19935 3.09857 5.07435 3.04531C4.94102 2.99205 4.79935 2.96162 4.65768 2.96162ZM11.6243 12.2899L11.491 12.8073L11.716 12.2747C11.6743 12.2671 11.641 12.2747 11.6243 12.2899Z" fill="#000B0C"/>
<path d="M15.4167 8.28775C15.075 8.28775 14.7917 8.02905 14.7917 7.71709C14.7917 7.44318 14.4917 6.87253 13.9917 6.38557C13.5 5.90622 12.9583 5.6247 12.5 5.6247C12.1583 5.6247 11.875 5.36601 11.875 5.05405C11.875 4.74209 12.1583 4.4834 12.5 4.4834C13.3083 4.4834 14.1583 4.87905 14.9 5.60188C15.5917 6.27905 16.0417 7.1084 16.0417 7.71709C16.0417 8.02905 15.7583 8.28775 15.4167 8.28775Z" fill="#000B0C"/>
<path d="M18.3333 8.2877C17.9917 8.2877 17.7083 8.02901 17.7083 7.71705C17.7083 5.09205 15.375 2.96162 12.5 2.96162C12.1583 2.96162 11.875 2.70292 11.875 2.39096C11.875 2.07901 12.1583 1.82031 12.5 1.82031C16.0583 1.82031 18.9583 4.46814 18.9583 7.71705C18.9583 8.02901 18.675 8.2877 18.3333 8.2877Z" fill="#000B0C"/>
</svg>
