<svg width="20" height="20" viewBox="0 0 20 20" fill="none" xmlns="http://www.w3.org/2000/svg">
<path d="M9.99869 18.9584C5.05765 18.9584 1.0415 14.9417 1.0415 10.0001C1.0415 5.05841 5.05765 1.04175 9.99869 1.04175C14.9397 1.04175 18.9559 5.05841 18.9559 10.0001C18.9559 14.9417 14.9397 18.9584 9.99869 18.9584ZM9.99869 2.29175C5.74923 2.29175 2.29134 5.75008 2.29134 10.0001C2.29134 14.2501 5.74923 17.7084 9.99869 17.7084C14.2481 17.7084 17.706 14.2501 17.706 10.0001C17.706 5.75008 14.2481 2.29175 9.99869 2.29175Z" fill="#000B0C"/>
<path d="M13.09 13.2752C12.9817 13.2752 12.8734 13.2502 12.7734 13.1835L10.1904 11.6418C9.54879 11.2585 9.07385 10.4168 9.07385 9.67515V6.25848C9.07385 5.91682 9.35715 5.63348 9.69877 5.63348C10.0404 5.63348 10.3237 5.91682 10.3237 6.25848V9.67515C10.3237 9.97515 10.5737 10.4168 10.832 10.5668L13.415 12.1085C13.7149 12.2835 13.8066 12.6668 13.6316 12.9668C13.5066 13.1668 13.2983 13.2752 13.09 13.2752Z" fill="#000B0C"/>
</svg>
