<svg width="50" height="50" viewBox="0 0 50 50" fill="none" xmlns="http://www.w3.org/2000/svg">
<rect width="50" height="50" rx="10" transform="matrix(-1 0 0 1 50 0)" fill="#EDA12F"/>
<path d="M20 30V23M34 21V29C34 30.3261 33.4732 31.5978 32.5355 32.5355C31.5978 33.4732 30.3261 34 29 34H21C19.6739 34 18.4021 33.4732 17.4645 32.5355C16.5268 31.5978 16 30.3261 16 29V21C16 19.6739 16.5268 18.4021 17.4645 17.4645C18.4021 16.5268 19.6739 16 21 16H29C30.3261 16 31.5978 16.5268 32.5355 17.4645C33.4732 18.4021 34 19.6739 34 21Z" stroke="#FAFEFE" stroke-width="1.5" stroke-linecap="round" stroke-linejoin="round"/>
<path d="M24 30V26.75M24 23V26.75M24 26.75C24 23 30 23 30 26.75V30M20 20.01L20.01 19.999" stroke="#FAFEFE" stroke-width="1.5" stroke-linecap="round" stroke-linejoin="round"/>
</svg>
