<svg width="50" height="50" viewBox="0 0 50 50" fill="none" xmlns="http://www.w3.org/2000/svg">
<rect width="50" height="50" rx="10" transform="matrix(-1 0 0 1 50 0)" fill="#EDA12F"/>
<path d="M19.9 33.6005C21.4 34.5005 23.2 35.0005 25 35.0005C30.5 35.0005 35 30.5005 35 25.0005C35 19.5005 30.5 15.0005 25 15.0005C19.5 15.0005 15 19.5005 15 25.0005C15 26.8005 15.5 28.5005 16.3 30.0005L15.4404 33.3065C15.2457 34.0554 15.9389 34.7322 16.683 34.5196L19.9 33.6005Z" stroke="#FAFEFE" stroke-width="1.5" stroke-miterlimit="10" stroke-linecap="round" stroke-linejoin="round"/>
<path d="M29.5 27.8485C29.5 28.0105 29.4639 28.177 29.3873 28.339C29.3107 28.501 29.2116 28.654 29.0809 28.798C28.86 29.041 28.6167 29.2165 28.3418 29.329C28.0714 29.4415 27.7784 29.5 27.4629 29.5C27.0033 29.5 26.512 29.392 25.9937 29.1715C25.4755 28.951 24.9572 28.654 24.4434 28.2805C23.9251 27.9025 23.4339 27.484 22.9652 27.0205C22.501 26.5525 22.0819 26.062 21.7078 25.549C21.3383 25.036 21.0408 24.523 20.8245 24.0145C20.6082 23.5015 20.5 23.011 20.5 22.543C20.5 22.237 20.5541 21.9445 20.6622 21.6745C20.7704 21.4 20.9417 21.148 21.1805 20.923C21.469 20.6395 21.7844 20.5 22.1179 20.5C22.2441 20.5 22.3703 20.527 22.483 20.581C22.6002 20.635 22.7038 20.716 22.7849 20.833L23.8305 22.3045C23.9116 22.417 23.9702 22.5205 24.0108 22.6195C24.0513 22.714 24.0739 22.8085 24.0739 22.894C24.0739 23.002 24.0423 23.11 23.9792 23.2135C23.9206 23.317 23.835 23.425 23.7268 23.533L23.3843 23.8885C23.3348 23.938 23.3122 23.9965 23.3122 24.0685C23.3122 24.1045 23.3167 24.136 23.3257 24.172C23.3393 24.208 23.3528 24.235 23.3618 24.262C23.4429 24.4105 23.5826 24.604 23.7809 24.838C23.9837 25.072 24.2 25.3105 24.4344 25.549C24.6778 25.7875 24.9121 26.008 25.151 26.2105C25.3853 26.4085 25.5791 26.5435 25.7323 26.6245C25.7549 26.6335 25.7819 26.647 25.8135 26.6605C25.8495 26.674 25.8856 26.6785 25.9261 26.6785C26.0028 26.6785 26.0613 26.6515 26.1109 26.602L26.4534 26.2645C26.5661 26.152 26.6743 26.0665 26.7779 26.0125C26.8816 25.9495 26.9852 25.918 27.0979 25.918C27.1835 25.918 27.2737 25.936 27.3728 25.9765C27.472 26.017 27.5756 26.0755 27.6883 26.152L29.18 27.2095C29.2972 27.2905 29.3783 27.385 29.4279 27.4975C29.473 27.61 29.5 27.7225 29.5 27.8485Z" stroke="#FAFEFE" stroke-width="1.5" stroke-miterlimit="10"/>
</svg>
