<svg width="50" height="51" viewBox="0 0 50 51" fill="none" xmlns="http://www.w3.org/2000/svg">
<rect width="50" height="50" rx="10" transform="matrix(-1 0 0 1 50 0.165527)" fill="#FAFEFE"/>
<path d="M19.9 33.766C21.4 34.666 23.2 35.166 25 35.166C30.5 35.166 35 30.666 35 25.166C35 19.666 30.5 15.166 25 15.166C19.5 15.166 15 19.666 15 25.166C15 26.966 15.5 28.666 16.3 30.166L15.4404 33.4719C15.2457 34.2209 15.9389 34.8977 16.683 34.6851L19.9 33.766Z" stroke="url(#paint0_linear_2509_6734)" stroke-width="1.5" stroke-miterlimit="10" stroke-linecap="round" stroke-linejoin="round"/>
<path d="M29.5 28.014C29.5 28.176 29.4639 28.3425 29.3873 28.5045C29.3107 28.6665 29.2116 28.8195 29.0809 28.9635C28.86 29.2065 28.6167 29.382 28.3418 29.4945C28.0714 29.607 27.7784 29.6655 27.4629 29.6655C27.0033 29.6655 26.512 29.5575 25.9937 29.337C25.4755 29.1165 24.9572 28.8195 24.4434 28.446C23.9251 28.068 23.4339 27.6495 22.9652 27.186C22.501 26.718 22.0819 26.2275 21.7078 25.7145C21.3383 25.2015 21.0408 24.6885 20.8245 24.18C20.6082 23.667 20.5 23.1765 20.5 22.7085C20.5 22.4025 20.5541 22.11 20.6622 21.84C20.7704 21.5655 20.9417 21.3135 21.1805 21.0885C21.469 20.805 21.7844 20.6655 22.1179 20.6655C22.2441 20.6655 22.3703 20.6925 22.483 20.7465C22.6002 20.8005 22.7038 20.8815 22.7849 20.9985L23.8305 22.47C23.9116 22.5825 23.9702 22.686 24.0108 22.785C24.0513 22.8795 24.0739 22.974 24.0739 23.0595C24.0739 23.1675 24.0423 23.2755 23.9792 23.379C23.9206 23.4825 23.835 23.5905 23.7268 23.6985L23.3843 24.054C23.3348 24.1035 23.3122 24.162 23.3122 24.234C23.3122 24.27 23.3167 24.3015 23.3257 24.3375C23.3393 24.3735 23.3528 24.4005 23.3618 24.4275C23.4429 24.576 23.5826 24.7695 23.7809 25.0035C23.9837 25.2375 24.2 25.476 24.4344 25.7145C24.6778 25.953 24.9121 26.1735 25.151 26.376C25.3853 26.574 25.5791 26.709 25.7323 26.79C25.7549 26.799 25.7819 26.8125 25.8135 26.826C25.8495 26.8395 25.8856 26.844 25.9261 26.844C26.0028 26.844 26.0613 26.817 26.1109 26.7675L26.4534 26.43C26.5661 26.3175 26.6743 26.232 26.7779 26.178C26.8816 26.115 26.9852 26.0835 27.0979 26.0835C27.1835 26.0835 27.2737 26.1015 27.3728 26.142C27.472 26.1825 27.5756 26.241 27.6883 26.3175L29.18 27.375C29.2972 27.456 29.3783 27.5505 29.4279 27.663C29.473 27.7755 29.5 27.888 29.5 28.014Z" stroke="url(#paint1_linear_2509_6734)" stroke-width="1.5" stroke-miterlimit="10"/>
<defs>
<linearGradient id="paint0_linear_2509_6734" x1="15" y1="25.166" x2="34.3548" y2="28.6997" gradientUnits="userSpaceOnUse">
<stop stop-color="#02979D"/>
<stop offset="1" stop-color="#00888D"/>
</linearGradient>
<linearGradient id="paint1_linear_2509_6734" x1="20.5" y1="25.1655" x2="29.2097" y2="26.7557" gradientUnits="userSpaceOnUse">
<stop stop-color="#02979D"/>
<stop offset="1" stop-color="#00888D"/>
</linearGradient>
</defs>
</svg>
