<svg width="50" height="51" viewBox="0 0 50 51" fill="none" xmlns="http://www.w3.org/2000/svg">
<rect width="50" height="50" rx="10" transform="matrix(-1 0 0 1 50 0.165527)" fill="#FAFEFE"/>
<path d="M20 30.1655V23.1655M34 21.1655V29.1655C34 30.4916 33.4732 31.7634 32.5355 32.7011C31.5978 33.6387 30.3261 34.1655 29 34.1655H21C19.6739 34.1655 18.4021 33.6387 17.4645 32.7011C16.5268 31.7634 16 30.4916 16 29.1655V21.1655C16 19.8394 16.5268 18.5677 17.4645 17.63C18.4021 16.6923 19.6739 16.1655 21 16.1655H29C30.3261 16.1655 31.5978 16.6923 32.5355 17.63C33.4732 18.5677 34 19.8394 34 21.1655Z" stroke="url(#paint0_linear_2509_6744)" stroke-width="1.5" stroke-linecap="round" stroke-linejoin="round"/>
<path d="M23.9995 30.1655V26.9155M23.9995 23.1655V26.9155M23.9995 26.9155C23.9995 23.1655 29.9995 23.1655 29.9995 26.9155V30.1655M19.9995 20.1755L20.0095 20.1645" stroke="url(#paint1_linear_2509_6744)" stroke-width="1.5" stroke-linecap="round" stroke-linejoin="round"/>
<defs>
<linearGradient id="paint0_linear_2509_6744" x1="16" y1="25.1655" x2="33.4193" y2="28.3459" gradientUnits="userSpaceOnUse">
<stop stop-color="#02979D"/>
<stop offset="1" stop-color="#00888D"/>
</linearGradient>
<linearGradient id="paint1_linear_2509_6744" x1="19.9995" y1="25.165" x2="29.677" y2="26.9317" gradientUnits="userSpaceOnUse">
<stop stop-color="#02979D"/>
<stop offset="1" stop-color="#00888D"/>
</linearGradient>
</defs>
</svg>
