<svg width="50" height="50" viewBox="0 0 50 50" fill="none" xmlns="http://www.w3.org/2000/svg">
<rect width="50" height="50" rx="10" transform="matrix(-1 0 0 1 50 0)" fill="#EDA12F"/>
<path d="M22 35H28C33 35 35 33 35 28V22C35 17 33 15 28 15H22C17 15 15 17 15 22V28C15 33 17 35 22 35Z" stroke="#FAFEFE" stroke-width="1.5" stroke-linecap="round" stroke-linejoin="round"/>
<path d="M25 28.5C26.933 28.5 28.5 26.933 28.5 25C28.5 23.067 26.933 21.5 25 21.5C23.067 21.5 21.5 23.067 21.5 25C21.5 26.933 23.067 28.5 25 28.5Z" stroke="#FAFEFE" stroke-width="1.5" stroke-linecap="round" stroke-linejoin="round"/>
<path d="M30.6361 20H30.6477" stroke="#FAFEFE" stroke-width="1.5" stroke-linecap="round" stroke-linejoin="round"/>
</svg>
