<svg width="28" height="20" viewBox="0 0 28 20" fill="none" xmlns="http://www.w3.org/2000/svg">
<g clip-path="url(#clip0_732_11956)">
<path d="M28 0V19.3846H0V0H28Z" fill="#2E4593"/>
<path d="M28 17.3441V19.3846H25.0571L16.4805 13.4487L15.6396 12.8922L14.6306 12.1502L14.2943 11.9647L13.2853 11.2227L12.8649 10.9444L12.5285 10.7589L11.8559 10.2952L11.6877 10.1097L11.3514 9.92418L8.32432 7.79094L6.97898 6.86345L0 2.04049V0H0.0840841H2.94294L11.6877 6.12146L12.5285 6.67795L12.7808 6.86345L14.1261 7.79094L14.2943 7.88369L14.7988 8.25469L15.6396 8.81119L15.8078 8.90394L16.4805 9.46043L17.2372 9.92418L19.0871 11.2227L20.4324 12.1502L28 17.3441Z" fill="#FCF5FF"/>
<path d="M28 19.2919V19.3846H26.1502L16.4805 12.7067L15.6396 12.1502L14.7988 11.5937L14.2943 11.2227L13.3694 10.5734L12.5285 10.0169L12.4444 9.92418L11.8559 9.55318L11.6877 9.36768L9.33333 7.79094L7.98799 6.86345L0 1.29849V0H0.0840841L9.92192 6.86345L11.3514 7.79094L11.6877 8.06919L12.5285 8.62569L12.8649 8.90394L13.3694 9.27493L14.3784 9.92418L15.6396 10.7589L15.8078 10.8517L16.2282 11.2227L16.4805 11.4082L17.5736 12.1502L28 19.2919Z" fill="#F42525"/>
<path d="M28 0.463747V2.41148L21.6096 6.86345L20.2643 7.79094L17.2372 9.92418L16.4805 10.3879L15.8078 10.8517L15.6396 10.9444L15.3033 11.2227L14.7988 11.5937L14.2943 11.9647L13.958 12.1502L12.5285 13.0777L11.6877 13.7269L3.44745 19.3846H0V17.7151L8.15616 12.1502L9.5015 11.2227L11.3514 9.92418L11.6877 9.64593L11.8559 9.55318L12.5285 9.08943L12.8649 8.90394L14.2943 7.88369L14.4625 7.79094L15.6396 6.9562L15.8078 6.86345L16.4805 6.3997L25.6456 0H27.7477L28 0.463747Z" fill="#FCF5FF"/>
<path d="M27.9159 0.556496L18.7508 6.86345L17.4054 7.79094L16.4805 8.44019L15.8078 8.90394L15.6396 8.99668L14.3784 9.92418L13.3694 10.5734L12.8649 10.9444L12.5285 11.1299L12.4444 11.2227L11.6877 11.7792L11.0991 12.1502L0.672673 19.3846H0V18.4571L9.16517 12.1502L10.5105 11.2227L11.6877 10.3879L11.8559 10.2952L12.4444 9.92418L12.5285 9.83143L13.3694 9.27493L14.7988 8.25469L15.4715 7.79094L15.6396 7.69819L16.4805 7.04895L16.8168 6.86345L26.6547 0H27.6637H28V0.463747L27.9159 0.556496Z" fill="#F42525"/>
<path d="M28 6.86328H0V12.15H28V6.86328Z" fill="white"/>
<path d="M28 7.79102H0V11.2227H28V7.79102Z" fill="#F42525"/>
<path d="M15.6404 0H12.5293V19.3846H15.6404V0Z" fill="#CD002A"/>
<path d="M15.6395 12.1502H16.4803V19.3846H11.6875V12.1502H12.5283V6.86345H11.6875V0H16.4803V6.86345H15.6395V12.1502Z" fill="white"/>
<path d="M15.6404 0H12.5293V19.3846H15.6404V0Z" fill="#F42525"/>
</g>
<defs>
<clipPath id="clip0_732_11956">
<rect width="28" height="19.3846" fill="white"/>
</clipPath>
</defs>
</svg>
