<svg width="211" height="216" viewBox="0 0 211 216" fill="none" xmlns="http://www.w3.org/2000/svg">
<path opacity="0.2" d="M40.2825 62.3865C58.3591 23.3003 124.466 26.5301 157.129 59.1544C189.792 91.7786 175.361 123.757 133.114 132.478C90.8676 141.199 68.8917 165.641 48.3426 145.117C27.7934 124.592 22.206 101.473 40.2825 62.3865Z" fill="#EDA12F"/>
<path opacity="0.08" d="M206.311 140.641C227.089 169.386 158.664 200.976 94.2002 200.976C29.7365 200.976 12.3839 177.639 45.4565 152.025C78.5292 126.411 76.0667 103.074 116.622 103.074C157.178 103.074 185.533 111.897 206.311 140.641Z" fill="#02979D"/>
<g opacity="0.7" clip-path="url(#clip0_634_7353)">
<path d="M85.607 15.5133C86.841 12.8657 90.3601 10.9484 93.1937 12.2722C95.296 14.0525 94.4733 17.3392 93.7421 19.576C93.0109 17.7957 92.4167 15.9241 91.8226 14.0982C89.4917 14.4634 87.3437 16.061 87.3894 18.6174C86.9781 30.0294 92.5538 40.346 96.6214 50.6625C96.6671 46.4629 96.4843 42.2176 96.53 38.0179C96.4843 32.038 98.4038 26.2406 101.055 20.9454C102.883 17.4761 105.67 13.9156 109.738 13.1852C111.612 12.7287 113.577 13.7786 114.217 15.6046C115.359 19.0738 114.217 22.817 112.846 26.058C109.829 33.3161 103.888 38.7939 100.369 45.6868C98.9065 49.9321 98.678 54.6796 99.5463 59.1074C99.8663 58.2401 100.415 57.601 101.237 57.1446C101.374 57.3728 101.694 57.7836 101.877 57.9662C102.243 57.4641 103.02 56.4142 103.385 55.8664C103.431 56.3685 103.477 57.4185 103.477 57.9206C103.248 59.7922 102.38 61.5725 101.831 63.3984C103.065 65.9091 104.391 68.4197 105.67 70.9304C106.493 63.3071 108.687 55.5012 113.577 49.3843C115.862 46.5998 119.381 43.9065 123.266 44.7739C125.597 45.276 126.511 48.0605 126.237 50.206C125.643 54.4513 122.535 57.6923 119.518 60.4312C116.411 63.2614 112.252 65.0417 110.012 68.6936C108.733 70.5652 108.138 72.802 107.636 74.9931C109.418 78.5993 111.109 82.2512 113.44 85.5378C112.434 80.4252 111.84 74.9474 114.08 70.063C115.04 67.8263 117.142 65.4069 119.838 66.3655C122.9 68.5567 122.398 72.7563 122.261 76.043C121.941 81.5208 117.827 85.8117 116.959 91.1069C117.873 95.0784 121.027 98.0455 122.9 101.606C129.527 111.877 131.95 124.567 130.213 136.573C132.726 133.788 135.423 131.095 137.388 127.9C136.566 121.828 132.635 116.761 130.03 111.42C127.471 106.034 123.86 100.693 124.089 94.4849C124.043 91.9743 125.643 89.0528 128.43 88.8702C131.721 88.5963 134.143 91.4265 135.606 94.0284C138.714 99.9171 137.845 106.719 137.891 113.155C137.799 117.218 138.531 121.281 139.353 125.252C142.918 120.002 146.026 114.433 148.494 108.636C145.249 102.656 140.176 98.0455 136.52 92.3394C133.915 88.2311 132.132 83.438 132.041 78.5536C132.041 75.8604 133.092 72.665 135.88 71.7064C138.211 71.113 140.039 73.2128 140.999 75.0844C143.558 80.3796 142.735 86.4052 144.015 91.9743C145.203 96.8586 146.529 101.789 149.271 106.08C150.094 103.158 151.282 100.237 151.327 97.1782C150.231 92.0199 147.397 87.4094 145.432 82.5707C142.598 75.8604 139.033 69.1044 139.033 61.6638C139.033 59.3813 139.216 56.6424 141.273 55.1817C143.238 53.9035 145.66 54.8621 147.443 56.0034C151.008 58.3771 152.79 62.4854 154.07 66.4568C156.583 75.0387 157.543 84.351 154.801 93.0242C153.521 96.4934 153.156 100.191 152.424 103.797C157.269 96.4021 158.503 87.5007 160.011 79.0101C160.605 76.3625 161.611 72.9389 164.718 72.2998C167.049 72.1629 168.969 74.1258 169.38 76.3169C170.705 82.1599 167.78 87.729 165.358 92.8872C161.976 98.9585 157.543 105.121 151.053 108.088C148.951 113.794 145.889 118.998 142.644 124.111C147.626 120.413 152.561 116.533 156.4 111.557C159.645 107.54 162.89 103.067 167.78 100.876C169.38 100.1 171.574 100.328 172.671 101.88C173.63 104.254 172.945 106.993 171.802 109.229C168.923 114.844 163.85 118.952 158.503 122.148C152.973 125.389 146.483 126.211 140.313 127.489C137.754 131.141 134.783 134.519 131.584 137.623C132.361 137.44 133.869 137.12 134.646 136.938C134.6 137.486 134.417 138.536 134.372 139.038C140.999 140.727 148.174 141.457 154.664 138.855C158.594 137.257 162.662 134.701 164.261 130.547C164.627 129.041 165.038 126.85 163.119 126.256C159.051 126.53 155.578 128.858 152.059 130.73C147.031 133.651 141.913 136.39 136.291 137.988C135.697 137.577 135.149 137.212 134.6 136.801C141.547 135.568 147.26 131.186 153.293 127.854C156.538 126.074 159.965 123.609 163.896 124.293C166.044 124.658 167.049 127.215 166.684 129.178C166.135 133.012 163.302 136.025 160.102 137.988C151.967 143.009 141.456 143.374 132.589 140.042C131.264 139.631 129.344 138.718 128.568 140.453C124.454 146.661 119.473 152.23 114.72 157.936C118.102 155.882 121.484 153.691 125.323 152.458C132.955 149.948 139.536 144.607 147.626 143.557C149.819 143.237 152.744 143.42 154.115 145.428C155.349 148.213 152.973 150.861 150.779 152.276C144.106 156.384 135.971 156.886 128.293 156.658C122.352 156.521 116.091 158.164 111.795 162.455C109.647 165.559 109.464 169.485 108.778 173.091C107.179 184.184 104.665 195.094 100.78 205.593C99.3635 208.88 100.095 212.851 97.8553 215.773C96.9413 210.66 98.9522 205.684 100.415 200.891C103.522 191.214 105.579 181.262 106.996 171.22C107.407 168.298 108.138 165.422 109.19 162.684C105.305 153.417 106.493 142.963 102.791 133.651C99.7291 125.298 87.0238 122.787 80.9453 129.086C77.3805 133.24 82.225 140.544 87.4351 139.038C89.2175 138.353 88.8062 135.934 87.8007 134.747C86.3383 134.564 84.8758 134.564 83.459 134.519C83.5504 130.912 88.4406 131.323 89.9488 133.743C92.0968 136.344 90.4515 140.864 86.9781 141.183C81.5395 141.32 76.6036 135.203 78.2946 129.908C80.1684 125.663 85.0129 124.019 89.3089 123.563C86.9781 119.774 86.5211 113.383 91.1827 111.238C95.0218 109.914 97.9924 115.483 95.3417 118.222C94.2905 119.5 92.5081 119.5 90.9999 119.455C92.0511 118.359 93.1937 117.263 94.2905 116.214C93.8792 115.255 93.4222 114.296 92.9651 113.383C91.0913 113.429 89.8574 115.027 89.6289 116.716C89.1261 119.226 90.4058 121.509 91.5027 123.7C96.53 124.339 101.877 126.85 103.934 131.78C107.636 141.046 106.904 151.317 110.012 160.766C112.434 157.114 115.862 154.056 118.056 150.359C117.599 140.909 114.948 131.597 110.789 123.152C109.144 119.683 106.996 116.35 106.447 112.47C105.99 110.234 107.27 107.632 109.647 107.13C113.394 107.13 116.822 109.595 118.833 112.699C121.529 116.853 122.306 121.92 122.352 126.758C122.398 132.008 122.306 137.257 121.712 142.461C121.529 142.598 121.072 142.872 120.889 143.009H120.341C120.387 134.747 122.078 126.302 119.793 118.222C118.65 114.022 115.771 109.868 111.338 108.727C109.829 108.042 108.001 109.047 107.727 110.69C107.224 113.612 108.733 116.35 110.012 118.861C114.308 126.987 118.102 135.614 119.107 144.835C119.473 144.789 120.204 144.698 120.57 144.652C120.707 145.383 120.935 146.798 121.027 147.528C123.86 143.42 127.791 139.631 128.339 134.382C129.436 122.65 126.008 110.644 119.29 101.013C109.235 98.7302 99.2264 95.5805 90.223 90.5135C87.4351 88.8702 84.4645 86.9986 83.1391 83.9401C82.0422 81.5664 83.7789 78.6449 86.2469 78.0972C89.3089 77.5037 92.4167 78.4167 95.296 79.4666C101.877 81.9773 107.544 86.3595 113.074 90.6505C110.835 87.1812 109.235 83.2098 106.539 80.1513C98.8151 77.6407 91.3199 74.3996 84.4187 70.1087C80.7625 67.8263 76.695 65.4982 74.6841 61.5268C73.4501 59.29 73.7243 55.8664 76.3294 54.7252C80.0313 53.4927 83.5047 56.0034 86.2469 58.1945C92.5538 63.6266 98.8151 69.1501 104.711 75.0844C102.288 69.8805 99.4549 64.9048 97.2612 59.6552C91.4113 56.8707 86.2469 52.8993 80.8996 49.293C76.3294 45.8694 71.5306 42.2176 69.7025 36.7398C68.8798 34.2291 69.0169 30.8055 71.5306 29.2991C74.1813 28.2948 76.6493 30.212 78.5231 31.8097C85.7898 38.2005 90.5429 46.7367 95.2503 55.0447C92.0968 45.9607 87.2523 37.4245 85.4242 27.9296C84.7387 23.8669 83.8703 19.439 85.607 15.5133ZM103.522 20.1238C98.9979 27.9296 97.3069 37.1506 98.0838 46.1433C102.288 37.3788 110.835 30.9424 112.892 21.1737C112.937 19.1195 113.76 16.1067 111.52 14.9655C108.001 14.509 105.259 17.4305 103.522 20.1238ZM70.9365 32.8596C70.388 36.6941 72.9474 40.0721 75.461 42.674C80.9453 47.8323 87.4808 51.6668 93.8335 55.6838C90.5429 49.5213 87.0695 43.4044 82.5906 38.0179C79.9399 35.3703 77.5176 32.1293 73.9071 30.7598C72.4446 30.1207 71.0279 31.4445 70.9365 32.8596ZM115.999 49.3387C111.018 54.6339 108.824 61.892 107.59 68.9218C111.84 62.9876 119.518 60.4769 123.129 54.0405C124.18 51.8037 125.688 48.2888 123.083 46.5541C120.432 45.5955 117.736 47.4671 115.999 49.3387ZM75.7809 57.3728C75.0954 60.6595 77.7919 63.2614 80.1684 65.0417C87.6636 70.5195 95.9358 75.1757 104.848 77.9602C100.597 72.5281 95.2046 68.1002 90.1316 63.4897C86.9324 60.8877 84.0988 57.601 80.1684 56.0947C78.6602 55.5012 76.3751 55.5925 75.7809 57.3728ZM142.004 56.7794C140.45 59.7009 141.044 63.1701 141.547 66.2742C143.787 76.3169 149.271 85.1727 152.653 94.8501C155.852 84.3966 155.624 72.6194 150.916 62.6224C149.362 59.3357 146.117 55.5925 142.004 56.7794ZM115.771 70.2456C112.754 75.9517 114.217 82.662 115.405 88.6876C118.741 82.3425 123.038 74.5366 119.107 67.5067C117.827 68.2371 116.365 68.8305 115.771 70.2456ZM135.332 73.8519C133.138 76.2256 133.778 79.8318 134.372 82.7533C135.789 89.3267 140.542 94.348 144.426 99.5975C143.467 95.9913 142.415 92.4307 142.05 88.6876C141.547 84.1227 141.456 79.3297 139.171 75.1757C138.439 73.8519 136.657 72.3911 135.332 73.8519ZM161.702 79.8318C160.148 88.4137 158.594 97.3151 153.795 104.847C155.806 102.884 157.772 100.921 159.645 98.8215C163.896 94.1197 166.455 88.0942 167.78 81.9773C168.146 79.2384 168.42 75.3126 165.404 73.9888C162.753 74.5366 162.25 77.6863 161.702 79.8318ZM86.3383 79.6949C84.6016 80.197 84.0531 82.3425 84.9215 83.8032C86.2012 85.903 88.3492 87.2268 90.3601 88.5506C98.8608 93.8915 108.595 96.7673 118.193 99.3236C112.663 91.6091 104.939 85.7204 96.3929 81.6577C93.2851 80.2426 89.8117 79.0558 86.3383 79.6949ZM126.511 91.9743C125.094 94.7132 126.008 97.9998 126.877 100.784C129.39 107.038 132.772 112.973 136.063 118.861C135.971 113.84 136.063 108.819 136.108 103.843C136.063 99.4149 135.012 94.4393 131.355 91.5634C129.984 90.3766 127.425 90.194 126.511 91.9743ZM158.274 111.786C154.298 116.853 149.317 121.007 144.198 124.841C149.454 123.882 154.801 122.65 159.28 119.637C164.216 116.35 169.014 112.06 171.025 106.308C171.437 104.893 171.894 102.108 169.7 102.154C164.764 103.615 161.565 108.134 158.274 111.786ZM142.553 146.752C135.88 149.354 129.527 152.778 122.809 155.243C128.568 155.38 134.372 155.289 140.13 154.604C145.249 153.782 151.236 151.911 153.384 146.707C150.185 144.059 145.98 145.565 142.553 146.752Z" fill="#EDA12F"/>
</g>
<defs>
<clipPath id="clip0_634_7353">
<rect width="103.791" height="203.911" fill="white" transform="translate(69.2454 11.8613)"/>
</clipPath>
</defs>
</svg>
