<svg width="180" height="214" viewBox="0 0 180 214" fill="none" xmlns="http://www.w3.org/2000/svg">
<path opacity="0.08" d="M175.955 151.036C194.373 193.503 131.732 206.959 74.5905 206.959C17.449 206.959 -26.2766 154.82 18.9396 124.125C64.1559 93.4305 57.0261 66.0996 92.9752 66.0996C128.924 66.0996 157.536 108.568 175.955 151.036Z" fill="#02979D"/>
<path opacity="0.2" d="M7.15907 81.7877C7.15907 121.748 4.17772 148.873 49.4453 151.251C94.7129 153.629 132.094 103.381 97.8871 70.8473C63.6806 38.3136 70.7658 11.3171 42.2869 9.82126C13.8079 8.32543 7.15907 41.8277 7.15907 81.7877Z" fill="#EDA12F"/>
<g opacity="0.7" clip-path="url(#clip0_637_7356)">
<path d="M103.378 144.195C97.5133 145.244 93.9531 150.472 89.4724 153.857C91.7964 147.527 94.4294 141.317 96.7078 134.976C103.02 137.823 111.265 135.834 114.715 129.62C117.35 125.906 115.153 119.591 110.288 119.43C104.907 119.006 101.764 124.091 99.1439 127.952C100.731 121.693 102.135 115.391 103.631 109.111C107.938 109.815 112.167 108.149 115.574 105.67C118.118 103.808 120.732 101.433 121.422 98.2317C121.866 94.6374 117.53 93.0143 114.575 93.5336C110.075 94.0811 107.437 98.2261 104.817 101.463C104.746 99.4783 106.121 97.0586 104.975 95.3545L105.393 95.8348C106.076 91.6233 106.337 87.3628 106.542 83.1373C114.557 87.1446 125.088 80.4494 125.07 71.5637C125.078 67.773 120.851 65.2627 117.418 66.3922C112.084 67.8515 109.457 73.1993 106.823 77.5373C106.413 71.3938 106.287 65.2677 105.73 59.1383C112.894 60.165 120.189 54.7886 120.723 47.4703C121.286 44.1915 118.543 40.2469 114.935 41.0959C109.607 42.3167 106.742 47.6576 104.979 52.3881C104.421 46.8828 103.345 41.5459 102.268 36.209C106.126 36.5698 110.401 36.1626 113.383 33.4411C115.93 31.1476 118.056 27.5566 116.945 24.0361C115.925 20.5366 111.309 19.713 108.322 20.9932C104.062 22.7961 102.021 27.2707 100.426 31.2719C98.697 26.8888 97.396 22.3163 95.0808 18.1823C96.3922 15.412 97.4823 12.3506 96.7085 9.24382C95.8498 4.62923 90.5406 0.765506 85.9187 2.67708C81.9565 4.02051 80.6322 9.14028 82.6277 12.5765C84.6165 16.8754 89.1982 18.8912 93.5583 19.9919C94.7773 22.001 95.5015 24.2802 96.3942 26.4542C93.4482 24.4312 90.0636 22.6432 86.3817 23.1871C83.5001 23.3873 80.486 25.6213 80.8736 28.7351C81.4133 33.9003 86.1292 37.6273 90.7598 39.2223C94.0669 40.5124 97.6644 39.709 100.879 38.4814C101.527 42.1352 102.276 45.7645 102.878 49.4078C99.3206 45.6596 94.3066 42.3919 88.9191 43.455C86.0866 43.8585 83.9012 46.6675 84.5345 49.5499C85.625 54.4099 89.5093 58.6174 94.3188 60.0617C97.5485 60.8538 100.872 59.9874 103.989 58.9771C104.497 64.2791 104.801 69.6301 105.106 74.9811C103.5 72.3549 101.937 69.5462 99.314 67.7897C96.8983 66.1769 93.3071 65.4935 90.9494 67.5907C88.525 69.7685 88.8112 73.5311 90.1113 76.231C91.7698 79.8777 94.6675 83.5699 98.9045 84.1621C101.081 84.5195 103.116 83.4042 105.078 82.608C104.799 86.5284 104.327 90.4523 104.231 94.4148L104.463 94.6602C104.382 94.5936 104.347 94.5375 104.266 94.4709C103.741 97.3744 103.353 100.309 102.782 103.202C101.878 98.5774 100.289 93.7945 96.763 90.5338C93.6657 87.7078 88.0566 87.8556 85.6259 91.5203C83.0935 95.2095 85.1493 100.052 88.0079 102.871C91.6006 106.675 96.9611 107.814 102.023 108.164C100.651 116.826 98.1843 125.235 95.5909 133.567C94.5388 128.332 92.6724 123.293 90.8061 118.254C89.7237 115.652 90.8877 112.896 90.4406 110.248C89.807 106.742 87.4432 103.653 84.3429 101.882C82.3556 100.704 79.5228 100.484 77.7475 102.139C76.2145 103.994 76.4476 106.736 77.5753 108.724C79.9539 113.209 84.4413 116.259 89.1737 117.83C91.2895 123.454 93.5528 129.065 94.686 134.991C91.5695 128.704 87.9545 122.494 82.5186 117.929C79.5234 115.702 75.9667 113.827 72.1759 114.009C70.1436 114.069 68.0452 115.458 67.7549 117.552C67.0161 121.174 70.1873 124.305 73.4206 125.29C77.7984 126.731 82.3713 125.24 86.7304 124.468C90.0178 128.346 91.7998 133.125 94.1327 137.6C92.135 143.764 89.4738 149.68 86.9495 155.628C85.9643 150.936 84.4457 146.265 81.6567 142.31C79.5246 139.467 75.8941 137.286 72.2615 138.033C70.4715 138.293 69.5141 139.945 68.5038 141.2C68.6843 144.17 69.3316 147.2 71.137 149.584C74.4881 154.437 80.4842 156.154 85.5294 158.661C83.5272 162.76 81.3881 166.828 78.9505 170.731C78.64 167.491 78.5399 163.964 76.5238 161.243C74.8658 158.845 71.1483 158.084 68.9133 160.065C65.3907 163.046 66.0114 168.902 69.3158 171.872C71.1948 173.937 73.954 174.477 76.5763 174.985C74.8646 177.615 73.1635 180.2 71.4519 182.83C70.7769 180.754 69.7086 178.3 67.2164 178.061C64.0182 177.133 61.2816 179.622 59.9104 182.235C60.1569 183.876 60.1579 185.749 61.2291 187.148C62.5112 188.883 64.7684 189.307 66.7133 190.044C63.3213 194.543 59.5044 198.8 56.7691 203.787C58.1411 203.047 59.2919 202.016 60.1548 200.774C62.4243 197.601 64.8447 194.606 67.2301 191.555C70.0332 195.657 76.6189 197.319 80.401 193.629C82.4429 191.651 80.7249 188.471 78.7024 187.237C76.1708 185.502 73.0051 186.308 70.257 186.971C72.516 183.843 74.638 180.684 76.6441 177.401C78.7903 180.392 81.5997 183.008 85.156 184.259C91.7526 186.499 99.4681 179.924 98.0781 173.026C97.5181 169.201 93.4138 167.199 89.9106 166.968C86.4951 166.565 83.5792 168.581 80.8177 170.346C83.4375 165.86 85.9309 161.298 88.0346 156.55C92.2106 154.488 96.347 157.601 100.668 157.204C104.276 156.979 107.918 154.938 109.549 151.617C111.095 148.037 107.351 143.43 103.378 144.195ZM112.849 96.0164C114.888 95.094 118.78 94.8867 119.287 97.6919C118.625 100.564 116.001 102.36 113.839 104.022C111.173 106 107.856 106.628 104.62 106.698C106.51 102.669 108.662 98.1243 112.849 96.0164ZM105.965 122.131C108.372 120.237 112.794 120.44 113.923 123.676C115.325 127.6 112.161 131.528 108.785 133.246C105.357 135.193 101.344 134.46 97.7917 133.402C100.022 129.355 102.144 124.947 105.965 122.131ZM115.577 68.7523C118.222 66.8655 123.07 67.9345 123.118 71.6901C122.808 76.9956 118.258 81.5161 113.081 82.2916C111.073 82.4531 109.104 81.6152 107.243 81.1385C109.122 76.5306 111.324 71.5651 115.577 68.7523ZM93.1923 18.0352C88.3479 17.1591 82.7439 13.3234 83.3449 7.79697C84.4485 3.63453 90.2785 3.15353 92.8354 6.23907C96.2804 9.43322 94.942 14.4057 93.1923 18.0352ZM83.1696 29.4081C82.2947 27.5743 84.1051 25.9751 85.7933 25.74C92.3004 24.4068 98.6529 29.9992 100.028 36.1251C94.109 40.3301 85.1314 35.9092 83.1696 29.4081ZM101.389 34.1823C102.468 29.9181 104.19 25.3699 108.028 22.8938C110.407 21.3297 114.855 21.6343 115.474 24.9935C115.883 28.6403 113.13 32.0385 109.933 33.6063C107.276 34.9145 104.212 34.4485 101.389 34.1823ZM96.4136 58.48C91.4747 58.0141 87.1692 53.7575 86.4542 48.936C86.2668 46.2044 89.5061 45.0785 91.7387 45.4009C97.7167 46.1542 103.058 51.1295 103.875 57.1748C101.433 57.7641 98.9972 58.7392 96.4136 58.48ZM114.02 43.1894C115.943 42.1442 118.397 43.3818 118.619 45.5454C119.299 50.3108 115.925 55.1502 111.418 56.5603C109.463 57.1181 107.371 57.0201 105.385 57.0904C106.604 51.8024 108.728 45.7147 114.02 43.1894ZM98.5595 82.1142C95.0488 80.8733 92.4778 77.6404 91.5037 74.1515C90.8639 72.1317 91.3118 69.3545 93.6176 68.7336C95.8253 68.3301 98.0828 69.3783 99.5789 71.0193C102.23 73.6945 103.289 77.443 104.456 80.9284C102.606 81.6544 100.627 82.7347 98.5595 82.1142ZM89.8291 101.85C87.4062 99.8517 85.3792 96.5522 86.8203 93.4277C87.9561 90.3769 92.2239 89.5839 94.6925 91.593C99.0256 94.8957 100.45 100.601 101.386 105.713C97.409 105.037 92.9406 104.824 89.8291 101.85ZM78.5856 107.469C77.6791 105.772 78.0075 102.679 80.3803 102.602C83.413 102.58 85.8889 104.975 87.3994 107.387C89.0153 109.968 88.8589 113.149 88.8113 116.066C85.0753 113.717 80.5954 111.677 78.5856 107.469ZM73.855 123.614C71.2396 122.867 68.532 120.227 69.6819 117.323C71.0113 115.517 73.5492 115.766 75.5011 116.264C79.3907 117.112 82.5195 119.801 85.1184 122.704C81.4297 123.487 77.5762 124.567 73.855 123.614ZM73.7032 150.127C71.1994 148.062 70.2642 144.822 70.0239 141.694C72.3213 138.191 77.2011 139.747 79.5121 142.44C82.8346 146.374 84.2587 151.455 85.4967 156.301C81.4626 154.411 77.141 152.936 73.7032 150.127ZM67.7338 188.118C65.2488 188.266 62.0014 187.134 61.856 184.22C61.4647 180.913 65.8055 178.553 68.2672 180.8C70.2479 182.841 68.3048 185.849 67.7338 188.118ZM76.7407 188.033C78.6259 188.612 80.7787 190.74 79.351 192.763C75.9338 195.913 69.8218 194.072 68.4226 189.717C70.9668 188.479 73.8689 186.939 76.7407 188.033ZM68.5766 167.573C67.1393 164.217 70.5274 158.901 74.281 161.59C77.4381 164.574 77.1983 169.368 77.1827 173.397C73.5426 173.134 69.4455 171.518 68.5766 167.573ZM86.9107 169.349C89.95 168.465 93.6712 169.418 95.4591 172.087C97.8101 177.525 91.9444 183.999 86.275 182.741C82.6835 181.433 79.0386 178.481 79.0751 174.361C81.5383 172.432 83.8819 170.187 86.9107 169.349ZM107.149 152.649C103.1 157.285 96.4548 155.465 91.3855 154.105C95.3997 151.286 98.5425 146.825 103.554 145.723C107.299 144.906 109.917 150.022 107.149 152.649Z" fill="#EDA12F"/>
</g>
<defs>
<clipPath id="clip0_637_7356">
<rect width="59.8516" height="203.923" fill="white" transform="matrix(0.974468 0.224527 -0.224608 0.974449 83.4081 0.850586)"/>
</clipPath>
</defs>
</svg>
