<svg width="188" height="236" viewBox="0 0 188 236" fill="none" xmlns="http://www.w3.org/2000/svg">
<path opacity="0.08" d="M138.196 123.459C165.379 159.078 149.069 214.981 92.233 214.981C35.3967 214.981 26.0064 175.99 26.0064 135.827C26.0064 95.6631 45.6029 60.1357 81.36 60.1357C117.117 60.1357 111.014 87.8396 138.196 123.459Z" fill="#02979D"/>
<path opacity="0.2" d="M96.7717 95.8444C76.1129 68.7278 88.5082 26.1697 131.704 26.1697C174.899 26.1697 182.036 55.8527 182.036 86.4289C182.036 117.005 167.143 144.052 139.967 144.052C112.792 144.052 117.43 122.961 96.7717 95.8444Z" fill="#EDA12F"/>
<g opacity="0.7" clip-path="url(#clip0_630_7352)">
<path d="M86.9342 7.33318C89.0239 5.25463 91.6618 7.33989 92.8611 9.34342C95.2941 12.4092 94.4641 16.4415 93.5817 19.8576C94.0147 20.5657 94.8151 22.0866 95.2482 22.7947C97.1462 20.9756 98.6192 17.7826 101.656 18.0169C105.964 17.7613 108.305 23.5407 105.669 26.6784C103.771 29.6642 100.227 30.6594 96.9612 31.07C97.2726 38.8783 98.8729 46.5872 101.392 53.995C102.739 52.1233 103.647 49.5987 105.957 48.708C108.483 47.8933 110.519 51.0324 109.747 53.2923C109.637 56.782 106.24 58.5691 103.929 60.6266C105.178 66.1908 106.829 71.6266 107.51 77.3033C109.282 75.6389 110.493 72.8652 113.052 72.2761C116.218 71.7448 118.055 75.8094 116.755 78.3523C115.443 81.6162 112.001 83.2879 108.56 82.6261C108.788 84.3147 109.066 86.0636 109.289 87.8073C111.111 86.2032 113.484 83.485 115.865 85.9346C117.851 89.0134 115.845 92.5445 113.37 94.5862C113.409 93.5899 113.483 91.6523 113.523 90.656L114.89 90.8977C114.541 89.3087 114.187 87.7747 113.838 86.1857C112.77 87.4727 111.696 88.8148 110.677 90.1622C110.624 95.3798 110.802 100.508 112.715 105.525C114.529 99.9196 115.969 94.1675 118.479 88.851C121.874 80.6743 127.279 73.5784 130.774 65.5222C133.214 60.3657 135.233 54.9467 138.567 50.3201C139.625 51.4767 140.315 52.9871 140.388 54.5498C142.011 70.7617 137.053 87.7346 125.995 99.8471C120.283 106.08 114.082 112.767 113.02 121.555C116.75 118.022 120.596 114.444 125.453 112.519C136.93 107.669 148.501 102.995 159.889 97.9148C161.556 97.3516 163.236 96.0674 165.094 96.4114C166.354 97.1984 165.469 98.8919 165.414 100.053C164.156 105.656 160.509 110.642 155.414 113.323C143.459 119.682 129.455 120.124 117.009 125.214C113.308 126.694 111.336 130.451 110.538 134.153C108.185 143.652 102.304 151.647 96.9741 159.694C114.483 155.754 128.305 143.238 140.203 130.484C148.475 121.328 158.895 114.155 170.529 109.987L171.742 111.269C169.098 116.24 165.244 120.483 161.92 125C155.834 132.809 151.281 142.042 143.248 148.109C134.614 155.23 123.652 158.184 113.298 161.752C108.001 163.636 102.273 163.034 96.7847 162.843C92.6714 162.228 90.7521 166.601 88.0402 168.787C96.2671 166.516 104.795 167.497 113.119 168.291C126.365 169.389 138.91 164.419 151.581 161.628C158.797 160.039 167.229 159.121 173.717 163.407C166.839 165.529 159.618 167.173 153.504 171.201C145.765 175.352 140.461 183.124 132.001 186.095C125.401 188.799 117.954 188.144 111.337 185.79C102.05 182.848 94.4284 176.453 85.2887 173.136C83.2561 180.443 83.3522 188.175 80.7238 195.313C77.8957 203.378 71.6999 210.009 70.2184 218.535C69.6458 221.036 69.7137 223.821 67.7448 225.8C65.6934 214.659 73.2597 205.324 77.5685 195.735C80.6327 188.693 80.4867 180.901 82.6296 173.604C83.7352 169.598 86.8514 166.673 89.6421 163.662C82.789 157.952 73.98 154.666 65.1052 153.819C55.8392 152.99 45.644 151.406 38.9171 144.375C34.8228 139.484 29.2825 131.676 34.2575 125.595C42.3624 133.925 53.082 139.337 64.2745 142.128C71.2515 143.627 78.7062 144.783 84.3755 149.491C88.1472 152.518 90.1574 157.099 91.8526 161.483C95.3653 157.318 98.773 153.088 101.501 148.403C99.5354 143.937 97.8614 138.166 92.4226 136.869C83.2828 134.719 73.7805 134.034 64.9164 130.743C56.4329 127.545 47.49 125.08 39.9833 119.807C31.6918 114.016 22.9933 108.407 16.1484 100.864C14.054 98.3311 11.4005 95.2442 12.2331 91.7678C15.3253 92.0073 17.1859 95.2408 20.0943 96.2406C28.0107 99.552 35.9377 102.753 43.3737 107.019C49.954 110.925 57.364 113.132 64.3696 116.079C74.5356 119.716 85.6179 122.496 93.4944 130.304C97.9983 134.401 100.053 140.264 103.124 145.391C104.463 143.018 105.686 140.691 106.97 138.313C104.204 129.993 98.7584 122.361 90.8605 118.274C81.4007 113.648 70.0604 117.066 60.682 112.171C55.1805 109.201 49.5661 105.665 46.5482 99.9877C50.9789 101.355 55.1602 103.588 59.8194 104.31C66.883 105.484 73.9522 104.27 80.9583 103.716C89.1929 103.113 97.6684 106.978 102.411 113.82C106.114 118.729 107.25 124.894 108.979 130.671C109.51 126.276 111.857 121.5 109.254 117.307C102.68 105.178 92.1127 95.8356 81.2097 87.6832C70.1071 79.2896 60.8161 68.2352 54.8958 55.6691C59.786 56.3025 64.1668 58.7763 68.5187 60.9696C83.2437 68.7089 97.0654 80.0845 103.518 95.8129C106.158 101.954 108.341 108.219 111.333 114.171C110.649 107.939 109.744 101.685 107.986 95.6281C104.235 93.5477 100.894 89.5063 102.879 85.0287C104.38 85.6164 105.877 86.2593 107.378 86.8471C106.903 85.4127 106.428 83.9784 106.014 82.4942C99.9733 84.5846 94.4121 75.8309 98.5233 71.2228C100.39 69.7341 102.616 70.8911 104.634 71.306C103.729 68.5527 102.939 65.7548 102.26 62.9675C97.81 65.8765 91.668 62.6234 92.0729 57.2171C93.601 54.0293 97.3703 55.3335 99.9689 56.0816C99.0925 53.6088 98.2161 51.1361 97.4499 48.6739C95.3786 49.9763 93.0947 51.7585 90.5066 50.9003C88.5222 50.711 88.428 48.2017 87.5567 46.8407C88.2208 46.2929 89.5439 45.2524 90.2029 44.7597C88.9799 42.4205 86.1874 39.0426 88.8546 36.7414C90.7396 34.4766 93.5559 37.0234 95.5271 37.9338C95.1468 35.5084 94.8269 33.0332 94.5621 30.5633C90.6273 30.41 85.3224 29.4592 85.0683 24.5456C87.09 20.8493 91.1007 23.1211 93.7307 24.7056C92.904 23.4599 92.1377 22.1645 91.3661 20.924C87.2052 23.1383 82.73 20.4887 81.7567 16.1177C83.4472 15.8901 85.1876 15.7228 86.9778 15.6159C86.5581 13.02 85.0833 9.82344 86.9342 7.33318ZM88.8207 13.7916C89.6264 15.2575 89.9384 18.3987 92.2983 17.5683C93.6034 13.8036 91.6981 10.4548 88.9921 7.91851C88.4223 9.80875 87.7211 11.9087 88.8207 13.7916ZM84.9826 17.8701C84.8143 19.632 87.657 20.7367 88.9749 19.7513C89.0171 18.1441 86.2505 16.8244 84.9826 17.8701ZM87.3206 24.2605C87.7769 27.6377 90.9373 28.3282 93.8536 28.6621C92.1686 26.5011 90.1818 24.5891 87.3206 24.2605ZM97.0244 29.2426C101.217 29.0315 104.703 26.3084 105.223 22.0243C103.887 21.4523 102.546 20.9354 101.199 20.4735C97.7236 21.9197 97.7099 26.141 97.0244 29.2426ZM89.4083 38.5166C89.8829 42.2845 93.4002 43.8981 96.5894 44.8692C95.2379 42.1288 93.5849 36.1372 89.4083 38.5166ZM88.9766 47.6985C91.4569 50.2688 94.3104 48.9298 96.9539 47.4597C94.316 46.5413 91.426 45.9321 88.9766 47.6985ZM58.6727 58.6409C64.3808 68.1865 71.2545 77.1767 80.1733 83.9729C89.6616 91.2123 99.058 98.832 106.139 108.564C102.15 97.9048 97.9387 86.6685 89.3455 78.7921C80.6659 70.0741 70.0067 63.4452 58.6727 58.6409ZM103.077 58.4895C106.227 56.9566 108.125 53.9708 106.847 50.4597C104.686 52.6981 103.476 55.4718 103.077 58.4895ZM93.5665 57.3041C94.2724 58.6493 95.0335 59.9999 95.9757 61.201C97.9285 62.8875 100.262 61.1656 102.37 60.6445C100.061 58.035 97.0552 56.3036 93.5665 57.3041ZM15.6817 96.4307C23.1013 105.528 32.9284 112.134 42.5953 118.668C49.4274 123.431 57.5698 125.542 65.2422 128.497C75.0775 132.102 85.6218 132.942 95.7329 135.407C91.4864 129.779 85.5125 125.931 79.0816 123.372C66.1648 118.25 52.5654 114.452 40.4442 107.406C32.5777 102.988 24.0286 99.8942 15.6817 96.4307ZM132.622 67.1432C129.994 73.1151 126.305 78.5414 123.196 84.3008C118.825 92.2177 115.989 100.948 114.36 109.849C117.663 105.553 121.176 101.387 124.793 97.2878C134.73 85.8461 139.667 70.2602 138.325 55.1863C136.127 58.9769 134.345 63.0849 132.622 67.1432ZM99.3786 75.0826C99.659 78.5541 102.704 81.6227 106.274 80.3522C105.413 77.7143 105.046 74.5678 102.652 72.8392C101.261 71.0952 98.4391 73.2705 99.3786 75.0826ZM108.589 80.5731C113.064 82.0559 117.317 77.128 113.9 73.3015C111.545 75.2437 109.534 77.6631 108.589 80.5731ZM54.0313 104.925L53.7976 105.624C56.4276 107.209 59.0471 108.904 61.8688 110.228C70.0739 114.012 79.5476 112.082 88.0233 114.78C95.8795 116.975 101.738 123.201 106.11 129.841C104.888 121.668 101.513 112.734 93.841 108.613C88.9511 105.646 83.0318 105.303 77.4983 106.164C69.6626 107.25 61.5909 107.313 54.0313 104.925ZM104.692 88.7576C103.965 89.9661 105.277 92.536 106.834 91.9623C107.456 90.6882 106.254 88.1288 104.692 88.7576ZM43.7285 145.834C50.6368 150.383 59.0707 151.187 67.0977 152.176C74.9095 153.088 82.2248 156.286 89.1779 159.784C87.3986 156.28 85.5249 152.601 82.1862 150.282C75.6008 145.264 66.9778 145.275 59.434 142.721C50.2182 139.619 41.4356 134.892 34.2808 128.264C34.0647 135.189 38.2822 141.703 43.7285 145.834ZM127.466 114.155C122.505 116.016 118.139 119.21 115.112 123.533C128.518 118.867 143.192 117.823 155.75 110.965C160.373 108.573 162.631 103.566 163.706 98.7235C151.685 104.021 139.665 109.319 127.466 114.155ZM132.348 141.679C123.382 149.936 112.89 156.713 101.326 160.721C108.828 161.381 116.024 158.845 122.938 156.338C132.79 152.778 142.458 147.645 148.993 139.212C155.121 130.963 161.093 122.588 166.961 114.147C152.626 119.224 143.051 131.533 132.348 141.679ZM88.0058 170.895C99.6494 177.118 111.329 186.456 125.297 185.233C136.687 184.209 143.269 174.114 152.711 169.014C157.326 166.121 162.587 164.623 167.664 162.718C152.581 161.057 138.665 168.729 123.826 169.758C111.859 171.005 99.7162 167.679 88.0058 170.895Z" fill="#EDA12F"/>
</g>
<defs>
<clipPath id="clip0_630_7352">
<rect width="167.506" height="220.187" fill="white" transform="matrix(0.995477 0.0950076 -0.0950432 0.995473 21.1614 0)"/>
</clipPath>
</defs>
</svg>
