<svg width="295" height="163" viewBox="0 0 295 163" fill="none" xmlns="http://www.w3.org/2000/svg">
<rect x="150" y="-0.000488281" width="145" height="163" fill="#EDA12F"/>
<rect y="-0.000488281" width="150" height="163" fill="url(#paint0_linear_736_13912)"/>
<g clip-path="url(#clip0_736_13912)">
<mask id="path-3-inside-1_736_13912" fill="white">
<path d="M224.763 -31.6705C226.463 -27.3725 224.765 -22.8002 224.006 -18.5659C221.351 -8.39999 217.227 1.4214 211.704 10.2993C202.758 22.6808 190.438 32.1072 177.816 40.4241C167.93 46.5182 157.209 50.9296 146.696 55.7889C144.097 56.9231 141.813 58.6199 139.582 60.374C148.645 56.6494 157.966 53.5395 167.687 51.982C177.187 50.5233 186.892 51.8671 196.19 54.2315C209.072 57.6447 221.293 63.4901 234.357 66.2002C236.929 66.1599 238.606 69.1974 235.519 70.1438C224.113 75.7267 211.039 77.944 198.3 77.6039C177.904 77.2234 159.435 65.1087 139.019 65.4939C132.67 65.626 127.115 69.0816 122.957 73.5901C116.405 79.7902 108.893 84.9585 102.765 91.7265C117.012 88.5255 131.566 86.2153 145.099 80.8991C154.602 77.0862 165.632 75.7012 175.731 78.8161C169.47 82.0734 162.737 84.4867 156.897 88.4214C146.08 94.5255 136.332 103.912 123.287 104.926C114.515 105.708 107.227 99.4429 100.172 94.8868C91.7164 102.857 83.5811 111.171 75.4458 119.485C93.0197 114.473 110.961 107.836 129.735 109.726C140.269 110.727 150.56 108.211 160.924 107.232C170.304 106.206 179.113 110.627 188.339 111.455C198.372 112.815 208.666 110.19 218.486 113.565C222.988 115.151 227.932 116.539 230.896 120.624C224.603 120.704 218.217 120.122 211.955 121.135C199.942 122.472 189.514 130.566 176.97 128.976C165.114 128.35 156.71 118.527 145.8 114.99C159.783 127.108 177.178 133.914 193.158 142.678C185.444 144.935 177.183 144.92 169.093 144.64C154.51 143.663 140.292 134.437 133.834 121.094C132.168 117.619 130.076 113.685 125.88 112.99C116.849 110.912 107.696 113.866 98.9531 115.69C109.493 118.716 119.725 123.097 128.705 129.498C137.686 135.899 146.484 143.003 157.061 146.743C158.791 147.593 161.515 148.053 161.619 150.522C141.516 156.069 118.51 146.035 106.009 129.225C102.458 124.51 98.4786 119.445 92.5558 117.791C86.2465 118.527 80.273 121.196 74.2116 122.984C68.0462 124.549 64.8928 130.475 60.364 134.473C53.9293 140.35 48.0304 146.691 42.3981 153.319C48.3263 150.264 54.8355 148.059 61.6299 147.62C72.6972 146.949 83.9217 146.559 94.6638 143.517C97.6919 142.732 100.731 141.51 103.895 141.881C104.19 145.455 100.914 147.432 98.6754 149.515C90.6387 156.026 81.6291 162.053 71.1936 163.741C63.2956 164.565 55.1604 163.899 47.5664 161.233C42.8458 159.637 36.6085 159.665 33.759 164.346C25.0718 175.097 16.9765 186.261 8.18276 196.897C4.2377 201.635 0.87906 207.003 -3.81499 211.048C-2.93264 206.272 0.599227 202.774 3.31812 198.963C18.4 179.485 32.6262 159.199 49.262 141.056C47.9161 126.7 42.1242 112.951 34.4903 100.702C28.1625 90.979 22.1066 79.0792 25.4014 67.3562C30.2126 71.9684 33.739 77.6685 37.7132 82.9522C44.0623 91.7999 50.622 100.986 52.7676 111.712C54.9585 120.578 53.9695 129.729 52.1701 138.458C54.9183 135.689 58.866 133.086 58.1544 128.617C59.4049 104.257 39.4004 85.5522 35.6477 62.2102C35.2506 60.5484 35.7837 58.8767 36.1516 57.2518C44.0441 65.6263 53.1147 72.7982 60.7247 81.5423C68.3533 89.5208 72.3381 101.102 70.2161 111.841C69.3764 117.112 66.4229 121.569 64.0665 126.219C70.6878 119.42 77.9515 113.199 84.0397 105.827L82.6829 105.378C82.9255 104.404 83.5199 102.462 83.7625 101.488C84.3969 102.395 85.6656 104.208 86.3 105.115C84.9994 95.6341 80.1163 87.2404 76.6112 78.4203C82.6566 81.7778 84.0079 89.1801 87.0438 94.8018C86.8761 85.9782 79.37 79.7031 77.491 71.5088C82.3688 75.6314 84.5171 81.758 87.7237 87.1142C87.8863 84.9318 88.0489 82.7495 88.2676 80.5151C84.8291 73.4503 80.3965 66.7757 73.946 62.0845C65.0299 55.3033 55.8899 48.7304 48.6611 40.0594C50.2417 49.2795 55.9005 57.2726 61.9111 64.297C70.9444 75.2452 78.8581 87.2345 84.4476 100.316C83.4693 100.05 82.4911 99.7841 81.5688 99.4659C77.4374 87.1661 69.0465 76.7964 61.0847 66.7759C53.6934 58.0423 46.2327 47.6627 46.1929 35.8338C46.5794 35.6882 47.3551 35.2875 47.7443 35.0325C52.5181 41.176 57.5132 47.2207 63.8598 51.6879C73.157 58.5422 83.3872 65.2771 88.4302 76.0878C88.8516 63.2955 89.5581 50.0242 95.0946 38.3545C97.339 33.8085 99.9673 29.2262 104.251 26.3116C103.992 36.9215 102.15 47.4004 102.001 58.0156C100.209 70.9061 100.316 84.4904 94.3927 96.3058C96.6957 93.8433 100.244 91.9336 100.334 88.2146C102.486 71.7824 109.653 56.0299 121.155 44.2643C126.953 55.5494 119.55 67.4577 114.227 77.1118C118.799 73.6088 123.053 69.6524 127.304 65.8054C127.054 58.1277 126.092 50.4705 126.825 42.8402C128.313 24.4595 137.216 7.09329 150.645 -5.1817C152.697 -4.09722 152.041 -1.88388 151.996 -0.0244055C151.119 13.5125 148.93 26.9862 145.276 40.0059C142.749 47.1665 138.708 53.5971 134.885 60.0382C150.311 44.4099 161.935 25.3679 177.201 9.56758C191.686 -5.6133 208.785 -18.0947 224.763 -31.6705ZM223.243 -27.6919C209.609 -15.9744 195.119 -5.06459 182.658 7.91408C170.953 19.0128 161.765 32.3682 151.774 44.9732C159.877 40.2167 164.676 31.9062 171.819 26.1179C169.364 34.8151 160.978 39.9412 155.293 46.5116C161.04 41.9154 166.843 37.2671 172.907 33.1241C174.253 31.7654 176.121 31.4174 178.022 32.0018C171.417 38.1445 163.433 42.4687 156.884 48.5594C164.361 44.8131 171.995 41.3482 178.893 36.6431C190.694 28.3415 202.779 19.5608 210.739 7.24129C216.747 -3.58438 221.737 -15.2804 223.243 -27.6919ZM184.107 53.923C171.79 52.0154 159.459 55.1446 148.192 59.5296C155.039 59.1477 161.791 58.2137 168.588 57.6651C170.454 57.4265 172.301 57.9536 173.922 58.7982C167.213 60.2271 160.213 60.1088 153.448 61.5897C159.765 62.7702 166.576 61.6748 172.578 64.5375C166.536 65.5604 160.442 64.1717 154.306 64.5331C161.908 66.8706 169.628 68.8852 177.224 71.4414C195.787 77.4828 216.274 76.3893 233.752 68.5803C216.765 65.243 201.403 55.7968 184.107 53.923ZM149.725 -1.11943C135.36 13.6292 127.467 34.4389 128.819 55.3108C129.669 51.8474 131.37 44.9208 132.273 41.5148C132.191 44.9056 131.969 51.7393 131.887 55.1301C134.534 49.7822 135.069 43.5112 138.689 38.6482C139.358 44.8677 135.997 50.3455 134.435 56.0742C139.313 48.9721 143.495 41.2342 145.127 32.6616C147.312 21.5422 149.501 10.3135 149.725 -1.11943ZM204.737 114.271C196.191 114.735 187.547 114.757 179.121 112.544C170.973 110.18 162.417 108.837 154.108 110.791C159.061 111.851 164.136 112.369 168.96 114.19C167.417 114.663 165.924 115.303 164.29 115.005C158.512 114.179 152.797 112.973 146.946 112.855C154.087 116.156 162.859 115.374 169.08 120.492C165.253 120.417 161.614 119.311 157.914 118.476C164.104 122.662 171.007 126.718 178.612 126.701C189.048 127.259 198.113 121.18 208.112 119.471C213.277 118.515 218.534 118.331 223.684 118.031C217.782 115.502 211.313 113.821 204.737 114.271ZM132.075 87.7729C124.415 90.0868 116.351 90.9576 108.696 93.0527C116.367 94.7912 123.828 91.7011 131.414 92.45C126.296 95.9267 119.854 95.3972 113.918 96.5348C118.764 97.4801 123.804 97.1754 128.65 98.1208C123.375 101.316 117.02 99.422 111.175 99.0856C114.363 100.718 117.767 102.469 121.488 102.43C129.311 102.423 136.297 98.5988 142.687 94.581C150.801 89.387 158.965 84.3597 167.394 79.7284C154.85 78.1384 143.644 84.4975 132.075 87.7729ZM120.862 47.3165C111.527 57.7081 105.348 71.0443 103.312 85.018C105.346 80.1334 105.876 74.0812 110.28 70.7343L111.508 71.9434C110.32 75.8284 108.264 79.3432 106.75 83.1031C114.979 73.2057 123.32 60.9593 120.862 47.3165ZM101.929 31.7847C95.0919 40.7088 92.3542 52.0206 91.8636 63.1669C91.349 75.2976 90.3972 87.4073 89.5547 99.5222C91.5567 89.2153 92.631 78.8089 95.0675 68.6324C96.8986 76.5506 94.0224 84.5704 93.3905 92.5342C97.6688 83.1035 97.653 72.5351 99.3751 62.4885C100.226 52.2903 101.132 42.0402 101.929 31.7847ZM144.499 116.734C147.154 120.038 150.31 122.983 152.407 126.698C147.777 123.627 143.771 119.656 139.029 116.69C141.831 120.712 146.301 123.611 148.103 128.242L147.087 129.507C143.462 125.609 140.061 121.503 135.705 118.391C139.258 127.488 146.97 134.32 155.563 138.622C165.673 143.544 177.17 143.222 187.979 141.936C172.836 134.745 157.704 127.117 144.499 116.734ZM140.797 113.764C136.95 112.209 139.306 116.539 141.604 116.54C144.222 116.885 142.276 113.671 140.797 113.764ZM135.615 115.376C135.897 117.251 136.761 117.73 138.155 116.648C137.875 114.663 137.065 114.241 135.615 115.376ZM145.218 143.325C134.588 137.283 125.558 128.47 114.242 123.599C116.54 125.845 118.67 128.248 120.853 130.707C115.751 129.038 112.027 124.697 107.387 122.064C110.463 126.045 115.812 128.767 116.777 134.07C112.758 130.646 109.133 126.748 104.607 123.901C107.888 128.44 111.39 132.88 115.564 136.695C127.026 146.774 142.678 151.033 157.434 149.389C153.377 147.496 149.155 145.65 145.218 143.325ZM37.5216 61.6434C42.0953 82.7253 57.3738 100.052 60.5135 121.613C61.5985 115.259 58.8531 108.939 59.5542 102.621C61.7559 106.56 62.3582 111.024 63.403 115.291C64.0108 110.556 62.8754 105.519 64.5201 100.889C67.5081 106.235 65.882 112.344 66.1245 118.105C70.5361 107.695 68.8197 95.0735 61.7668 85.9182C54.6553 76.9243 45.8672 69.3827 37.5216 61.6434ZM81.0856 148.448C70.6021 149.859 59.5828 148.562 49.5844 152.515C53.7906 152.772 58.5352 151.139 62.123 154.324C57.413 154.535 52.7056 154.637 48.1369 155.785C52.7083 156.772 57.4636 156.947 62.0243 158.371C57.4342 160.395 52.3964 158.345 47.5238 158.494C55.3177 161.935 64.1726 162.253 72.3531 161.059C83.1352 158.622 92.1101 151.772 100.269 144.718C93.8908 146.054 87.5602 147.665 81.0856 148.448ZM26.6701 71.4144C25.8756 81.5605 30.9 90.8919 36.2229 99.1973C41.074 106.659 44.7044 114.828 47.8949 123.085C47.4924 119.397 46.6528 115.688 47.1807 111.99C50.8217 117.477 50.4964 124.087 51.1654 130.306C52.0424 123.504 51.9412 116.436 49.9715 109.716C45.6749 95.2176 35.4581 83.4459 26.6701 71.4144Z"/>
</mask>
<path d="M224.763 -31.6705C226.463 -27.3725 224.765 -22.8002 224.006 -18.5659C221.351 -8.39999 217.227 1.4214 211.704 10.2993C202.758 22.6808 190.438 32.1072 177.816 40.4241C167.93 46.5182 157.209 50.9296 146.696 55.7889C144.097 56.9231 141.813 58.6199 139.582 60.374C148.645 56.6494 157.966 53.5395 167.687 51.982C177.187 50.5233 186.892 51.8671 196.19 54.2315C209.072 57.6447 221.293 63.4901 234.357 66.2002C236.929 66.1599 238.606 69.1974 235.519 70.1438C224.113 75.7267 211.039 77.944 198.3 77.6039C177.904 77.2234 159.435 65.1087 139.019 65.4939C132.67 65.626 127.115 69.0816 122.957 73.5901C116.405 79.7902 108.893 84.9585 102.765 91.7265C117.012 88.5255 131.566 86.2153 145.099 80.8991C154.602 77.0862 165.632 75.7012 175.731 78.8161C169.47 82.0734 162.737 84.4867 156.897 88.4214C146.08 94.5255 136.332 103.912 123.287 104.926C114.515 105.708 107.227 99.4429 100.172 94.8868C91.7164 102.857 83.5811 111.171 75.4458 119.485C93.0197 114.473 110.961 107.836 129.735 109.726C140.269 110.727 150.56 108.211 160.924 107.232C170.304 106.206 179.113 110.627 188.339 111.455C198.372 112.815 208.666 110.19 218.486 113.565C222.988 115.151 227.932 116.539 230.896 120.624C224.603 120.704 218.217 120.122 211.955 121.135C199.942 122.472 189.514 130.566 176.97 128.976C165.114 128.35 156.71 118.527 145.8 114.99C159.783 127.108 177.178 133.914 193.158 142.678C185.444 144.935 177.183 144.92 169.093 144.64C154.51 143.663 140.292 134.437 133.834 121.094C132.168 117.619 130.076 113.685 125.88 112.99C116.849 110.912 107.696 113.866 98.9531 115.69C109.493 118.716 119.725 123.097 128.705 129.498C137.686 135.899 146.484 143.003 157.061 146.743C158.791 147.593 161.515 148.053 161.619 150.522C141.516 156.069 118.51 146.035 106.009 129.225C102.458 124.51 98.4786 119.445 92.5558 117.791C86.2465 118.527 80.273 121.196 74.2116 122.984C68.0462 124.549 64.8928 130.475 60.364 134.473C53.9293 140.35 48.0304 146.691 42.3981 153.319C48.3263 150.264 54.8355 148.059 61.6299 147.62C72.6972 146.949 83.9217 146.559 94.6638 143.517C97.6919 142.732 100.731 141.51 103.895 141.881C104.19 145.455 100.914 147.432 98.6754 149.515C90.6387 156.026 81.6291 162.053 71.1936 163.741C63.2956 164.565 55.1604 163.899 47.5664 161.233C42.8458 159.637 36.6085 159.665 33.759 164.346C25.0718 175.097 16.9765 186.261 8.18276 196.897C4.2377 201.635 0.87906 207.003 -3.81499 211.048C-2.93264 206.272 0.599227 202.774 3.31812 198.963C18.4 179.485 32.6262 159.199 49.262 141.056C47.9161 126.7 42.1242 112.951 34.4903 100.702C28.1625 90.979 22.1066 79.0792 25.4014 67.3562C30.2126 71.9684 33.739 77.6685 37.7132 82.9522C44.0623 91.7999 50.622 100.986 52.7676 111.712C54.9585 120.578 53.9695 129.729 52.1701 138.458C54.9183 135.689 58.866 133.086 58.1544 128.617C59.4049 104.257 39.4004 85.5522 35.6477 62.2102C35.2506 60.5484 35.7837 58.8767 36.1516 57.2518C44.0441 65.6263 53.1147 72.7982 60.7247 81.5423C68.3533 89.5208 72.3381 101.102 70.2161 111.841C69.3764 117.112 66.4229 121.569 64.0665 126.219C70.6878 119.42 77.9515 113.199 84.0397 105.827L82.6829 105.378C82.9255 104.404 83.5199 102.462 83.7625 101.488C84.3969 102.395 85.6656 104.208 86.3 105.115C84.9994 95.6341 80.1163 87.2404 76.6112 78.4203C82.6566 81.7778 84.0079 89.1801 87.0438 94.8018C86.8761 85.9782 79.37 79.7031 77.491 71.5088C82.3688 75.6314 84.5171 81.758 87.7237 87.1142C87.8863 84.9318 88.0489 82.7495 88.2676 80.5151C84.8291 73.4503 80.3965 66.7757 73.946 62.0845C65.0299 55.3033 55.8899 48.7304 48.6611 40.0594C50.2417 49.2795 55.9005 57.2726 61.9111 64.297C70.9444 75.2452 78.8581 87.2345 84.4476 100.316C83.4693 100.05 82.4911 99.7841 81.5688 99.4659C77.4374 87.1661 69.0465 76.7964 61.0847 66.7759C53.6934 58.0423 46.2327 47.6627 46.1929 35.8338C46.5794 35.6882 47.3551 35.2875 47.7443 35.0325C52.5181 41.176 57.5132 47.2207 63.8598 51.6879C73.157 58.5422 83.3872 65.2771 88.4302 76.0878C88.8516 63.2955 89.5581 50.0242 95.0946 38.3545C97.339 33.8085 99.9673 29.2262 104.251 26.3116C103.992 36.9215 102.15 47.4004 102.001 58.0156C100.209 70.9061 100.316 84.4904 94.3927 96.3058C96.6957 93.8433 100.244 91.9336 100.334 88.2146C102.486 71.7824 109.653 56.0299 121.155 44.2643C126.953 55.5494 119.55 67.4577 114.227 77.1118C118.799 73.6088 123.053 69.6524 127.304 65.8054C127.054 58.1277 126.092 50.4705 126.825 42.8402C128.313 24.4595 137.216 7.09329 150.645 -5.1817C152.697 -4.09722 152.041 -1.88388 151.996 -0.0244055C151.119 13.5125 148.93 26.9862 145.276 40.0059C142.749 47.1665 138.708 53.5971 134.885 60.0382C150.311 44.4099 161.935 25.3679 177.201 9.56758C191.686 -5.6133 208.785 -18.0947 224.763 -31.6705ZM223.243 -27.6919C209.609 -15.9744 195.119 -5.06459 182.658 7.91408C170.953 19.0128 161.765 32.3682 151.774 44.9732C159.877 40.2167 164.676 31.9062 171.819 26.1179C169.364 34.8151 160.978 39.9412 155.293 46.5116C161.04 41.9154 166.843 37.2671 172.907 33.1241C174.253 31.7654 176.121 31.4174 178.022 32.0018C171.417 38.1445 163.433 42.4687 156.884 48.5594C164.361 44.8131 171.995 41.3482 178.893 36.6431C190.694 28.3415 202.779 19.5608 210.739 7.24129C216.747 -3.58438 221.737 -15.2804 223.243 -27.6919ZM184.107 53.923C171.79 52.0154 159.459 55.1446 148.192 59.5296C155.039 59.1477 161.791 58.2137 168.588 57.6651C170.454 57.4265 172.301 57.9536 173.922 58.7982C167.213 60.2271 160.213 60.1088 153.448 61.5897C159.765 62.7702 166.576 61.6748 172.578 64.5375C166.536 65.5604 160.442 64.1717 154.306 64.5331C161.908 66.8706 169.628 68.8852 177.224 71.4414C195.787 77.4828 216.274 76.3893 233.752 68.5803C216.765 65.243 201.403 55.7968 184.107 53.923ZM149.725 -1.11943C135.36 13.6292 127.467 34.4389 128.819 55.3108C129.669 51.8474 131.37 44.9208 132.273 41.5148C132.191 44.9056 131.969 51.7393 131.887 55.1301C134.534 49.7822 135.069 43.5112 138.689 38.6482C139.358 44.8677 135.997 50.3455 134.435 56.0742C139.313 48.9721 143.495 41.2342 145.127 32.6616C147.312 21.5422 149.501 10.3135 149.725 -1.11943ZM204.737 114.271C196.191 114.735 187.547 114.757 179.121 112.544C170.973 110.18 162.417 108.837 154.108 110.791C159.061 111.851 164.136 112.369 168.96 114.19C167.417 114.663 165.924 115.303 164.29 115.005C158.512 114.179 152.797 112.973 146.946 112.855C154.087 116.156 162.859 115.374 169.08 120.492C165.253 120.417 161.614 119.311 157.914 118.476C164.104 122.662 171.007 126.718 178.612 126.701C189.048 127.259 198.113 121.18 208.112 119.471C213.277 118.515 218.534 118.331 223.684 118.031C217.782 115.502 211.313 113.821 204.737 114.271ZM132.075 87.7729C124.415 90.0868 116.351 90.9576 108.696 93.0527C116.367 94.7912 123.828 91.7011 131.414 92.45C126.296 95.9267 119.854 95.3972 113.918 96.5348C118.764 97.4801 123.804 97.1754 128.65 98.1208C123.375 101.316 117.02 99.422 111.175 99.0856C114.363 100.718 117.767 102.469 121.488 102.43C129.311 102.423 136.297 98.5988 142.687 94.581C150.801 89.387 158.965 84.3597 167.394 79.7284C154.85 78.1384 143.644 84.4975 132.075 87.7729ZM120.862 47.3165C111.527 57.7081 105.348 71.0443 103.312 85.018C105.346 80.1334 105.876 74.0812 110.28 70.7343L111.508 71.9434C110.32 75.8284 108.264 79.3432 106.75 83.1031C114.979 73.2057 123.32 60.9593 120.862 47.3165ZM101.929 31.7847C95.0919 40.7088 92.3542 52.0206 91.8636 63.1669C91.349 75.2976 90.3972 87.4073 89.5547 99.5222C91.5567 89.2153 92.631 78.8089 95.0675 68.6324C96.8986 76.5506 94.0224 84.5704 93.3905 92.5342C97.6688 83.1035 97.653 72.5351 99.3751 62.4885C100.226 52.2903 101.132 42.0402 101.929 31.7847ZM144.499 116.734C147.154 120.038 150.31 122.983 152.407 126.698C147.777 123.627 143.771 119.656 139.029 116.69C141.831 120.712 146.301 123.611 148.103 128.242L147.087 129.507C143.462 125.609 140.061 121.503 135.705 118.391C139.258 127.488 146.97 134.32 155.563 138.622C165.673 143.544 177.17 143.222 187.979 141.936C172.836 134.745 157.704 127.117 144.499 116.734ZM140.797 113.764C136.95 112.209 139.306 116.539 141.604 116.54C144.222 116.885 142.276 113.671 140.797 113.764ZM135.615 115.376C135.897 117.251 136.761 117.73 138.155 116.648C137.875 114.663 137.065 114.241 135.615 115.376ZM145.218 143.325C134.588 137.283 125.558 128.47 114.242 123.599C116.54 125.845 118.67 128.248 120.853 130.707C115.751 129.038 112.027 124.697 107.387 122.064C110.463 126.045 115.812 128.767 116.777 134.07C112.758 130.646 109.133 126.748 104.607 123.901C107.888 128.44 111.39 132.88 115.564 136.695C127.026 146.774 142.678 151.033 157.434 149.389C153.377 147.496 149.155 145.65 145.218 143.325ZM37.5216 61.6434C42.0953 82.7253 57.3738 100.052 60.5135 121.613C61.5985 115.259 58.8531 108.939 59.5542 102.621C61.7559 106.56 62.3582 111.024 63.403 115.291C64.0108 110.556 62.8754 105.519 64.5201 100.889C67.5081 106.235 65.882 112.344 66.1245 118.105C70.5361 107.695 68.8197 95.0735 61.7668 85.9182C54.6553 76.9243 45.8672 69.3827 37.5216 61.6434ZM81.0856 148.448C70.6021 149.859 59.5828 148.562 49.5844 152.515C53.7906 152.772 58.5352 151.139 62.123 154.324C57.413 154.535 52.7056 154.637 48.1369 155.785C52.7083 156.772 57.4636 156.947 62.0243 158.371C57.4342 160.395 52.3964 158.345 47.5238 158.494C55.3177 161.935 64.1726 162.253 72.3531 161.059C83.1352 158.622 92.1101 151.772 100.269 144.718C93.8908 146.054 87.5602 147.665 81.0856 148.448ZM26.6701 71.4144C25.8756 81.5605 30.9 90.8919 36.2229 99.1973C41.074 106.659 44.7044 114.828 47.8949 123.085C47.4924 119.397 46.6528 115.688 47.1807 111.99C50.8217 117.477 50.4964 124.087 51.1654 130.306C52.0424 123.504 51.9412 116.436 49.9715 109.716C45.6749 95.2176 35.4581 83.4459 26.6701 71.4144Z" fill="#FAFEFE" stroke="white" stroke-width="4" mask="url(#path-3-inside-1_736_13912)"/>
</g>
<defs>
<linearGradient id="paint0_linear_736_13912" x1="8.82928e-07" y1="81.4995" x2="145.882" y2="106.01" gradientUnits="userSpaceOnUse">
<stop stop-color="#02979D"/>
<stop offset="1" stop-color="#00888D"/>
</linearGradient>
<clipPath id="clip0_736_13912">
<rect width="295" height="163" fill="white" transform="translate(0 -0.000488281)"/>
</clipPath>
</defs>
</svg>
