<svg width="259" height="216" viewBox="0 0 259 216" fill="none" xmlns="http://www.w3.org/2000/svg">
<path opacity="0.2" d="M48.2825 62.3865C66.3591 23.3003 132.466 26.5301 165.129 59.1544C197.792 91.7786 183.361 123.757 141.114 132.478C98.8676 141.199 76.8917 165.641 56.3426 145.117C35.7934 124.592 30.206 101.473 48.2825 62.3865Z" fill="#EDA12F"/>
<path opacity="0.08" d="M214.311 140.641C235.089 169.386 166.664 200.976 102.2 200.976C37.7365 200.976 20.3839 177.639 53.4565 152.025C86.5292 126.411 84.0667 103.074 124.622 103.074C165.178 103.074 193.533 111.897 214.311 140.641Z" fill="#02979D"/>
<g opacity="0.7" clip-path="url(#clip0_215_3333)">
<path d="M93.607 15.5133C94.841 12.8657 98.3601 10.9484 101.194 12.2722C103.296 14.0525 102.473 17.3392 101.742 19.576C101.011 17.7957 100.417 15.9241 99.8226 14.0982C97.4917 14.4634 95.3437 16.061 95.3894 18.6174C94.9781 30.0294 100.554 40.346 104.621 50.6625C104.667 46.4629 104.484 42.2176 104.53 38.0179C104.484 32.038 106.404 26.2406 109.055 20.9454C110.883 17.4761 113.67 13.9156 117.738 13.1852C119.612 12.7287 121.577 13.7786 122.217 15.6046C123.359 19.0738 122.217 22.817 120.846 26.058C117.829 33.3161 111.888 38.7939 108.369 45.6868C106.906 49.9321 106.678 54.6796 107.546 59.1074C107.866 58.2401 108.415 57.601 109.237 57.1446C109.374 57.3728 109.694 57.7836 109.877 57.9662C110.243 57.4641 111.02 56.4142 111.385 55.8664C111.431 56.3685 111.477 57.4185 111.477 57.9206C111.248 59.7922 110.38 61.5725 109.831 63.3984C111.065 65.909 112.391 68.4197 113.67 70.9304C114.493 63.3071 116.687 55.5012 121.577 49.3843C123.862 46.5998 127.381 43.9065 131.266 44.7739C133.597 45.276 134.511 48.0605 134.237 50.206C133.643 54.4513 130.535 57.6923 127.518 60.4312C124.411 63.2614 120.252 65.0417 118.012 68.6936C116.733 70.5652 116.138 72.802 115.636 74.9931C117.418 78.5993 119.109 82.2512 121.44 85.5378C120.434 80.4252 119.84 74.9474 122.08 70.063C123.04 67.8263 125.142 65.4069 127.838 66.3655C130.9 68.5567 130.398 72.7563 130.261 76.043C129.941 81.5208 125.827 85.8117 124.959 91.1069C125.873 95.0784 129.027 98.0455 130.9 101.606C137.527 111.877 139.95 124.567 138.213 136.573C140.726 133.788 143.423 131.095 145.388 127.9C144.566 121.828 140.635 116.761 138.03 111.42C135.471 106.034 131.86 100.693 132.089 94.4849C132.043 91.9743 133.643 89.0528 136.43 88.8702C139.721 88.5963 142.143 91.4265 143.606 94.0284C146.714 99.9171 145.845 106.719 145.891 113.155C145.799 117.218 146.531 121.281 147.353 125.252C150.918 120.002 154.026 114.433 156.494 108.636C153.249 102.656 148.176 98.0455 144.52 92.3394C141.915 88.2311 140.132 83.438 140.041 78.5536C140.041 75.8604 141.092 72.665 143.88 71.7064C146.211 71.113 148.039 73.2128 148.999 75.0844C151.558 80.3796 150.735 86.4052 152.015 91.9743C153.203 96.8586 154.529 101.789 157.271 106.08C158.093 103.158 159.282 100.237 159.327 97.1782C158.231 92.0199 155.397 87.4094 153.432 82.5707C150.598 75.8604 147.033 69.1044 147.033 61.6638C147.033 59.3813 147.216 56.6424 149.273 55.1817C151.238 53.9035 153.66 54.8621 155.443 56.0034C159.008 58.3771 160.79 62.4854 162.07 66.4568C164.583 75.0387 165.543 84.351 162.801 93.0242C161.521 96.4934 161.156 100.191 160.424 103.797C165.269 96.4021 166.503 87.5007 168.011 79.0101C168.605 76.3625 169.611 72.9389 172.718 72.2998C175.049 72.1629 176.969 74.1258 177.38 76.3169C178.705 82.1599 175.78 87.729 173.358 92.8872C169.976 98.9585 165.543 105.121 159.053 108.088C156.951 113.794 153.889 118.998 150.644 124.111C155.626 120.413 160.561 116.533 164.4 111.557C167.645 107.54 170.89 103.067 175.78 100.876C177.38 100.1 179.574 100.328 180.671 101.88C181.63 104.254 180.945 106.993 179.802 109.229C176.923 114.844 171.85 118.952 166.503 122.148C160.973 125.389 154.483 126.211 148.313 127.489C145.754 131.141 142.783 134.519 139.584 137.623C140.361 137.44 141.869 137.12 142.646 136.938C142.6 137.486 142.417 138.536 142.372 139.038C148.999 140.727 156.174 141.457 162.664 138.855C166.594 137.257 170.662 134.701 172.261 130.547C172.627 129.041 173.038 126.85 171.119 126.256C167.051 126.53 163.578 128.858 160.059 130.73C155.031 133.651 149.913 136.39 144.291 137.988C143.697 137.577 143.149 137.212 142.6 136.801C149.547 135.568 155.26 131.186 161.293 127.854C164.538 126.074 167.965 123.609 171.896 124.293C174.044 124.658 175.049 127.215 174.684 129.178C174.135 133.012 171.302 136.025 168.102 137.988C159.967 143.009 149.456 143.374 140.589 140.042C139.264 139.631 137.344 138.718 136.568 140.453C132.454 146.661 127.473 152.23 122.72 157.936C126.102 155.882 129.484 153.691 133.323 152.458C140.955 149.948 147.536 144.607 155.626 143.557C157.819 143.237 160.744 143.42 162.115 145.428C163.349 148.213 160.973 150.861 158.779 152.276C152.106 156.384 143.971 156.886 136.293 156.658C130.352 156.521 124.091 158.164 119.795 162.455C117.647 165.559 117.464 169.485 116.778 173.091C115.179 184.184 112.665 195.094 108.78 205.593C107.364 208.88 108.095 212.851 105.855 215.773C104.941 210.66 106.952 205.684 108.415 200.891C111.522 191.214 113.579 181.262 114.996 171.22C115.407 168.298 116.138 165.422 117.19 162.684C113.305 153.417 114.493 142.963 110.791 133.651C107.729 125.298 95.0238 122.787 88.9453 129.086C85.3805 133.24 90.225 140.544 95.4351 139.038C97.2175 138.353 96.8062 135.934 95.8007 134.747C94.3383 134.564 92.8758 134.564 91.459 134.519C91.5504 130.912 96.4406 131.323 97.9488 133.743C100.097 136.344 98.4515 140.864 94.9781 141.183C89.5395 141.32 84.6036 135.203 86.2946 129.908C88.1684 125.663 93.0129 124.019 97.3089 123.563C94.9781 119.774 94.5211 113.383 99.1827 111.238C103.022 109.914 105.992 115.483 103.342 118.222C102.291 119.5 100.508 119.5 98.9999 119.455C100.051 118.359 101.194 117.263 102.291 116.214C101.879 115.255 101.422 114.296 100.965 113.383C99.0913 113.429 97.8574 115.027 97.6289 116.716C97.1261 119.226 98.4058 121.509 99.5027 123.7C104.53 124.339 109.877 126.85 111.934 131.78C115.636 141.046 114.904 151.317 118.012 160.766C120.434 157.114 123.862 154.056 126.056 150.359C125.599 140.909 122.948 131.597 118.789 123.152C117.144 119.683 114.996 116.35 114.447 112.47C113.99 110.234 115.27 107.632 117.647 107.13C121.394 107.13 124.822 109.595 126.833 112.699C129.529 116.853 130.306 121.92 130.352 126.758C130.398 132.008 130.306 137.257 129.712 142.461C129.529 142.598 129.072 142.872 128.889 143.009H128.341C128.387 134.747 130.078 126.302 127.793 118.222C126.65 114.022 123.771 109.868 119.338 108.727C117.829 108.042 116.001 109.047 115.727 110.69C115.224 113.612 116.733 116.35 118.012 118.861C122.308 126.987 126.102 135.614 127.107 144.835C127.473 144.789 128.204 144.698 128.57 144.652C128.707 145.383 128.935 146.798 129.027 147.528C131.86 143.42 135.791 139.631 136.339 134.382C137.436 122.65 134.008 110.644 127.29 101.013C117.235 98.7302 107.226 95.5805 98.223 90.5135C95.4351 88.8702 92.4645 86.9986 91.1391 83.9401C90.0422 81.5664 91.7789 78.6449 94.2469 78.0972C97.3089 77.5037 100.417 78.4167 103.296 79.4666C109.877 81.9773 115.544 86.3595 121.074 90.6505C118.835 87.1812 117.235 83.2098 114.539 80.1513C106.815 77.6407 99.3199 74.3996 92.4187 70.1087C88.7625 67.8263 84.695 65.4982 82.6841 61.5268C81.4501 59.29 81.7243 55.8664 84.3294 54.7252C88.0313 53.4927 91.5047 56.0034 94.2469 58.1945C100.554 63.6266 106.815 69.1501 112.711 75.0844C110.288 69.8805 107.455 64.9048 105.261 59.6552C99.4113 56.8707 94.2469 52.8993 88.8996 49.293C84.3294 45.8694 79.5306 42.2176 77.7025 36.7398C76.8798 34.2291 77.0169 30.8055 79.5306 29.2991C82.1813 28.2948 84.6493 30.212 86.5231 31.8097C93.7898 38.2005 98.5429 46.7367 103.25 55.0447C100.097 45.9607 95.2523 37.4245 93.4242 27.9296C92.7387 23.8669 91.8703 19.439 93.607 15.5133ZM111.522 20.1238C106.998 27.9296 105.307 37.1506 106.084 46.1433C110.288 37.3788 118.835 30.9424 120.892 21.1737C120.937 19.1195 121.76 16.1067 119.52 14.9655C116.001 14.509 113.259 17.4305 111.522 20.1238ZM78.9365 32.8596C78.388 36.6941 80.9474 40.0721 83.461 42.674C88.9453 47.8323 95.4808 51.6668 101.833 55.6838C98.5429 49.5213 95.0695 43.4044 90.5906 38.0179C87.9399 35.3703 85.5176 32.1293 81.9071 30.7598C80.4446 30.1207 79.0279 31.4445 78.9365 32.8596ZM123.999 49.3387C119.018 54.6339 116.824 61.892 115.59 68.9218C119.84 62.9876 127.518 60.4769 131.129 54.0405C132.18 51.8037 133.688 48.2888 131.083 46.5541C128.432 45.5955 125.736 47.4671 123.999 49.3387ZM83.7809 57.3728C83.0954 60.6595 85.7919 63.2614 88.1684 65.0417C95.6636 70.5195 103.936 75.1757 112.848 77.9602C108.597 72.5281 103.205 68.1002 98.1316 63.4897C94.9324 60.8877 92.0988 57.6011 88.1684 56.0947C86.6602 55.5012 84.3751 55.5925 83.7809 57.3728ZM150.004 56.7794C148.45 59.7009 149.044 63.1701 149.547 66.2742C151.787 76.3169 157.271 85.1727 160.653 94.8501C163.852 84.3966 163.624 72.6194 158.916 62.6224C157.362 59.3357 154.117 55.5925 150.004 56.7794ZM123.771 70.2456C120.754 75.9517 122.217 82.662 123.405 88.6876C126.741 82.3425 131.038 74.5366 127.107 67.5067C125.827 68.2371 124.365 68.8305 123.771 70.2456ZM143.332 73.8519C141.138 76.2256 141.778 79.8318 142.372 82.7533C143.789 89.3267 148.542 94.348 152.426 99.5975C151.467 95.9913 150.415 92.4307 150.05 88.6876C149.547 84.1227 149.456 79.3297 147.171 75.1757C146.439 73.8519 144.657 72.3911 143.332 73.8519ZM169.702 79.8318C168.148 88.4137 166.594 97.3151 161.795 104.847C163.806 102.884 165.772 100.921 167.645 98.8215C171.896 94.1197 174.455 88.0942 175.78 81.9773C176.146 79.2384 176.42 75.3126 173.404 73.9888C170.753 74.5366 170.25 77.6863 169.702 79.8318ZM94.3383 79.6949C92.6016 80.197 92.0531 82.3425 92.9215 83.8032C94.2012 85.903 96.3492 87.2268 98.3601 88.5506C106.861 93.8915 116.595 96.7673 126.193 99.3236C120.663 91.6091 112.939 85.7204 104.393 81.6577C101.285 80.2426 97.8117 79.0558 94.3383 79.6949ZM134.511 91.9743C133.094 94.7132 134.008 97.9998 134.877 100.784C137.39 107.038 140.772 112.973 144.063 118.861C143.971 113.84 144.063 108.819 144.108 103.843C144.063 99.4149 143.012 94.4393 139.355 91.5634C137.984 90.3766 135.425 90.194 134.511 91.9743ZM166.274 111.786C162.298 116.853 157.317 121.007 152.198 124.841C157.454 123.882 162.801 122.65 167.28 119.637C172.216 116.35 177.014 112.06 179.025 106.308C179.437 104.893 179.894 102.108 177.7 102.154C172.764 103.615 169.565 108.134 166.274 111.786ZM150.553 146.752C143.88 149.354 137.527 152.778 130.809 155.243C136.568 155.38 142.372 155.289 148.13 154.604C153.249 153.782 159.236 151.911 161.384 146.707C158.185 144.059 153.98 145.565 150.553 146.752Z" fill="#EDA12F"/>
</g>
<path d="M70.7495 77.8624V84.3904H59.9335V95.2064H53.4055V84.3904H42.5895V77.8624H53.4055V67.0464H59.9335V77.8624H70.7495ZM86.865 58.7264H93.265V103.526H85.905V66.5984L76.881 69.1584L75.089 62.8864L86.865 58.7264ZM119.445 77.0304C122.688 77.7984 125.312 79.313 127.317 81.5744C129.365 83.793 130.389 86.5877 130.389 89.9584C130.389 94.4384 128.875 97.9584 125.845 100.518C122.816 103.078 119.104 104.358 114.709 104.358C111.296 104.358 108.224 103.569 105.493 101.99C102.805 100.412 100.864 98.1077 99.6695 95.0784L105.941 91.4304C107.264 95.2704 110.187 97.1904 114.709 97.1904C117.269 97.1904 119.296 96.5504 120.789 95.2704C122.283 93.9477 123.029 92.177 123.029 89.9584C123.029 87.7397 122.283 85.9904 120.789 84.7104C119.296 83.4304 117.269 82.7904 114.709 82.7904H113.045L110.101 78.3744L119.765 65.6384H101.013V58.7264H128.533V64.9984L119.445 77.0304ZM165.72 98.0224C162.648 102.246 158.339 104.358 152.792 104.358C147.245 104.358 142.915 102.246 139.8 98.0224C136.728 93.7984 135.192 88.1664 135.192 81.1264C135.192 74.0864 136.728 68.4544 139.8 64.2304C142.915 60.0064 147.245 57.8944 152.792 57.8944C158.339 57.8944 162.648 60.0064 165.72 64.2304C168.835 68.4544 170.392 74.0864 170.392 81.1264C170.392 88.1664 168.835 93.7984 165.72 98.0224ZM152.792 97.1904C156.12 97.1904 158.659 95.8037 160.408 93.0304C162.157 90.257 163.032 86.289 163.032 81.1264C163.032 75.9637 162.157 71.9957 160.408 69.2224C158.659 66.449 156.12 65.0624 152.792 65.0624C149.507 65.0624 146.968 66.449 145.176 69.2224C143.427 71.9957 142.552 75.9637 142.552 81.1264C142.552 86.289 143.427 90.257 145.176 93.0304C146.968 95.8037 149.507 97.1904 152.792 97.1904ZM206.032 98.0224C202.96 102.246 198.651 104.358 193.104 104.358C187.558 104.358 183.227 102.246 180.112 98.0224C177.04 93.7984 175.504 88.1664 175.504 81.1264C175.504 74.0864 177.04 68.4544 180.112 64.2304C183.227 60.0064 187.558 57.8944 193.104 57.8944C198.651 57.8944 202.96 60.0064 206.032 64.2304C209.147 68.4544 210.704 74.0864 210.704 81.1264C210.704 88.1664 209.147 93.7984 206.032 98.0224ZM193.104 97.1904C196.432 97.1904 198.971 95.8037 200.72 93.0304C202.47 90.257 203.344 86.289 203.344 81.1264C203.344 75.9637 202.47 71.9957 200.72 69.2224C198.971 66.449 196.432 65.0624 193.104 65.0624C189.819 65.0624 187.28 66.449 185.488 69.2224C183.739 71.9957 182.864 75.9637 182.864 81.1264C182.864 86.289 183.739 90.257 185.488 93.0304C187.28 95.8037 189.819 97.1904 193.104 97.1904Z" fill="#000B0C"/>
<path d="M10.9453 141.349C12.4493 141.349 13.7053 141.853 14.7133 142.861C15.7213 143.869 16.2253 145.125 16.2253 146.629C16.2253 148.133 15.7213 149.389 14.7133 150.397C13.7053 151.405 12.4493 151.909 10.9453 151.909H6.62534V158.149H4.94534V141.349H10.9453ZM10.9453 150.325C11.9853 150.325 12.8413 149.981 13.5133 149.293C14.2013 148.589 14.5453 147.701 14.5453 146.629C14.5453 145.557 14.2013 144.677 13.5133 143.989C12.8413 143.285 11.9853 142.933 10.9453 142.933H6.62534V150.325H10.9453ZM28.2207 146.149H29.8047V158.149H28.2207V155.797C27.1167 157.557 25.5007 158.437 23.3727 158.437C21.6607 158.437 20.1967 157.829 18.9807 156.613C17.7807 155.397 17.1807 153.909 17.1807 152.149C17.1807 150.389 17.7807 148.901 18.9807 147.685C20.1967 146.469 21.6607 145.861 23.3727 145.861C25.5007 145.861 27.1167 146.741 28.2207 148.501V146.149ZM20.1327 155.533C21.0447 156.445 22.1647 156.901 23.4927 156.901C24.8207 156.901 25.9407 156.445 26.8527 155.533C27.7647 154.605 28.2207 153.477 28.2207 152.149C28.2207 150.821 27.7647 149.701 26.8527 148.789C25.9407 147.861 24.8207 147.397 23.4927 147.397C22.1647 147.397 21.0447 147.861 20.1327 148.789C19.2207 149.701 18.7647 150.821 18.7647 152.149C18.7647 153.477 19.2207 154.605 20.1327 155.533ZM39.5185 147.685H36.0625V154.957C36.0625 155.613 36.1905 156.085 36.4465 156.373C36.7025 156.645 37.0865 156.789 37.5985 156.805C38.1105 156.805 38.7505 156.789 39.5185 156.757V158.149C37.8385 158.405 36.5745 158.285 35.7265 157.789C34.8945 157.293 34.4785 156.349 34.4785 154.957V147.685H31.9585V146.149H34.4785V143.269L36.0625 142.789V146.149H39.5185V147.685ZM43.7665 143.269C43.5425 143.493 43.2705 143.605 42.9505 143.605C42.6305 143.605 42.3585 143.493 42.1345 143.269C41.9105 143.045 41.7985 142.773 41.7985 142.453C41.7985 142.133 41.9105 141.861 42.1345 141.637C42.3585 141.413 42.6305 141.301 42.9505 141.301C43.2705 141.301 43.5425 141.413 43.7665 141.637C43.9905 141.861 44.1025 142.133 44.1025 142.453C44.1025 142.773 43.9905 143.045 43.7665 143.269ZM42.1585 158.149V146.149H43.7425V158.149H42.1585ZM52.6478 145.861C54.4238 145.861 55.8558 146.493 56.9438 147.757C58.0478 149.005 58.5998 150.485 58.5998 152.197C58.5998 152.373 58.5838 152.621 58.5518 152.941H48.0158C48.1758 154.157 48.6878 155.125 49.5518 155.845C50.4318 156.549 51.5118 156.901 52.7918 156.901C53.7038 156.901 54.4878 156.717 55.1438 156.349C55.8158 155.965 56.3198 155.469 56.6558 154.861L58.0478 155.677C57.5198 156.525 56.7998 157.197 55.8878 157.693C54.9758 158.189 53.9358 158.437 52.7678 158.437C50.8798 158.437 49.3438 157.845 48.1598 156.661C46.9758 155.477 46.3838 153.973 46.3838 152.149C46.3838 150.357 46.9678 148.861 48.1358 147.661C49.3038 146.461 50.8078 145.861 52.6478 145.861ZM52.6478 147.397C51.3998 147.397 50.3518 147.773 49.5038 148.525C48.6718 149.261 48.1758 150.221 48.0158 151.405H56.9678C56.8078 150.141 56.3198 149.157 55.5038 148.453C54.6878 147.749 53.7358 147.397 52.6478 147.397ZM66.7354 145.861C68.1914 145.861 69.3354 146.309 70.1674 147.205C71.0154 148.085 71.4394 149.277 71.4394 150.781V158.149H69.8554V150.781C69.8554 149.709 69.5674 148.877 68.9914 148.285C68.4314 147.693 67.6314 147.397 66.5914 147.397C65.4394 147.397 64.5034 147.765 63.7834 148.501C63.0634 149.221 62.7034 150.341 62.7034 151.861V158.149H61.1194V146.149H62.7034V148.021C63.5994 146.581 64.9434 145.861 66.7354 145.861ZM80.8622 147.685H77.4062V154.957C77.4062 155.613 77.5342 156.085 77.7902 156.373C78.0462 156.645 78.4302 156.789 78.9422 156.805C79.4542 156.805 80.0942 156.789 80.8622 156.757V158.149C79.1822 158.405 77.9182 158.285 77.0702 157.789C76.2382 157.293 75.8222 156.349 75.8222 154.957V147.685H73.3022V146.149H75.8222V143.269L77.4062 142.789V146.149H80.8622V147.685ZM84.0237 149.293C84.0237 149.837 84.2637 150.269 84.7437 150.589C85.2237 150.909 85.8077 151.157 86.4957 151.333C87.1837 151.509 87.8717 151.709 88.5597 151.933C89.2477 152.141 89.8317 152.501 90.3117 153.013C90.7917 153.509 91.0317 154.165 91.0317 154.981C91.0317 156.005 90.6237 156.837 89.8077 157.477C89.0077 158.117 87.9677 158.437 86.6877 158.437C85.5357 158.437 84.5517 158.181 83.7357 157.669C82.9357 157.157 82.3757 156.493 82.0557 155.677L83.3997 154.885C83.6237 155.509 84.0237 156.005 84.5997 156.373C85.1917 156.725 85.8877 156.901 86.6877 156.901C87.4717 156.901 88.1277 156.749 88.6557 156.445C89.1837 156.125 89.4477 155.637 89.4477 154.981C89.4477 154.437 89.2077 154.005 88.7277 153.685C88.2477 153.365 87.6637 153.117 86.9757 152.941C86.2877 152.765 85.5997 152.573 84.9117 152.365C84.2237 152.141 83.6397 151.781 83.1597 151.285C82.6797 150.773 82.4397 150.109 82.4397 149.293C82.4397 148.317 82.8237 147.501 83.5917 146.845C84.3757 146.189 85.3597 145.861 86.5437 145.861C87.5197 145.861 88.3757 146.085 89.1117 146.533C89.8477 146.965 90.3917 147.557 90.7437 148.309L89.4237 149.077C88.9597 147.957 87.9997 147.397 86.5437 147.397C85.8557 147.397 85.2637 147.565 84.7677 147.901C84.2717 148.221 84.0237 148.685 84.0237 149.293ZM110.234 158.149L106.298 151.429H101.594V158.149H99.9141V141.349H106.634C108.026 141.349 109.21 141.845 110.186 142.837C111.178 143.813 111.674 144.997 111.674 146.389C111.674 147.525 111.33 148.541 110.642 149.437C109.97 150.317 109.106 150.909 108.05 151.213L112.154 158.149H110.234ZM101.594 142.933V149.845H106.634C107.562 149.845 108.354 149.509 109.01 148.837C109.666 148.149 109.994 147.333 109.994 146.389C109.994 145.429 109.666 144.613 109.01 143.941C108.354 143.269 107.562 142.933 106.634 142.933H101.594ZM119.257 145.861C121.033 145.861 122.465 146.493 123.553 147.757C124.657 149.005 125.209 150.485 125.209 152.197C125.209 152.373 125.193 152.621 125.161 152.941H114.625C114.785 154.157 115.297 155.125 116.161 155.845C117.041 156.549 118.121 156.901 119.401 156.901C120.313 156.901 121.097 156.717 121.753 156.349C122.425 155.965 122.929 155.469 123.265 154.861L124.657 155.677C124.129 156.525 123.409 157.197 122.497 157.693C121.585 158.189 120.545 158.437 119.377 158.437C117.489 158.437 115.953 157.845 114.769 156.661C113.585 155.477 112.993 153.973 112.993 152.149C112.993 150.357 113.577 148.861 114.745 147.661C115.913 146.461 117.417 145.861 119.257 145.861ZM119.257 147.397C118.009 147.397 116.961 147.773 116.113 148.525C115.281 149.261 114.785 150.221 114.625 151.405H123.577C123.417 150.141 122.929 149.157 122.113 148.453C121.297 147.749 120.345 147.397 119.257 147.397ZM133.321 158.437C131.513 158.437 130.009 157.837 128.809 156.637C127.609 155.421 127.009 153.925 127.009 152.149C127.009 150.373 127.609 148.885 128.809 147.685C130.009 146.469 131.513 145.861 133.321 145.861C134.505 145.861 135.569 146.149 136.513 146.725C137.457 147.285 138.145 148.045 138.577 149.005L137.281 149.749C136.961 149.029 136.441 148.461 135.721 148.045C135.017 147.613 134.217 147.397 133.321 147.397C131.993 147.397 130.873 147.861 129.961 148.789C129.049 149.701 128.593 150.821 128.593 152.149C128.593 153.477 129.049 154.605 129.961 155.533C130.873 156.445 131.993 156.901 133.321 156.901C134.217 156.901 135.017 156.693 135.721 156.277C136.425 155.845 136.977 155.269 137.377 154.549L138.697 155.317C138.201 156.277 137.473 157.037 136.513 157.597C135.553 158.157 134.489 158.437 133.321 158.437ZM142.579 143.269C142.355 143.493 142.083 143.605 141.763 143.605C141.443 143.605 141.171 143.493 140.947 143.269C140.723 143.045 140.611 142.773 140.611 142.453C140.611 142.133 140.723 141.861 140.947 141.637C141.171 141.413 141.443 141.301 141.763 141.301C142.083 141.301 142.355 141.413 142.579 141.637C142.803 141.861 142.915 142.133 142.915 142.453C142.915 142.773 142.803 143.045 142.579 143.269ZM140.971 158.149V146.149H142.555V158.149H140.971ZM151.46 145.861C153.236 145.861 154.668 146.493 155.756 147.757C156.86 149.005 157.412 150.485 157.412 152.197C157.412 152.373 157.396 152.621 157.364 152.941H146.828C146.988 154.157 147.5 155.125 148.364 155.845C149.244 156.549 150.324 156.901 151.604 156.901C152.516 156.901 153.3 156.717 153.956 156.349C154.628 155.965 155.132 155.469 155.468 154.861L156.86 155.677C156.332 156.525 155.612 157.197 154.7 157.693C153.788 158.189 152.748 158.437 151.58 158.437C149.692 158.437 148.156 157.845 146.972 156.661C145.788 155.477 145.196 153.973 145.196 152.149C145.196 150.357 145.78 148.861 146.948 147.661C148.116 146.461 149.62 145.861 151.46 145.861ZM151.46 147.397C150.212 147.397 149.164 147.773 148.316 148.525C147.484 149.261 146.988 150.221 146.828 151.405H155.78C155.62 150.141 155.132 149.157 154.316 148.453C153.5 147.749 152.548 147.397 151.46 147.397ZM168.103 146.149H169.783L164.863 158.149H162.943L158.023 146.149H159.703L163.903 156.493L168.103 146.149ZM176.773 145.861C178.549 145.861 179.981 146.493 181.069 147.757C182.173 149.005 182.725 150.485 182.725 152.197C182.725 152.373 182.709 152.621 182.677 152.941H172.141C172.301 154.157 172.813 155.125 173.677 155.845C174.557 156.549 175.637 156.901 176.917 156.901C177.829 156.901 178.613 156.717 179.269 156.349C179.941 155.965 180.445 155.469 180.781 154.861L182.173 155.677C181.645 156.525 180.925 157.197 180.013 157.693C179.101 158.189 178.061 158.437 176.893 158.437C175.005 158.437 173.469 157.845 172.285 156.661C171.101 155.477 170.509 153.973 170.509 152.149C170.509 150.357 171.093 148.861 172.261 147.661C173.429 146.461 174.933 145.861 176.773 145.861ZM176.773 147.397C175.525 147.397 174.477 147.773 173.629 148.525C172.797 149.261 172.301 150.221 172.141 151.405H181.093C180.933 150.141 180.445 149.157 179.629 148.453C178.813 147.749 177.861 147.397 176.773 147.397ZM195.564 141.349H197.148V158.149H195.564V155.797C194.46 157.557 192.844 158.437 190.716 158.437C189.004 158.437 187.54 157.829 186.324 156.613C185.124 155.397 184.524 153.909 184.524 152.149C184.524 150.389 185.124 148.901 186.324 147.685C187.54 146.469 189.004 145.861 190.716 145.861C192.844 145.861 194.46 146.741 195.564 148.501V141.349ZM187.476 155.533C188.388 156.445 189.508 156.901 190.836 156.901C192.164 156.901 193.284 156.445 194.196 155.533C195.108 154.605 195.564 153.477 195.564 152.149C195.564 150.821 195.108 149.701 194.196 148.789C193.284 147.861 192.164 147.397 190.836 147.397C189.508 147.397 188.388 147.861 187.476 148.789C186.564 149.701 186.108 150.821 186.108 152.149C186.108 153.477 186.564 154.605 187.476 155.533ZM217.542 141.349H219.222V158.149H217.542V150.301H208.422V158.149H206.742V141.349H208.422V148.717H217.542V141.349ZM228.359 145.861C230.135 145.861 231.567 146.493 232.655 147.757C233.759 149.005 234.311 150.485 234.311 152.197C234.311 152.373 234.295 152.621 234.263 152.941H223.727C223.887 154.157 224.399 155.125 225.263 155.845C226.143 156.549 227.223 156.901 228.503 156.901C229.415 156.901 230.199 156.717 230.855 156.349C231.527 155.965 232.031 155.469 232.367 154.861L233.759 155.677C233.231 156.525 232.511 157.197 231.599 157.693C230.687 158.189 229.647 158.437 228.479 158.437C226.591 158.437 225.055 157.845 223.871 156.661C222.687 155.477 222.095 153.973 222.095 152.149C222.095 150.357 222.679 148.861 223.847 147.661C225.015 146.461 226.519 145.861 228.359 145.861ZM228.359 147.397C227.111 147.397 226.063 147.773 225.215 148.525C224.383 149.261 223.887 150.221 223.727 151.405H232.679C232.519 150.141 232.031 149.157 231.215 148.453C230.399 147.749 229.447 147.397 228.359 147.397ZM236.83 158.149V140.629H238.414V158.149H236.83ZM248.208 145.861C249.92 145.861 251.376 146.469 252.576 147.685C253.792 148.901 254.4 150.389 254.4 152.149C254.4 153.909 253.792 155.397 252.576 156.613C251.376 157.829 249.92 158.437 248.208 158.437C246.08 158.437 244.464 157.557 243.36 155.797V162.949H241.776V146.149H243.36V148.501C244.464 146.741 246.08 145.861 248.208 145.861ZM244.728 155.533C245.64 156.445 246.76 156.901 248.088 156.901C249.416 156.901 250.536 156.445 251.448 155.533C252.36 154.605 252.816 153.477 252.816 152.149C252.816 150.821 252.36 149.701 251.448 148.789C250.536 147.861 249.416 147.397 248.088 147.397C246.76 147.397 245.64 147.861 244.728 148.789C243.816 149.701 243.36 150.821 243.36 152.149C243.36 153.477 243.816 154.605 244.728 155.533ZM93.2241 181.349V182.933H88.0641V198.149H86.3841V182.933H81.2241V181.349H93.2241ZM101.001 185.861C102.457 185.861 103.601 186.309 104.433 187.205C105.281 188.085 105.705 189.277 105.705 190.781V198.149H104.121V190.781C104.121 189.709 103.833 188.877 103.257 188.285C102.697 187.693 101.897 187.397 100.857 187.397C99.705 187.397 98.769 187.765 98.049 188.501C97.329 189.221 96.969 190.341 96.969 191.861V198.149H95.385V181.349H96.969V188.021C97.865 186.581 99.209 185.861 101.001 185.861ZM110.376 183.269C110.152 183.493 109.88 183.605 109.56 183.605C109.24 183.605 108.968 183.493 108.744 183.269C108.52 183.045 108.408 182.773 108.408 182.453C108.408 182.133 108.52 181.861 108.744 181.637C108.968 181.413 109.24 181.301 109.56 181.301C109.88 181.301 110.152 181.413 110.376 181.637C110.6 181.861 110.712 182.133 110.712 182.453C110.712 182.773 110.6 183.045 110.376 183.269ZM108.768 198.149V186.149H110.352V198.149H108.768ZM114.961 189.293C114.961 189.837 115.201 190.269 115.681 190.589C116.161 190.909 116.745 191.157 117.433 191.333C118.121 191.509 118.809 191.709 119.497 191.933C120.185 192.141 120.769 192.501 121.249 193.013C121.729 193.509 121.969 194.165 121.969 194.981C121.969 196.005 121.561 196.837 120.745 197.477C119.945 198.117 118.905 198.437 117.625 198.437C116.473 198.437 115.489 198.181 114.673 197.669C113.873 197.157 113.313 196.493 112.993 195.677L114.337 194.885C114.561 195.509 114.961 196.005 115.537 196.373C116.129 196.725 116.825 196.901 117.625 196.901C118.409 196.901 119.065 196.749 119.593 196.445C120.121 196.125 120.385 195.637 120.385 194.981C120.385 194.437 120.145 194.005 119.665 193.685C119.185 193.365 118.601 193.117 117.913 192.941C117.225 192.765 116.537 192.573 115.849 192.365C115.161 192.141 114.577 191.781 114.097 191.285C113.617 190.773 113.377 190.109 113.377 189.293C113.377 188.317 113.761 187.501 114.529 186.845C115.313 186.189 116.297 185.861 117.481 185.861C118.457 185.861 119.313 186.085 120.049 186.533C120.785 186.965 121.329 187.557 121.681 188.309L120.361 189.077C119.897 187.957 118.937 187.397 117.481 187.397C116.793 187.397 116.201 187.565 115.705 187.901C115.209 188.221 114.961 188.685 114.961 189.293ZM142.972 181.349L136.9 191.261V198.149H135.22V191.213L129.172 181.349H131.068L136.084 189.581L141.076 181.349H142.972ZM148.038 185.861C149.814 185.861 151.246 186.493 152.334 187.757C153.438 189.005 153.99 190.485 153.99 192.197C153.99 192.373 153.974 192.621 153.942 192.941H143.406C143.566 194.157 144.078 195.125 144.942 195.845C145.822 196.549 146.902 196.901 148.182 196.901C149.094 196.901 149.878 196.717 150.534 196.349C151.206 195.965 151.71 195.469 152.046 194.861L153.438 195.677C152.91 196.525 152.19 197.197 151.278 197.693C150.366 198.189 149.326 198.437 148.158 198.437C146.27 198.437 144.734 197.845 143.55 196.661C142.366 195.477 141.774 193.973 141.774 192.149C141.774 190.357 142.358 188.861 143.526 187.661C144.694 186.461 146.198 185.861 148.038 185.861ZM148.038 187.397C146.79 187.397 145.742 187.773 144.894 188.525C144.062 189.261 143.566 190.221 143.406 191.405H152.358C152.198 190.141 151.71 189.157 150.894 188.453C150.078 187.749 149.126 187.397 148.038 187.397ZM166.83 186.149H168.414V198.149H166.83V195.797C165.726 197.557 164.11 198.437 161.982 198.437C160.27 198.437 158.806 197.829 157.59 196.613C156.39 195.397 155.79 193.909 155.79 192.149C155.79 190.389 156.39 188.901 157.59 187.685C158.806 186.469 160.27 185.861 161.982 185.861C164.11 185.861 165.726 186.741 166.83 188.501V186.149ZM158.742 195.533C159.654 196.445 160.774 196.901 162.102 196.901C163.43 196.901 164.55 196.445 165.462 195.533C166.374 194.605 166.83 193.477 166.83 192.149C166.83 190.821 166.374 189.701 165.462 188.789C164.55 187.861 163.43 187.397 162.102 187.397C160.774 187.397 159.654 187.861 158.742 188.789C157.83 189.701 157.374 190.821 157.374 192.149C157.374 193.477 157.83 194.605 158.742 195.533ZM173.352 188.141C174.088 186.685 175.352 185.957 177.144 185.957V187.493C176.056 187.493 175.152 187.813 174.432 188.453C173.712 189.093 173.352 190.101 173.352 191.477V198.149H171.768V186.149H173.352V188.141Z" fill="#000B0C"/>
<defs>
<clipPath id="clip0_215_3333">
<rect width="103.791" height="203.911" fill="white" transform="translate(77.2454 11.8613)"/>
</clipPath>
</defs>
</svg>
