<svg width="210" height="691" viewBox="0 0 210 691" fill="none" xmlns="http://www.w3.org/2000/svg">
<path opacity="0.15" d="M40.1974 62.8607C58.2721 23.7821 124.373 27.0112 157.032 59.6291C189.692 92.247 175.262 124.219 133.02 132.938C90.7773 141.658 68.8037 166.095 48.2566 145.575C27.7096 125.054 22.1227 101.939 40.1974 62.8607Z" fill="#02979D"/>
<path opacity="0.08" d="M206.208 141.1C226.984 169.839 158.566 201.424 94.1085 201.424C29.6514 201.424 12.3005 178.091 45.3698 152.482C78.4391 126.873 75.9769 103.541 116.528 103.541C157.08 103.541 185.432 112.362 206.208 141.1Z" fill="#02979D"/>
<g opacity="0.7" clip-path="url(#clip0_207_2137)">
<g opacity="0.7">
<path d="M85.5173 15.9964C86.7511 13.3493 90.2699 11.4325 93.1032 12.756C95.2053 14.536 94.3827 17.822 93.6515 20.0583C92.9204 18.2784 92.3263 16.4072 91.7322 14.5816C89.4016 14.9467 87.2538 16.5441 87.2995 19.0999C86.8882 30.5098 92.4634 40.8243 96.5305 51.1388C96.5762 46.9399 96.3934 42.6955 96.4391 38.4967C96.3934 32.5179 98.3127 26.7217 100.963 21.4275C102.791 17.9589 105.579 14.3991 109.646 13.6688C111.519 13.2124 113.484 14.2621 114.124 16.0877C115.267 19.5563 114.124 23.2987 112.753 26.5391C109.737 33.7958 103.797 39.2725 100.278 46.1641C98.8154 50.4085 98.5869 55.155 99.4552 59.5821C99.7751 58.7149 100.323 58.076 101.146 57.6196C101.283 57.8478 101.603 58.2585 101.786 58.4411C102.151 57.939 102.928 56.8893 103.294 56.3417C103.34 56.8437 103.385 57.8934 103.385 58.3954C103.157 60.2667 102.288 62.0466 101.74 63.8722C102.974 66.3823 104.299 68.8925 105.579 71.4027C106.401 63.7809 108.595 55.9766 113.484 49.8609C115.769 47.0769 119.288 44.3841 123.172 45.2513C125.503 45.7533 126.417 48.5373 126.143 50.6824C125.549 54.9268 122.441 58.1672 119.425 60.9056C116.318 63.7353 112.159 65.5152 109.92 69.1663C108.64 71.0376 108.046 73.2739 107.544 75.4646C109.326 79.0701 111.017 82.7212 113.347 86.0073C112.342 80.8957 111.748 75.4189 113.987 70.5355C114.947 68.2992 117.049 65.8803 119.745 66.8387C122.807 69.0294 122.304 73.2282 122.167 76.5143C121.847 81.991 117.734 86.2811 116.866 91.5753C117.78 95.5459 120.933 98.5125 122.807 102.072C129.433 112.341 131.855 125.029 130.119 137.032C132.632 134.248 135.328 131.555 137.293 128.361C136.471 122.291 132.541 117.225 129.936 111.885C127.377 106.499 123.767 101.16 123.995 94.9526C123.949 92.4424 125.549 89.5215 128.336 89.339C131.627 89.0651 134.049 91.8948 135.511 94.4962C138.618 100.384 137.75 107.184 137.796 113.619C137.704 117.681 138.436 121.743 139.258 125.714C142.823 120.465 145.93 114.897 148.398 109.101C145.153 103.122 140.081 98.5125 136.425 92.8076C133.82 88.7 132.038 83.9079 131.946 79.0245C131.946 76.3317 132.998 73.137 135.785 72.1785C138.116 71.5852 139.944 73.6846 140.903 75.5559C143.462 80.85 142.64 86.8744 143.919 92.4424C145.108 97.3259 146.433 102.255 149.175 106.545C149.997 103.624 151.185 100.703 151.231 97.6453C150.134 92.4881 147.301 87.8785 145.336 83.0407C142.503 76.3317 138.938 69.5771 138.938 62.1379C138.938 59.8559 139.121 57.1175 141.178 55.6571C143.143 54.3792 145.565 55.3376 147.347 56.4786C150.911 58.8518 152.693 62.9594 153.973 66.93C156.486 75.5102 157.446 84.8207 154.704 93.4921C153.425 96.9607 153.059 100.658 152.328 104.263C157.172 96.8695 158.406 87.9698 159.914 79.4809C160.508 76.8338 161.513 73.4108 164.621 72.7719C166.951 72.6349 168.871 74.5974 169.282 76.7881C170.607 82.63 167.682 88.198 165.26 93.3552C161.879 99.4253 157.446 105.587 150.957 108.553C148.855 114.258 145.793 119.461 142.548 124.573C147.53 120.876 152.465 116.996 156.304 112.022C159.548 108.005 162.793 103.533 167.682 101.342C169.282 100.566 171.475 100.794 172.572 102.346C173.532 104.719 172.846 107.458 171.704 109.694C168.825 115.308 163.752 119.415 158.406 122.61C152.876 125.85 146.387 126.672 140.218 127.95C137.659 131.601 134.688 134.978 131.49 138.082C132.266 137.899 133.774 137.58 134.551 137.397C134.506 137.945 134.323 138.995 134.277 139.497C140.903 141.185 148.078 141.916 154.567 139.314C158.497 137.717 162.564 135.161 164.164 131.008C164.529 129.502 164.94 127.311 163.021 126.718C158.954 126.991 155.481 129.319 151.962 131.19C146.935 134.111 141.817 136.85 136.196 138.447C135.602 138.036 135.054 137.671 134.506 137.26C141.452 136.028 147.164 131.647 153.196 128.315C156.441 126.535 159.868 124.071 163.798 124.755C165.946 125.12 166.951 127.676 166.586 129.639C166.037 133.472 163.204 136.484 160.005 138.447C151.871 143.467 141.36 143.832 132.495 140.501C131.17 140.09 129.25 139.177 128.473 140.911C124.361 147.118 119.38 152.686 114.627 158.391C118.009 156.338 121.39 154.147 125.229 152.915C132.86 150.404 139.441 145.065 147.53 144.015C149.723 143.695 152.648 143.878 154.019 145.886C155.253 148.67 152.876 151.317 150.683 152.732C144.011 156.84 135.877 157.342 128.199 157.113C122.259 156.977 115.998 158.62 111.702 162.91C109.554 166.013 109.372 169.938 108.686 173.544C107.087 184.634 104.573 195.542 100.689 206.039C99.2724 209.325 100.004 213.296 97.7644 216.217C96.8504 211.105 98.8611 206.13 100.323 201.338C103.431 191.663 105.487 181.713 106.904 171.672C107.315 168.752 108.046 165.876 109.097 163.138C105.213 153.873 106.401 143.422 102.7 134.111C99.638 125.759 86.9339 123.249 80.8561 129.547C77.2916 133.7 82.1356 141.003 87.3452 139.497C89.1274 138.812 88.7161 136.393 87.7108 135.207C86.2485 135.024 84.7861 135.024 83.3695 134.978C83.4609 131.373 88.3506 131.784 89.8586 134.202C92.0064 136.804 90.3613 141.322 86.8882 141.642C81.4502 141.779 76.5148 135.663 78.2056 130.369C80.0792 126.124 84.9232 124.481 89.2188 124.025C86.8882 120.237 86.4312 113.847 91.0924 111.702C94.9311 110.379 97.9015 115.947 95.251 118.685C94.1999 119.963 92.4177 119.963 90.9097 119.917C91.9607 118.822 93.1032 117.727 94.1999 116.677C93.7886 115.719 93.3317 114.76 92.8747 113.847C91.0011 113.893 89.7672 115.49 89.5387 117.179C89.036 119.689 90.3156 121.971 91.4123 124.162C96.4391 124.801 101.786 127.311 103.842 132.24C107.544 141.505 106.813 151.774 109.92 161.221C112.342 157.57 115.769 154.512 117.963 150.815C117.506 141.368 114.855 132.057 110.697 123.614C109.052 120.146 106.904 116.814 106.356 112.935C105.899 110.698 107.178 108.097 109.554 107.595C113.302 107.595 116.729 110.059 118.74 113.163C121.436 117.316 122.213 122.382 122.259 127.22C122.304 132.468 122.213 137.717 121.619 142.92C121.436 143.057 120.979 143.33 120.796 143.467H120.248C120.294 135.207 121.984 126.763 119.699 118.685C118.557 114.486 115.678 110.333 111.245 109.192C109.737 108.508 107.909 109.512 107.635 111.155C107.132 114.076 108.64 116.814 109.92 119.324C114.216 127.448 118.009 136.074 119.014 145.293C119.38 145.247 120.111 145.156 120.476 145.11C120.613 145.841 120.842 147.255 120.933 147.986C123.767 143.878 127.697 140.09 128.245 134.841C129.342 123.112 125.914 111.109 119.197 101.479C109.143 99.1971 99.1353 96.048 90.1328 90.982C87.3452 89.339 84.3748 87.4677 83.0496 84.4099C81.9528 82.0367 83.6894 79.1157 86.1571 78.5681C89.2188 77.9747 92.3263 78.8875 95.2053 79.9372C101.786 82.4474 107.452 86.8288 112.982 91.1189C110.743 87.6503 109.143 83.6797 106.447 80.6218C98.724 78.1117 91.2295 74.8713 84.3291 70.5812C80.6733 68.2992 76.6062 65.9716 74.5955 62.001C73.3616 59.7646 73.6358 56.3417 76.2406 55.2007C79.9421 53.9684 83.4152 56.4786 86.1571 58.6693C92.4634 64.1004 98.724 69.6227 104.619 75.5559C102.197 70.353 99.3638 65.3783 97.1703 60.1297C91.3209 57.3457 86.1571 53.3751 80.8104 49.7696C76.2406 46.3466 71.4423 42.6955 69.6144 37.2188C68.7918 34.7086 68.9289 31.2856 71.4423 29.7795C74.0928 28.7755 76.5605 30.6923 78.4341 32.2897C85.7001 38.6792 90.4527 47.2138 95.1596 55.5202C92.0064 46.4379 87.1624 37.9033 85.3345 28.4104C84.649 24.3484 83.7808 19.9214 85.5173 15.9964ZM103.431 20.606C98.9068 28.4104 97.216 37.6295 97.9929 46.6205C102.197 37.8577 110.743 31.4226 112.799 21.6557C112.845 19.6019 113.667 16.5897 111.428 15.4488C107.909 14.9924 105.167 17.9133 103.431 20.606ZM70.8482 33.3394C70.2998 37.1731 72.8589 40.5504 75.3723 43.1519C80.8561 48.3091 87.3909 52.1428 93.7429 56.1591C90.4527 49.9978 86.9796 43.8821 82.5012 38.4967C79.8507 35.8496 77.4287 32.6092 73.8186 31.24C72.3562 30.601 70.9396 31.9246 70.8482 33.3394ZM115.906 49.8152C110.925 55.1094 108.732 62.3661 107.498 69.3945C111.748 63.4614 119.425 60.9512 123.035 54.5161C124.086 52.2798 125.594 48.7655 122.99 47.0312C120.339 46.0728 117.643 47.944 115.906 49.8152ZM75.6922 57.8478C75.0067 61.1338 77.7029 63.7353 80.0792 65.5152C87.5737 70.9919 95.845 75.6471 104.756 78.4311C100.506 73.0001 95.1139 68.573 90.0414 63.9634C86.8425 61.362 84.0093 58.076 80.0792 56.5699C78.5712 55.9766 76.2863 56.0678 75.6922 57.8478ZM141.909 57.2545C140.355 60.1754 140.949 63.644 141.452 66.7475C143.691 76.7881 149.175 85.6422 152.556 95.3177C155.755 84.8663 155.527 73.0913 150.82 63.0963C149.266 59.8103 146.021 56.0678 141.909 57.2545ZM115.678 70.7181C112.662 76.423 114.124 83.132 115.312 89.1564C118.648 82.8125 122.944 75.0082 119.014 67.9797C117.734 68.7099 116.272 69.3033 115.678 70.7181ZM135.237 74.3236C133.043 76.6968 133.683 80.3024 134.277 83.2233C135.694 89.7953 140.446 94.8157 144.331 100.064C143.371 96.4587 142.32 92.8988 141.954 89.1564C141.452 84.5925 141.36 79.8003 139.075 75.6471C138.344 74.3236 136.562 72.8631 135.237 74.3236ZM161.605 80.3024C160.051 88.8826 158.497 97.7822 153.699 105.313C155.709 103.35 157.675 101.388 159.548 99.2883C163.798 94.5875 166.357 88.5631 167.682 82.4474C168.048 79.709 168.322 75.7841 165.306 74.4605C162.656 75.0082 162.153 78.1573 161.605 80.3024ZM86.2485 80.1654C84.5119 80.6675 83.9636 82.8125 84.8318 84.273C86.1114 86.3724 88.2592 87.6959 90.2699 89.0195C98.7697 94.3593 108.503 97.2346 118.1 99.7904C112.571 92.0773 104.848 86.1898 96.302 82.1279C93.1946 80.7131 89.7215 79.5265 86.2485 80.1654ZM126.417 92.4424C125 95.1808 125.914 98.4668 126.783 101.251C129.296 107.503 132.678 113.437 135.968 119.324C135.877 114.304 135.968 109.283 136.014 104.309C135.968 99.8817 134.917 94.907 131.261 92.0317C129.89 90.8451 127.331 90.6625 126.417 92.4424ZM158.177 112.25C154.201 117.316 149.22 121.469 144.102 125.303C149.357 124.344 154.704 123.112 159.183 120.1C164.118 116.814 168.916 112.524 170.927 106.773C171.338 105.358 171.795 102.574 169.602 102.62C164.666 104.08 161.467 108.599 158.177 112.25ZM142.457 147.21C135.785 149.811 129.433 153.234 122.715 155.699C128.473 155.836 134.277 155.744 140.035 155.06C145.153 154.238 151.14 152.367 153.287 147.164C150.089 144.517 145.884 146.023 142.457 147.21Z" fill="#02979D"/>
</g>
</g>
<path opacity="0.08" d="M79.5493 352.867C54.4625 385.737 69.5146 437.324 121.969 437.324C174.423 437.324 183.089 401.343 183.089 364.28C183.089 327.216 165.004 294.431 132.004 294.431C99.0033 294.431 104.636 319.997 79.5493 352.867Z" fill="#02979D"/>
<path opacity="0.15" d="M117.78 327.384C136.846 302.36 125.407 263.087 85.5415 263.087C45.6763 263.087 39.0898 290.479 39.0898 318.695C39.0898 346.911 52.8349 371.87 77.9151 371.87C102.995 371.87 98.7144 352.407 117.78 327.384Z" fill="#02979D"/>
<g opacity="0.7" clip-path="url(#clip1_207_2137)">
<g opacity="0.7">
<path d="M126.859 245.705C124.931 243.787 122.496 245.711 121.389 247.56C119.144 250.389 119.91 254.11 120.724 257.263C120.325 257.916 119.586 259.32 119.186 259.973C117.434 258.295 116.075 255.348 113.272 255.564C109.297 255.329 107.136 260.662 109.569 263.557C111.321 266.313 114.591 267.231 117.605 267.61C117.318 274.816 115.84 281.93 113.516 288.766C112.273 287.038 111.434 284.709 109.302 283.887C106.972 283.135 105.092 286.032 105.804 288.117C105.907 291.338 109.042 292.987 111.174 294.885C110.021 300.02 108.498 305.036 107.868 310.275C106.233 308.739 105.116 306.18 102.754 305.636C99.8322 305.146 98.1368 308.897 99.3362 311.243C100.548 314.255 103.724 315.798 106.9 315.187C106.689 316.745 106.433 318.359 106.227 319.968C104.546 318.488 102.355 315.98 100.158 318.24C98.3246 321.081 100.176 324.34 102.461 326.224C102.424 325.305 102.356 323.517 102.32 322.597L101.057 322.82C101.38 321.354 101.706 319.938 102.028 318.472C103.015 319.66 104.006 320.898 104.946 322.141C104.995 326.956 104.83 331.689 103.065 336.318C101.39 331.146 100.062 325.838 97.7456 320.932C94.6124 313.386 89.6237 306.838 86.3984 299.404C84.1474 294.645 82.2839 289.644 79.2068 285.375C78.2306 286.442 77.5936 287.836 77.5259 289.278C76.0279 304.239 80.6034 319.902 90.8085 331.079C96.0806 336.831 101.803 343.002 102.783 351.112C99.3401 347.851 95.7907 344.55 91.3088 342.773C80.7168 338.298 70.0376 333.985 59.528 329.296C57.9897 328.777 56.4391 327.592 54.7239 327.909C53.5612 328.635 54.3778 330.198 54.4287 331.27C55.5897 336.44 58.9552 341.041 63.6576 343.515C74.6906 349.384 87.6151 349.791 99.101 354.488C102.517 355.854 104.337 359.321 105.074 362.737C107.245 371.502 112.672 378.88 117.591 386.307C101.432 382.67 88.676 371.121 77.6957 359.351C70.0613 350.902 60.4454 344.283 49.7081 340.437L48.589 341.621C51.029 346.207 54.5858 350.123 57.6532 354.291C63.2695 361.497 67.4711 370.018 74.8848 375.616C82.8533 382.188 92.9703 384.914 102.525 388.206C107.414 389.944 112.7 389.388 117.766 389.212C121.562 388.645 123.333 392.68 125.836 394.697C118.243 392.602 110.373 393.507 102.691 394.24C90.4664 395.253 78.8885 390.667 67.1945 388.092C60.5347 386.625 52.7533 385.779 46.7651 389.734C53.1125 391.692 59.7771 393.209 65.4197 396.926C72.5618 400.757 77.4562 407.929 85.2644 410.67C91.355 413.165 98.2278 412.56 104.335 410.388C112.906 407.673 119.94 401.772 128.375 398.711C130.251 405.453 130.162 412.589 132.588 419.176C135.198 426.618 140.916 432.738 142.283 440.606C142.811 442.914 142.748 445.483 144.566 447.31C146.459 437.028 139.476 428.414 135.5 419.565C132.672 413.067 132.807 405.876 130.829 399.143C129.809 395.446 126.933 392.747 124.358 389.968C130.682 384.698 138.812 381.666 147.003 380.884C155.554 380.119 164.964 378.657 171.172 372.168C174.951 367.655 180.064 360.45 175.473 354.838C167.992 362.525 158.099 367.52 147.77 370.095C141.331 371.479 134.451 372.546 129.218 376.891C125.737 379.684 123.882 383.912 122.318 387.958C119.076 384.114 115.931 380.21 113.413 375.887C115.227 371.766 116.772 366.44 121.792 365.243C130.227 363.259 138.997 362.627 147.177 359.59C155.007 356.638 163.26 354.363 170.188 349.497C177.841 344.153 185.869 338.977 192.186 332.016C194.119 329.678 196.568 326.83 195.799 323.621C192.946 323.843 191.228 326.826 188.544 327.749C181.238 330.805 173.922 333.759 167.06 337.696C160.987 341.301 154.148 343.338 147.682 346.057C138.3 349.414 128.072 351.979 120.803 359.185C116.646 362.965 114.75 368.376 111.916 373.107C110.68 370.918 109.551 368.77 108.366 366.576C110.919 358.898 115.945 351.855 123.234 348.083C131.964 343.814 142.43 346.968 151.086 342.451C156.163 339.71 161.345 336.447 164.13 331.208C160.041 332.469 156.182 334.53 151.882 335.197C145.363 336.28 138.839 335.16 132.373 334.649C124.773 334.092 116.951 337.659 112.574 343.973C109.156 348.504 108.108 354.192 106.512 359.523C106.022 355.468 103.856 351.06 106.259 347.191C112.326 335.998 122.079 327.377 132.141 319.853C142.388 312.107 150.963 301.906 156.427 290.31C151.914 290.894 147.87 293.177 143.854 295.201C130.264 302.344 117.508 312.841 111.553 327.356C109.116 333.023 107.101 338.804 104.34 344.298C104.972 338.546 105.807 332.775 107.429 327.185C110.891 325.266 113.974 321.536 112.143 317.404C110.757 317.946 109.376 318.54 107.99 319.082C108.429 317.758 108.867 316.435 109.25 315.065C114.824 316.994 119.957 308.916 116.163 304.664C114.44 303.29 112.386 304.358 110.523 304.741C111.358 302.2 112.087 299.618 112.715 297.046C116.821 299.73 122.49 296.728 122.116 291.739C120.706 288.797 117.227 290.001 114.829 290.691C115.638 288.409 116.447 286.127 117.154 283.855C119.065 285.057 121.173 286.702 123.562 285.91C125.393 285.735 125.48 283.419 126.284 282.163C125.671 281.658 124.45 280.698 123.842 280.243C124.971 278.084 127.548 274.967 125.086 272.843C123.347 270.754 120.748 273.104 118.928 273.944C119.279 271.706 119.575 269.422 119.819 267.142C123.451 267.001 128.347 266.123 128.581 261.589C126.715 258.178 123.014 260.274 120.587 261.737C121.35 260.587 122.057 259.392 122.769 258.247C126.609 260.29 130.739 257.845 131.638 253.811C130.077 253.601 128.471 253.447 126.819 253.348C127.206 250.953 128.567 248.003 126.859 245.705ZM125.118 251.665C124.375 253.018 124.087 255.916 121.909 255.15C120.704 251.676 122.463 248.586 124.96 246.245C125.486 247.99 126.133 249.927 125.118 251.665ZM128.66 255.429C128.816 257.055 126.192 258.074 124.976 257.165C124.937 255.682 127.49 254.464 128.66 255.429ZM126.502 261.326C126.081 264.442 123.165 265.08 120.473 265.388C122.028 263.394 123.862 261.629 126.502 261.326ZM117.547 265.924C113.678 265.729 110.46 263.216 109.98 259.263C111.213 258.735 112.451 258.258 113.694 257.831C116.902 259.166 116.914 263.061 117.547 265.924ZM124.575 274.482C124.137 277.959 120.891 279.448 117.948 280.344C119.195 277.815 120.721 272.286 124.575 274.482ZM124.974 282.955C122.685 285.327 120.051 284.091 117.611 282.735C120.046 281.887 122.713 281.325 124.974 282.955ZM152.941 293.052C147.673 301.861 141.329 310.158 133.098 316.429C124.341 323.11 115.669 330.142 109.134 339.123C112.815 329.286 116.702 318.917 124.633 311.649C132.643 303.603 142.481 297.486 152.941 293.052ZM111.961 292.913C109.053 291.499 107.302 288.743 108.481 285.503C110.475 287.569 111.592 290.128 111.961 292.913ZM120.738 291.819C120.086 293.061 119.384 294.307 118.514 295.415C116.712 296.972 114.558 295.383 112.613 294.902C114.744 292.494 117.518 290.896 120.738 291.819ZM192.617 327.924C185.769 336.32 176.699 342.416 167.778 348.446C161.472 352.842 153.958 354.79 146.877 357.516C137.8 360.844 128.068 361.619 118.737 363.894C122.656 358.7 128.169 355.149 134.105 352.788C146.025 348.061 158.576 344.556 169.763 338.053C177.023 333.976 184.913 331.121 192.617 327.924ZM84.6931 300.899C87.1187 306.41 90.5229 311.418 93.3918 316.733C97.4262 324.038 100.043 332.095 101.546 340.309C98.4983 336.344 95.2565 332.5 91.9177 328.717C82.7472 318.159 78.1912 303.776 79.4301 289.866C81.4582 293.364 83.1035 297.154 84.6931 300.899ZM115.373 308.226C115.114 311.429 112.305 314.261 109.01 313.089C109.804 310.654 110.143 307.751 112.352 306.155C113.636 304.546 116.24 306.553 115.373 308.226ZM106.873 313.292C102.743 314.661 98.8177 310.113 101.971 306.582C104.145 308.374 106.001 310.607 106.873 313.292ZM157.224 335.763L157.439 336.409C155.012 337.872 152.595 339.435 149.99 340.658C142.418 344.15 133.675 342.369 125.852 344.859C118.602 346.884 113.195 352.63 109.16 358.758C110.288 351.216 113.403 342.971 120.483 339.168C124.996 336.43 130.459 336.113 135.566 336.908C142.798 337.909 150.247 337.967 157.224 335.763ZM110.469 320.845C111.14 321.96 109.929 324.332 108.492 323.803C107.918 322.627 109.027 320.265 110.469 320.845ZM166.731 373.515C160.356 377.713 152.572 378.456 145.164 379.368C137.954 380.21 131.203 383.162 124.786 386.389C126.428 383.156 128.158 379.761 131.239 377.621C137.317 372.99 145.275 373 152.237 370.643C160.742 367.78 168.848 363.418 175.451 357.301C175.65 363.691 171.758 369.703 166.731 373.515ZM89.4508 344.283C94.0296 346 98.0587 348.948 100.852 352.937C88.4798 348.631 74.9375 347.668 63.3473 341.34C59.0809 339.132 56.997 334.511 56.0057 330.043C67.0992 334.932 78.1926 339.82 89.4508 344.283ZM84.9451 369.683C93.219 377.302 102.903 383.556 113.574 387.254C106.651 387.864 100.01 385.524 93.629 383.21C84.5368 379.925 75.6139 375.188 69.5833 367.406C63.9282 359.794 58.4161 352.065 53.0008 344.276C66.231 348.961 75.0673 360.32 84.9451 369.683ZM125.868 396.643C115.122 402.385 104.342 411.003 91.4516 409.875C80.9399 408.929 74.8655 399.614 66.1511 394.908C61.8919 392.238 57.0369 390.856 52.3515 389.098C66.2714 387.565 79.1142 394.645 92.8091 395.594C103.854 396.744 115.06 393.675 125.868 396.643Z" fill="#02979D"/>
</g>
</g>
<path opacity="0.08" d="M201.83 628.046C220.246 670.505 157.611 683.958 100.476 683.958C43.34 683.958 -0.381163 631.829 44.8305 601.141C90.0421 570.452 82.9131 543.126 118.859 543.126C154.804 543.126 183.413 585.586 201.83 628.046Z" fill="#02979D"/>
<path opacity="0.15" d="M33.0511 558.812C33.0511 598.764 30.0701 625.884 75.3331 628.261C120.596 630.638 157.973 580.401 123.77 547.873C89.5669 515.346 96.6514 488.355 68.1754 486.859C39.6993 485.364 33.0511 518.86 33.0511 558.812Z" fill="#02979D"/>
<g opacity="0.6" clip-path="url(#clip2_207_2137)">
<path d="M129.266 621.21C123.401 622.259 119.842 627.486 115.362 630.87C117.685 624.541 120.318 618.332 122.596 611.993C128.908 614.84 137.151 612.851 140.601 606.638C143.235 602.925 141.038 596.611 136.173 596.45C130.793 596.026 127.651 601.11 125.031 604.971C126.618 598.712 128.022 592.412 129.517 586.133C133.824 586.837 138.052 585.171 141.459 582.692C144.002 580.831 146.616 578.457 147.305 575.256C147.749 571.662 143.414 570.039 140.459 570.558C135.96 571.106 133.323 575.25 130.703 578.486C130.631 576.502 132.006 574.082 130.861 572.379L131.279 572.859C131.961 568.648 132.222 564.388 132.427 560.164C140.441 564.171 150.97 557.477 150.952 548.593C150.96 544.803 146.733 542.293 143.301 543.422C137.967 544.881 135.341 550.228 132.708 554.565C132.298 548.422 132.171 542.297 131.614 536.169C138.777 537.196 146.071 531.82 146.604 524.503C147.168 521.225 144.424 517.281 140.817 518.13C135.49 519.35 132.625 524.69 130.862 529.42C130.305 523.916 129.228 518.58 128.151 513.243C132.009 513.604 136.283 513.197 139.265 510.477C141.812 508.183 143.937 504.593 142.826 501.073C141.806 497.574 137.19 496.751 134.204 498.031C129.945 499.833 127.904 504.307 126.31 508.307C124.581 503.925 123.28 499.353 120.964 495.22C122.276 492.45 123.365 489.389 122.592 486.283C121.733 481.669 116.424 477.806 111.803 479.717C107.841 481.06 106.517 486.179 108.513 489.614C110.501 493.913 115.083 495.928 119.442 497.029C120.661 499.038 121.385 501.317 122.278 503.49C119.332 501.467 115.948 499.68 112.267 500.223C109.385 500.423 106.372 502.657 106.759 505.77C107.299 510.934 112.015 514.661 116.645 516.256C119.952 517.546 123.549 516.743 126.763 515.515C127.41 519.169 128.16 522.797 128.762 526.44C125.205 522.692 120.191 519.425 114.804 520.488C111.972 520.891 109.787 523.699 110.421 526.581C111.511 531.441 115.395 535.647 120.204 537.092C123.434 537.884 126.757 537.018 129.873 536.008C130.381 541.309 130.686 546.659 130.99 552.009C129.385 549.383 127.822 546.575 125.199 544.818C122.784 543.206 119.193 542.522 116.835 544.619C114.411 546.797 114.698 550.558 115.998 553.258C117.656 556.904 120.554 560.596 124.79 561.188C126.966 561.545 129.001 560.43 130.963 559.634C130.684 563.554 130.213 567.477 130.116 571.439L130.348 571.684C130.267 571.618 130.232 571.562 130.151 571.495C129.627 574.398 129.239 577.333 128.668 580.225C127.764 575.601 126.175 570.819 122.649 567.558C119.552 564.733 113.944 564.88 111.514 568.544C108.982 572.233 111.037 577.074 113.896 579.893C117.488 583.697 122.848 584.836 127.909 585.186C126.538 593.846 124.072 602.253 121.479 610.584C120.427 605.349 118.56 600.312 116.694 595.274C115.612 592.672 116.775 589.916 116.328 587.269C115.695 583.763 113.331 580.675 110.231 578.905C108.244 577.727 105.411 577.506 103.636 579.161C102.104 581.016 102.337 583.757 103.465 585.745C105.843 590.229 110.33 593.279 115.062 594.849C117.178 600.473 119.441 606.082 120.574 612.007C117.458 605.721 113.843 599.512 108.408 594.948C105.413 592.722 101.856 590.846 98.066 591.029C96.0339 591.089 93.9359 592.477 93.6457 594.57C92.9071 598.192 96.078 601.323 99.3109 602.308C103.688 603.748 108.261 602.258 112.619 601.486C115.906 605.364 117.688 610.142 120.021 614.616C118.024 620.779 115.363 626.694 112.839 632.64C111.854 627.95 110.336 623.28 107.547 619.325C105.415 616.482 101.785 614.301 98.1525 615.048C96.3627 615.308 95.4055 616.959 94.3954 618.215C94.576 621.184 95.2234 624.213 97.0286 626.597C100.379 631.449 106.375 633.167 111.42 635.673C109.418 639.772 107.279 643.839 104.842 647.741C104.531 644.502 104.431 640.975 102.415 638.254C100.757 635.856 97.0402 635.096 94.8056 637.077C91.2835 640.057 91.9043 645.912 95.2085 648.881C97.0873 650.946 99.8462 651.486 102.468 651.994C100.757 654.624 99.056 657.208 97.3447 659.837C96.6698 657.762 95.6015 655.308 93.1095 655.069C89.9117 654.141 87.1755 656.63 85.8046 659.242C86.0512 660.883 86.0522 662.755 87.1234 664.154C88.4053 665.889 90.6623 666.313 92.607 667.049C89.2156 671.548 85.3993 675.804 82.6645 680.79C84.0363 680.05 85.187 679.019 86.0497 677.778C88.3187 674.605 90.7388 671.611 93.1238 668.56C95.9267 672.662 102.512 674.324 106.293 670.635C108.335 668.658 106.617 665.478 104.595 664.244C102.063 662.509 98.8979 663.315 96.1501 663.978C98.4087 660.85 100.53 657.691 102.536 654.41C104.682 657.4 107.491 660.015 111.047 661.267C117.643 663.507 125.357 656.933 123.967 650.036C123.407 646.211 119.303 644.21 115.801 643.979C112.386 643.576 109.47 645.592 106.709 647.355C109.328 642.871 111.821 638.31 113.924 633.562C118.1 631.501 122.236 634.614 126.556 634.217C130.164 633.993 133.806 631.952 135.436 628.632C136.982 625.052 133.238 620.445 129.266 621.21ZM138.733 573.041C140.772 572.119 144.664 571.911 145.171 574.716C144.509 577.588 141.885 579.383 139.724 581.045C137.058 583.022 133.741 583.65 130.505 583.72C132.395 579.692 134.548 575.148 138.733 573.041ZM131.851 599.15C134.258 597.257 138.68 597.46 139.808 600.696C141.211 604.619 138.047 608.546 134.672 610.264C131.244 612.21 127.232 611.477 123.679 610.419C125.909 606.373 128.03 601.966 131.851 599.15ZM141.46 545.782C144.105 543.895 148.953 544.964 149 548.719C148.691 554.024 144.141 558.543 138.965 559.318C136.957 559.48 134.988 558.642 133.128 558.165C135.006 553.558 137.208 548.594 141.46 545.782ZM119.076 495.073C114.232 494.196 108.629 490.361 109.23 484.836C110.333 480.674 116.162 480.193 118.719 483.279C122.164 486.472 120.826 491.444 119.076 495.073ZM109.055 506.443C108.18 504.61 109.99 503.011 111.678 502.776C118.185 501.443 124.537 507.035 125.912 513.159C119.994 517.364 111.017 512.943 109.055 506.443ZM127.273 511.217C128.352 506.954 130.072 502.406 133.911 499.931C136.289 498.367 140.736 498.672 141.356 502.031C141.765 505.677 139.012 509.074 135.815 510.642C133.159 511.949 130.095 511.483 127.273 511.217ZM122.299 535.51C117.36 535.044 113.055 530.788 112.34 525.968C112.153 523.237 115.391 522.111 117.624 522.433C123.601 523.187 128.942 528.161 129.759 534.206C127.317 534.795 124.882 535.77 122.299 535.51ZM139.902 520.223C141.825 519.178 144.279 520.416 144.501 522.579C145.181 527.343 141.807 532.182 137.301 533.592C135.347 534.149 133.255 534.051 131.269 534.121C132.487 528.834 134.611 522.748 139.902 520.223ZM124.445 559.14C120.935 557.9 118.364 554.667 117.39 551.179C116.75 549.159 117.198 546.383 119.503 545.762C121.711 545.359 123.968 546.407 125.464 548.047C128.115 550.722 129.174 554.47 130.341 557.955C128.492 558.681 126.513 559.761 124.445 559.14ZM115.717 578.873C113.294 576.874 111.267 573.575 112.708 570.451C113.843 567.401 118.111 566.609 120.579 568.617C124.912 571.92 126.336 577.624 127.273 582.735C123.296 582.059 118.828 581.846 115.717 578.873ZM104.475 584.49C103.568 582.793 103.896 579.701 106.269 579.624C109.301 579.602 111.777 581.997 113.287 584.409C114.903 586.989 114.747 590.169 114.699 593.086C110.964 590.737 106.484 588.697 104.475 584.49ZM99.7452 600.632C97.1301 599.885 94.4227 597.245 95.5724 594.342C96.9016 592.537 99.4392 592.785 101.391 593.283C105.28 594.131 108.409 596.82 111.007 599.723C107.319 600.505 103.466 601.585 99.7452 600.632ZM99.5945 627.14C97.091 625.076 96.1557 621.836 95.9153 618.709C98.2123 615.206 103.092 616.763 105.402 619.455C108.725 623.388 110.149 628.469 111.387 633.314C107.353 631.424 103.032 629.949 99.5945 627.14ZM93.6273 665.125C91.1425 665.272 87.8955 664.14 87.75 661.226C87.3587 657.92 91.6989 655.56 94.1604 657.808C96.1409 659.848 94.1982 662.856 93.6273 665.125ZM102.633 665.04C104.518 665.618 106.671 667.746 105.243 669.769C101.827 672.918 95.7152 671.078 94.3161 666.723C96.8599 665.485 99.7616 663.946 102.633 665.04ZM94.4692 644.583C93.0319 641.228 96.4194 635.913 100.173 638.601C103.329 641.585 103.09 646.378 103.074 650.406C99.4348 650.143 95.3382 648.527 94.4692 644.583ZM112.801 646.359C115.84 645.476 119.561 646.429 121.349 649.097C123.7 654.535 117.835 661.007 112.166 659.749C108.575 658.441 104.93 655.489 104.967 651.37C107.429 649.441 109.773 647.197 112.801 646.359ZM133.036 629.663C128.988 634.298 122.344 632.479 117.275 631.119C121.288 628.3 124.431 623.84 129.442 622.739C133.186 621.921 135.804 627.036 133.036 629.663Z" fill="#02979D"/>
</g>
<defs>
<clipPath id="clip0_207_2137">
<rect width="103.78" height="203.871" fill="white" transform="translate(69.1573 12.3457)"/>
</clipPath>
<clipPath id="clip1_207_2137">
<rect width="154.592" height="203.191" fill="white" transform="matrix(-0.995476 0.0950171 0.0950337 0.995474 187.561 238.937)"/>
</clipPath>
<clipPath id="clip2_207_2137">
<rect width="59.8452" height="203.884" fill="white" transform="matrix(0.974463 0.224549 -0.224586 0.974454 109.292 477.89)"/>
</clipPath>
</defs>
</svg>
