<svg width="141" height="156" viewBox="0 0 141 156" fill="none" xmlns="http://www.w3.org/2000/svg">
<rect width="141" height="156" fill="url(#paint0_linear_761_10837)"/>
<g filter="url(#filter0_d_761_10837)">
<rect width="93" height="102" transform="matrix(-1 0 0 1 117 27)" fill="url(#paint1_linear_761_10837)"/>
</g>
<path d="M80.3654 75.9168C79.6487 75.9168 79.082 75.3335 79.082 74.6335C79.082 74.0168 78.4654 72.7335 77.432 71.6168C76.4154 70.5335 75.2987 69.9002 74.3654 69.9002C73.6487 69.9002 73.082 69.3168 73.082 68.6168C73.082 67.9168 73.6654 67.3335 74.3654 67.3335C76.032 67.3335 77.782 68.2335 79.3154 69.8502C80.7487 71.3668 81.6654 73.2502 81.6654 74.6168C81.6654 75.3335 81.082 75.9168 80.3654 75.9168Z" fill="#FAFEFE"/>
<path d="M86.3849 75.9168C85.6682 75.9168 85.1016 75.3335 85.1016 74.6335C85.1016 68.7168 80.2849 63.9168 74.3849 63.9168C73.6682 63.9168 73.1016 63.3335 73.1016 62.6335C73.1016 61.9335 73.6682 61.3335 74.3682 61.3335C81.7016 61.3335 87.6682 67.3002 87.6682 74.6335C87.6682 75.3335 87.0849 75.9168 86.3849 75.9168Z" fill="#FAFEFE"/>
<path d="M69.4154 82.9168L66.332 86.0002C65.682 86.6502 64.6487 86.6502 63.982 86.0168C63.7987 85.8335 63.6154 85.6668 63.432 85.4835C61.7154 83.7502 60.1654 81.9335 58.782 80.0335C57.4154 78.1335 56.3154 76.2335 55.5154 74.3502C54.732 72.4502 54.332 70.6335 54.332 68.9002C54.332 67.7668 54.532 66.6835 54.932 65.6835C55.332 64.6668 55.9654 63.7335 56.8487 62.9002C57.9154 61.8502 59.082 61.3335 60.3154 61.3335C60.782 61.3335 61.2487 61.4335 61.6654 61.6335C62.0987 61.8335 62.482 62.1335 62.782 62.5668L66.6487 68.0168C66.9487 68.4335 67.1654 68.8168 67.3154 69.1835C67.4654 69.5335 67.5487 69.8835 67.5487 70.2002C67.5487 70.6002 67.432 71.0002 67.1987 71.3835C66.982 71.7668 66.6654 72.1668 66.2654 72.5668L64.9987 73.8835C64.8154 74.0668 64.732 74.2835 64.732 74.5502C64.732 74.6835 64.7487 74.8002 64.782 74.9335C64.832 75.0668 64.882 75.1668 64.9154 75.2668C65.2154 75.8168 65.732 76.5335 66.4654 77.4002C67.2154 78.2668 68.0154 79.1502 68.882 80.0335C69.0487 80.2002 69.232 80.3668 69.3987 80.5335C70.0654 81.1835 70.082 82.2502 69.4154 82.9168Z" fill="#FAFEFE"/>
<path d="M87.6167 88.5499C87.6167 89.0166 87.5333 89.4999 87.3667 89.9666C87.3167 90.0999 87.2667 90.2332 87.2 90.3666C86.9167 90.9666 86.55 91.5332 86.0667 92.0666C85.25 92.9666 84.35 93.6166 83.3333 94.0332C83.3167 94.0332 83.3 94.0499 83.2833 94.0499C82.3 94.4499 81.2333 94.6666 80.0833 94.6666C78.3833 94.6666 76.5667 94.2666 74.65 93.4499C72.7333 92.6332 70.8167 91.5332 68.9167 90.1499C68.2667 89.6666 67.6167 89.1832 67 88.6666L72.45 83.2166C72.9167 83.5666 73.3333 83.8332 73.6833 84.0166C73.7667 84.0499 73.8667 84.0999 73.9833 84.1499C74.1167 84.1999 74.25 84.2166 74.4 84.2166C74.6833 84.2166 74.9 84.1166 75.0833 83.9332L76.35 82.6832C76.7667 82.2666 77.1667 81.9499 77.55 81.7499C77.9333 81.5166 78.3167 81.3999 78.7333 81.3999C79.05 81.3999 79.3833 81.4666 79.75 81.6166C80.1167 81.7666 80.5 81.9832 80.9167 82.2666L86.4333 86.1832C86.8667 86.4832 87.1667 86.8332 87.35 87.2499C87.5167 87.6666 87.6167 88.0832 87.6167 88.5499Z" fill="#FAFEFE"/>
<defs>
<filter id="filter0_d_761_10837" x="6" y="10" width="133" height="142" filterUnits="userSpaceOnUse" color-interpolation-filters="sRGB">
<feFlood flood-opacity="0" result="BackgroundImageFix"/>
<feColorMatrix in="SourceAlpha" type="matrix" values="0 0 0 0 0 0 0 0 0 0 0 0 0 0 0 0 0 0 127 0" result="hardAlpha"/>
<feOffset dx="2" dy="3"/>
<feGaussianBlur stdDeviation="10"/>
<feComposite in2="hardAlpha" operator="out"/>
<feColorMatrix type="matrix" values="0 0 0 0 0 0 0 0 0 0 0 0 0 0 0 0 0 0 0.25 0"/>
<feBlend mode="normal" in2="BackgroundImageFix" result="effect1_dropShadow_761_10837"/>
<feBlend mode="normal" in="SourceGraphic" in2="effect1_dropShadow_761_10837" result="shape"/>
</filter>
<linearGradient id="paint0_linear_761_10837" x1="8.29952e-07" y1="78" x2="137.262" y2="100.651" gradientUnits="userSpaceOnUse">
<stop stop-color="#02979D"/>
<stop offset="1" stop-color="#00888D"/>
</linearGradient>
<linearGradient id="paint1_linear_761_10837" x1="5.47415e-07" y1="51" x2="90.4923" y2="66.0642" gradientUnits="userSpaceOnUse">
<stop stop-color="#02979D"/>
<stop offset="1" stop-color="#00888D"/>
</linearGradient>
</defs>
</svg>
