<svg width="28" height="20" viewBox="0 0 28 20" fill="none" xmlns="http://www.w3.org/2000/svg">
<path d="M27.9159 0.556496L18.7508 6.86345L17.4054 7.79094L16.4805 8.44019L15.8078 8.90394L15.6396 8.99668L14.3784 9.92418L13.3694 10.5734L12.8649 10.9444L12.5285 11.1299L12.4444 11.2227L11.6877 11.7792L11.0991 12.1502L0.672673 19.3846H0V18.4571L9.16517 12.1502L10.5105 11.2227L11.6877 10.3879L11.8559 10.2952L12.4444 9.92418L12.5285 9.83143L13.3694 9.27493L14.7988 8.25469L15.4715 7.79094L15.6396 7.69819L16.4805 7.04895L16.8168 6.86345L26.6547 0H27.6637H28V0.463747L27.9159 0.556496Z" fill="#F42525"/>
</svg>
