<svg width="193" height="219" viewBox="0 0 193 219" fill="none" xmlns="http://www.w3.org/2000/svg">
<path opacity="0.08" d="M189.309 119.266C206.011 168.471 146.98 205.983 77.137 205.983C7.29407 205.983 -15.7142 123.163 10.8712 79.3171C37.4566 35.471 67.517 84.676 100.118 84.676C132.718 84.676 172.606 70.0606 189.309 119.266Z" fill="#02979D"/>
<path opacity="0.2" d="M120.779 158.785C77.2913 171.905 44.1372 125.535 44.1372 70.6714C44.1372 15.8081 117.335 -2.26539 156.086 18.618C194.838 39.5015 151.35 63.1147 151.35 88.7232C151.35 114.332 164.267 145.665 120.779 158.785Z" fill="#EDA12F"/>
<g opacity="0.5" clip-path="url(#clip0_637_7355)">
<path d="M91.1243 46.2645C92.2927 42.1093 95.0309 37.3709 99.8868 37.1157C105.071 37.2251 107.992 43.1663 107.225 47.7954C106.13 54.7937 101.53 60.9536 102.187 68.2799C106.787 62.9219 111.643 56.6161 118.982 55.2311C124.787 54.4292 128.474 61.0994 127.196 66.1659C126.649 70.1753 123.363 73.2006 119.42 73.8931C120.771 77.0278 121.939 80.7456 120.369 84.0261C119.055 87.0514 115.002 88.4364 112.154 86.6504C106.897 83.6251 105.984 77.1007 102.515 72.581C101.895 76.4446 102.589 80.3447 102.114 84.2083C101.603 90.8057 99.9233 97.4394 101.019 104.037C101.238 105.859 101.603 107.718 100.873 109.504C96.0532 99.5171 100.617 88.4729 100.252 78.0484C98.6089 81.1466 97.0755 85.6298 92.9498 85.8485C89.4814 86.3953 87.1813 83.1513 86.6336 80.126C84.3335 80.5998 81.5952 81.0737 79.9157 79.0325C74.9504 74.0754 77.9077 64.7444 84.5525 62.9948C89.9925 61.2817 95.0674 64.6715 99.2661 67.7332C96.4183 62.4845 90.2116 61.8648 85.2097 60.0424C79.8062 58.1106 77.9807 49.9459 82.6905 46.3739C85.2097 44.2234 88.4956 45.1346 91.1243 46.2645ZM97.185 40.8336C93.9356 43.5308 93.1324 48.0141 94.0817 51.9871C91.0148 52.0235 90.8323 47.7589 87.8019 47.5038C83.9684 46.2645 81.1571 51.2216 83.0191 54.3198C85.1367 58.3657 90.2481 58.6573 94.0817 60.1153C93.0594 58.2199 92.1101 56.3245 91.3434 54.3563C94.0451 56.0694 95.6151 58.9489 97.7692 61.2452C97.8422 58.876 97.8787 56.4703 98.2438 54.1011C99.9963 56.6526 99.5217 59.8966 100.215 62.8125C101.384 58.6209 102.917 54.575 104.341 50.4926C105.4 47.2851 105.582 43.1299 102.735 40.7971C101.201 39.3027 98.6454 39.3391 97.185 40.8336ZM104.67 69.0818C107.882 68.8996 111.57 68.3528 114.345 70.394C111.716 70.6856 109.087 70.6856 106.459 70.8314C109.087 72.4716 112.008 73.7838 114.053 76.2259C110.73 75.2418 107.7 73.5286 104.524 72.1436C106.166 75.0231 107.554 78.0484 109.197 80.9279C110.548 83.1513 112.592 85.5205 115.44 85.5569C118.105 85.2289 119.347 82.2036 119.055 79.8344C118.653 77.0642 117.083 74.6586 116.061 72.1071C118.909 71.5968 122.633 71.5968 124.02 68.4986C126.612 64.5621 124.604 57.0535 118.982 57.8554C112.957 59.4956 108.686 64.5986 104.67 69.0818ZM81.4857 76.6633C83.2017 79.1419 86.159 76.9913 88.3496 76.5175C88.8607 79.1783 89.2623 83.8438 93.0959 83.3335C97.112 81.912 97.9152 77.0642 99.5217 73.638C97.1485 74.5857 94.6293 75.3876 92.0371 75.0595C93.534 74.0754 95.1039 73.2735 96.6739 72.4352C94.0817 72.3258 91.4894 72.18 88.9337 71.7062C91.4529 69.4099 95.1039 69.8108 98.2438 69.9931C94.8119 67.2229 90.7592 64.2705 86.086 64.9995C80.938 65.7649 77.9807 72.6174 81.4857 76.6633Z" fill="#EDA12F"/>
<path d="M51.5258 127.64C51.4963 123.966 53.7035 119.555 57.8988 119.565C64.212 119.443 68.9885 124.572 72.1461 129.506C74.0506 127.584 76.2295 125.493 79.2098 125.684C86.7539 126.113 91.7348 134.769 89.9411 141.817C88.9346 146.208 85.6153 149.461 82.6082 152.484C86.7734 151.922 91.3541 151.788 94.9372 154.308C99.8765 157.243 101.893 164.444 98.7514 169.338C97.4282 171.28 95.0687 171.941 93.1248 173.031C94.5352 176.116 96.8054 179.733 94.9939 183.157C92.3163 187.574 86.0292 187.585 82.0255 185.059C75.9075 181.35 73.3831 174.217 68.6799 169.175C73.84 185.465 79.2224 201.808 81.2548 218.836C77.4199 217.69 78.2943 212.963 77.1675 209.969C73.3993 196.242 71.0212 182.187 66.5815 168.724C66.7044 175.898 66.6262 183.329 64.2039 190.157C62.3836 195.318 55.5078 197.938 50.8545 194.882C45.4265 191.431 43.831 184.237 45.3637 178.302C40.6161 179.948 35.2027 178.333 32.8082 173.746C27.3062 166.211 31.0482 153.657 40.4785 151.643C49.0868 149.034 56.3199 155.688 63.8331 158.647C61.5927 153.603 60.447 148.09 57.5468 143.359C54.6231 138.528 51.0331 133.539 51.5258 127.64ZM54.2221 125.742C53.1741 131.509 56.7759 136.548 59.7401 141.106C63.193 146.18 63.9834 152.408 66.4408 157.927C67.865 151.755 64.5504 145.492 66.2202 139.473C67.6961 143.278 68.5004 147.347 69.293 151.366C71.5094 147.216 73.8276 142.831 77.65 139.932C75.5502 145.684 71.9243 150.745 69.8245 156.498C75.1701 152.503 81.7506 149.742 85.545 144.063C89.2114 138.729 85.7617 130.342 79.4522 129.149C74.6335 128.498 75.015 134.77 71.6262 136.621C69.7579 130.49 66.0983 124.097 59.4986 122.342C57.0839 121.439 54.4633 123.214 54.2221 125.742ZM36.3064 156.833C30.9505 161.671 31.6215 171.607 37.7865 175.516C41.5354 177.628 45.495 174.644 49.1806 173.827C48.6 177.802 46.2751 181.715 47.4623 185.851C48.0025 189.246 50.1146 192.639 53.5928 193.606C56.9456 194.708 60.6165 192.054 61.4612 188.753C63.2616 182.177 63.0368 175.238 63.1191 168.489C60.4831 171.529 58.1045 174.772 55.3339 177.686C55.0127 172.557 59.3275 168.858 62.3044 165.264C57.8219 166.479 53.8793 169.091 49.3523 169.896C52.3733 164.715 58.1753 162.873 63.775 162.394C59.8 159.546 55.2802 157.72 51.0139 155.414C46.5019 152.956 40.2266 153.017 36.3064 156.833ZM69.7576 161.981C75.5074 160.362 81.7301 158.527 87.6322 160.657C82.4495 162.458 76.8902 162.665 71.5898 163.968C76.499 166.332 81.4265 169.218 84.5253 173.903C79.3653 171.807 75.2163 168.002 70.1699 165.722C74.8901 170.392 77.7723 176.599 82.58 181.196C85.123 183.751 90.2881 185.424 92.6104 181.722C93.2955 177.302 89.5881 173.812 88.5734 169.741C90.7174 169.498 93.0994 170.04 95.14 169.138C97.9213 167.378 99.0598 163.324 97.4247 160.398C94.9207 156.677 90.3042 154.664 85.9077 154.913C79.9722 155.524 74.6866 158.663 69.7576 161.981Z" fill="#EDA12F"/>
<path d="M142.258 111.754C143.62 109.364 146.708 107.337 149.421 108.919C153.555 111.211 154.719 116.327 154.908 120.708C156.864 120.179 159.061 119.644 160.92 120.887C165.643 123.998 165.613 131.475 161.802 135.365C159.499 137.83 156.126 138.69 153.042 139.518C155.95 140.719 158.967 142.352 160.34 145.33C162.434 149.087 161.032 154.507 157.157 156.496C155.57 157.256 153.794 156.799 152.125 156.774C151.879 159.301 151.988 162.497 149.528 164.033C146.133 165.888 142.058 163.533 140.415 160.394C137.848 155.694 138.896 150.126 137.746 145.095C134.962 157.582 132.301 170.187 127.214 181.977C125.162 179.794 127.506 177.061 127.902 174.699C130.624 164.395 134.369 154.4 136.557 144.014C133.939 148.706 131.094 153.489 126.958 157C123.838 159.659 118.401 158.773 116.537 155.046C114.32 150.772 115.992 145.514 119.216 142.247C115.523 141.529 112.625 138.45 112.799 134.58C112.07 127.634 119.214 120.91 126.078 123.148C132.633 124.692 134.815 131.718 138.567 136.456C139.013 132.348 140.344 128.348 140.245 124.195C140.169 119.968 139.72 115.389 142.258 111.754ZM144.717 111.538C141.87 114.879 142.307 119.495 142.513 123.56C142.841 128.143 141.01 132.473 140.526 136.97C143.769 133.508 143.978 128.207 147.323 124.937C146.848 127.955 145.839 130.892 144.84 133.792C147.836 131.937 150.986 129.969 154.552 129.527C151.029 132.463 146.778 134.379 143.255 137.315C148.218 136.736 153.518 137.42 158.111 135.168C162.49 133.091 163.41 126.364 159.773 123.222C156.898 120.99 154.787 125.195 151.896 125.12C152.992 120.448 153.026 114.934 149.413 111.318C148.188 109.827 145.824 109.992 144.717 111.538ZM121.425 124.942C116.137 126.063 112.835 132.749 115.357 137.596C116.991 140.372 120.677 139.927 123.37 140.782C121.5 143.138 118.523 144.799 117.736 147.923C116.809 150.325 116.901 153.315 118.79 155.248C120.547 157.221 123.921 156.882 125.71 155.061C129.348 151.479 131.812 146.901 134.403 142.562C131.553 143.54 128.794 144.746 125.904 145.593C127.625 142.151 131.81 141.376 135.089 140.167C131.729 139.27 128.194 139.481 124.96 138.301C128.864 136.081 133.314 137.068 137.12 138.861C135.617 135.523 133.377 132.643 131.482 129.548C129.484 126.261 125.398 123.943 121.425 124.942ZM141.149 140.841C145.481 141.952 150.201 143.101 153.222 146.698C149.189 145.917 145.511 143.963 141.589 142.816C143.879 146.191 145.984 149.911 146.229 154.108C143.676 150.813 142.42 146.79 140.01 143.418C141.31 148.215 140.842 153.318 142.227 158.1C142.913 160.71 145.628 163.734 148.524 162.209C150.63 159.604 149.541 155.951 150.415 152.934C151.895 153.582 153.234 154.828 154.894 155.01C157.357 154.915 159.619 152.718 159.66 150.208C159.438 146.858 157.206 143.821 154.265 142.33C150.192 140.496 145.589 140.544 141.149 140.841Z" fill="#EDA12F"/>
</g>
<defs>
<clipPath id="clip0_637_7355">
<rect width="164.344" height="218.185" fill="white" transform="translate(21.2894 0.411621)"/>
</clipPath>
</defs>
</svg>
