<svg width="30" height="28" viewBox="0 0 30 28" fill="none" xmlns="http://www.w3.org/2000/svg">
<path d="M9.12638 19.8333V11.6667M25.8929 9.33333V18.6667C25.8929 20.2138 25.262 21.6975 24.1391 22.7915C23.0161 23.8854 21.493 24.5 19.9049 24.5H10.324C8.73586 24.5 7.21277 23.8854 6.0898 22.7915C4.96682 21.6975 4.33594 20.2138 4.33594 18.6667V9.33333C4.33594 7.78624 4.96682 6.30251 6.0898 5.20854C7.21277 4.11458 8.73586 3.5 10.324 3.5H19.9049C21.493 3.5 23.0161 4.11458 24.1391 5.20854C25.262 6.30251 25.8929 7.78624 25.8929 9.33333Z" stroke="#02979D" stroke-width="1.67824" stroke-linecap="round" stroke-linejoin="round"/>
<path d="M13.9174 19.8334V16.0417M13.9174 11.6667V16.0417M13.9174 16.0417C13.9174 11.6667 21.1031 11.6667 21.1031 16.0417V19.8334M9.12695 8.17836L9.13893 8.16553" stroke="#02979D" stroke-width="1.67824" stroke-linecap="round" stroke-linejoin="round"/>
</svg>
