<svg width="30" height="28" viewBox="0 0 30 28" fill="none" xmlns="http://www.w3.org/2000/svg">
<path d="M11.2622 25.6666H18.4478C24.4359 25.6666 26.8311 23.3333 26.8311 17.4999V10.4999C26.8311 4.66659 24.4359 2.33325 18.4478 2.33325H11.2622C5.27413 2.33325 2.87891 4.66659 2.87891 10.4999V17.4999C2.87891 23.3333 5.27413 25.6666 11.2622 25.6666Z" stroke="#02979D" stroke-width="1.67824" stroke-linecap="round" stroke-linejoin="round"/>
<path d="M14.8557 18.0834C17.1707 18.0834 19.0473 16.2552 19.0473 14.0001C19.0473 11.7449 17.1707 9.91675 14.8557 9.91675C12.5407 9.91675 10.6641 11.7449 10.6641 14.0001C10.6641 16.2552 12.5407 18.0834 14.8557 18.0834Z" stroke="#02979D" stroke-width="1.67824" stroke-linecap="round" stroke-linejoin="round"/>
<path d="M21.6056 8.16659H21.6194" stroke="#02979D" stroke-width="2.23766" stroke-linecap="round" stroke-linejoin="round"/>
</svg>
