<svg width="295" height="35" viewBox="0 0 295 35" fill="none" xmlns="http://www.w3.org/2000/svg">
<path d="M1.56 34.68C1.10667 34.76 0.8 34.5333 0.64 34C0.506667 33.4933 0.64 33.16 1.04 33C2.42667 32.4133 3.42667 31.5867 4.04 30.52C4.68 29.4533 5.08 28.0933 5.24 26.44C5.42667 24.7867 5.52 22.8133 5.52 20.52V6.44C5.52 5.93333 5.46667 5.45333 5.36 5C5.28 4.52 5.06667 4.13333 4.72 3.84C4.37333 3.52 3.77333 3.36 2.92 3.36C2.65333 3.36 2.41333 3.33333 2.2 3.28C2.01333 3.22667 1.90667 2.97333 1.88 2.52C1.88 2.30667 1.93333 2.10667 2.04 1.92C2.17333 1.73333 2.36 1.64 2.6 1.64C3.45333 1.66667 4.25333 1.69333 5 1.72C5.77333 1.74667 6.56 1.76 7.36 1.76C8.98667 1.76 10.6533 1.72 12.36 1.64C12.6 1.64 12.7733 1.73333 12.88 1.92C13.0133 2.10667 13.08 2.30667 13.08 2.52C13.0533 2.97333 12.9467 3.22667 12.76 3.28C12.5733 3.33333 12.3333 3.36 12.04 3.36C11.2133 3.36 10.6133 3.52 10.24 3.84C9.89333 4.13333 9.68 4.52 9.6 5C9.52 5.45333 9.46667 5.93333 9.44 6.44V21.88C9.44 23.9867 9.2 25.92 8.72 27.68C8.24 29.44 7.42667 30.92 6.28 32.12C5.13333 33.3467 3.56 34.2 1.56 34.68ZM28.6634 27.8C26.7168 27.8 24.9568 27.44 23.3834 26.72C21.8101 26 20.4634 25.0267 19.3434 23.8C18.2234 22.5733 17.3701 21.1867 16.7834 19.64C16.1968 18.0667 15.9034 16.4267 15.9034 14.72C15.9034 12.5067 16.2768 10.5467 17.0234 8.84C17.7968 7.13333 18.8101 5.69333 20.0634 4.52C21.3168 3.34667 22.6901 2.46667 24.1834 1.88C25.7034 1.26667 27.1968 0.959999 28.6634 0.959999C30.6634 0.959999 32.4501 1.32 34.0234 2.04C35.6234 2.76 36.9834 3.73333 38.1034 4.96C39.2234 6.18667 40.0768 7.58667 40.6634 9.16C41.2501 10.7067 41.5434 12.32 41.5434 14C41.5434 16.2133 41.1568 18.1733 40.3834 19.88C39.6101 21.5867 38.5834 23.0267 37.3034 24.2C36.0234 25.3733 34.6234 26.2667 33.1034 26.88C31.6101 27.4933 30.1301 27.8 28.6634 27.8ZM28.6234 26.04C30.5168 26.04 32.0634 25.48 33.2634 24.36C34.4634 23.24 35.3434 21.7733 35.9034 19.96C36.4901 18.12 36.7834 16.1333 36.7834 14C36.7834 12 36.4768 10.1467 35.8634 8.44C35.2768 6.70667 34.3834 5.32 33.1834 4.28C31.9834 3.21333 30.4634 2.68 28.6234 2.68C26.7568 2.68 25.2234 3.24 24.0234 4.36C22.8501 5.45333 21.9834 6.90667 21.4234 8.72C20.8634 10.5067 20.5834 12.4667 20.5834 14.6C20.5834 16.6 20.8634 18.48 21.4234 20.24C22.0101 21.9733 22.9034 23.3733 24.1034 24.44C25.3034 25.5067 26.8101 26.04 28.6234 26.04ZM45.3688 27.12C45.1021 27.12 44.9154 27.0267 44.8088 26.84C44.7021 26.6533 44.6488 26.4533 44.6488 26.24C44.6754 25.7867 44.7821 25.5333 44.9688 25.48C45.1554 25.4267 45.3821 25.4 45.6488 25.4C46.5021 25.4 47.1021 25.2533 47.4488 24.96C47.7954 24.64 48.0088 24.2533 48.0888 23.8C48.1954 23.32 48.2621 22.8267 48.2888 22.32V6.44C48.2621 5.93333 48.1954 5.45333 48.0888 5C48.0088 4.52 47.7954 4.13333 47.4488 3.84C47.1021 3.52 46.5021 3.36 45.6488 3.36C45.3821 3.36 45.1554 3.33333 44.9688 3.28C44.7821 3.22667 44.6754 2.97333 44.6488 2.52C44.6488 2.30667 44.7021 2.10667 44.8088 1.92C44.9154 1.73333 45.1021 1.64 45.3688 1.64C46.2221 1.66667 47.0221 1.69333 47.7688 1.72C48.5421 1.74667 49.3288 1.76 50.1288 1.76C51.7554 1.76 53.4221 1.72 55.1288 1.64C55.3688 1.64 55.5421 1.73333 55.6488 1.92C55.7821 2.10667 55.8488 2.30667 55.8488 2.52C55.8221 2.97333 55.7154 3.22667 55.5288 3.28C55.3421 3.33333 55.1021 3.36 54.8088 3.36C53.9821 3.36 53.3821 3.52 53.0088 3.84C52.6621 4.13333 52.4488 4.52 52.3688 5C52.2888 5.45333 52.2354 5.93333 52.2088 6.44V22.32C52.2354 22.8267 52.2888 23.32 52.3688 23.8C52.4488 24.2533 52.6621 24.64 53.0088 24.96C53.3821 25.2533 53.9821 25.4 54.8088 25.4C55.1021 25.4 55.3421 25.4267 55.5288 25.48C55.7154 25.5333 55.8221 25.7867 55.8488 26.24C55.8488 26.4533 55.7821 26.6533 55.6488 26.84C55.5421 27.0267 55.3688 27.12 55.1288 27.12C53.4221 27.04 51.7688 27 50.1688 27C49.3688 27 48.5821 27 47.8088 27C47.0354 27.0267 46.2221 27.0667 45.3688 27.12ZM60.0191 27.12C59.7524 27.12 59.5657 27.0267 59.4591 26.84C59.3524 26.6533 59.2991 26.4533 59.2991 26.24C59.3257 25.7867 59.4324 25.5333 59.6191 25.48C59.8057 25.4267 60.0324 25.4 60.2991 25.4C61.1524 25.4 61.7391 25.2533 62.0591 24.96C62.4057 24.64 62.6191 24.2533 62.6991 23.8C62.7791 23.32 62.8191 22.8267 62.8191 22.32L62.8991 6.44C62.8991 5.18667 62.6857 4.38667 62.2591 4.04C61.8324 3.69333 61.1524 3.42667 60.2191 3.24C59.8191 3.16 59.5524 3.09333 59.4191 3.04C59.2857 2.96 59.2191 2.72 59.2191 2.32C59.2191 1.86667 59.3791 1.62667 59.6991 1.6C60.0191 1.54667 60.3924 1.52 60.8191 1.52C62.3124 1.52 63.5124 1.64 64.4191 1.88C65.3524 2.12 66.1657 2.54667 66.8591 3.16C67.5791 3.77333 68.3524 4.64 69.1791 5.76L80.1391 20.16H80.2591L80.1791 6.44C80.1791 5.93333 80.1391 5.45333 80.0591 5C79.9791 4.52 79.7657 4.13333 79.4191 3.84C79.0991 3.52 78.5124 3.36 77.6591 3.36C77.3924 3.36 77.1657 3.33333 76.9791 3.28C76.7924 3.22667 76.6724 2.97333 76.6191 2.52C76.6191 2.30667 76.6724 2.10667 76.7791 1.92C76.9124 1.73333 77.0991 1.64 77.3391 1.64C77.9257 1.66667 78.3924 1.69333 78.7391 1.72C79.1124 1.72 79.4724 1.73333 79.8191 1.76C80.1924 1.76 80.6457 1.76 81.1791 1.76C81.7124 1.76 82.1524 1.76 82.4991 1.76C82.8457 1.73333 83.1924 1.72 83.5391 1.72C83.9124 1.69333 84.3791 1.66667 84.9391 1.64C85.2057 1.64 85.3924 1.73333 85.4991 1.92C85.6057 2.10667 85.6591 2.30667 85.6591 2.52C85.6324 2.97333 85.5257 3.22667 85.3391 3.28C85.1791 3.33333 84.9524 3.36 84.6591 3.36C83.8324 3.36 83.2457 3.52 82.8991 3.84C82.5524 4.13333 82.3391 4.52 82.2591 5C82.2057 5.45333 82.1657 5.93333 82.1391 6.44L82.0591 26.6C82.0324 26.8133 81.8991 26.9467 81.6591 27C81.4457 27.08 81.2457 27.12 81.0591 27.12C80.5524 27.12 80.1657 26.9467 79.8991 26.6L64.8191 6.44H64.6991L64.7791 22.32C64.8057 22.8267 64.8457 23.32 64.8991 23.8C64.9791 24.2533 65.1924 24.64 65.5391 24.96C65.8857 25.2533 66.4724 25.4 67.2991 25.4C67.5924 25.4 67.8324 25.4267 68.0191 25.48C68.2057 25.5333 68.3124 25.7867 68.3391 26.24C68.3391 26.4533 68.2724 26.6533 68.1391 26.84C68.0324 27.0267 67.8591 27.12 67.6191 27.12C67.0591 27.0933 66.5791 27.0667 66.1791 27.04C65.8057 27.04 65.4324 27.0267 65.0591 27C64.7124 27 64.2724 27 63.7391 27C63.2057 27 62.7657 27 62.4191 27C62.0991 27.0267 61.7657 27.04 61.4191 27.04C61.0724 27.0667 60.6057 27.0933 60.0191 27.12ZM110.578 27.8C108.631 27.8 106.871 27.44 105.298 26.72C103.724 26 102.378 25.0267 101.258 23.8C100.138 22.5733 99.2842 21.1867 98.6975 19.64C98.1108 18.0667 97.8175 16.4267 97.8175 14.72C97.8175 12.5067 98.1908 10.5467 98.9375 8.84C99.7108 7.13333 100.724 5.69333 101.978 4.52C103.231 3.34667 104.604 2.46667 106.098 1.88C107.618 1.26667 109.111 0.959999 110.578 0.959999C112.578 0.959999 114.364 1.32 115.938 2.04C117.538 2.76 118.898 3.73333 120.018 4.96C121.138 6.18667 121.991 7.58667 122.578 9.16C123.164 10.7067 123.458 12.32 123.458 14C123.458 16.2133 123.071 18.1733 122.298 19.88C121.524 21.5867 120.498 23.0267 119.218 24.2C117.938 25.3733 116.538 26.2667 115.018 26.88C113.524 27.4933 112.044 27.8 110.578 27.8ZM110.538 26.04C112.431 26.04 113.978 25.48 115.178 24.36C116.378 23.24 117.258 21.7733 117.818 19.96C118.404 18.12 118.698 16.1333 118.698 14C118.698 12 118.391 10.1467 117.778 8.44C117.191 6.70667 116.298 5.32 115.098 4.28C113.898 3.21333 112.378 2.68 110.538 2.68C108.671 2.68 107.138 3.24 105.938 4.36C104.764 5.45333 103.898 6.90667 103.338 8.72C102.778 10.5067 102.498 12.4667 102.498 14.6C102.498 16.6 102.778 18.48 103.338 20.24C103.924 21.9733 104.818 23.3733 106.018 24.44C107.218 25.5067 108.724 26.04 110.538 26.04ZM139.321 27.8C137.188 27.8 135.401 27.4267 133.961 26.68C132.521 25.9333 131.441 24.9733 130.721 23.8C130.001 22.6267 129.641 21.3867 129.641 20.08V6.44C129.641 5.93333 129.588 5.45333 129.481 5C129.401 4.52 129.188 4.13333 128.841 3.84C128.494 3.52 127.894 3.36 127.041 3.36C126.774 3.36 126.548 3.33333 126.361 3.28C126.174 3.22667 126.068 2.97333 126.041 2.52C126.041 2.30667 126.094 2.10667 126.201 1.92C126.308 1.73333 126.494 1.64 126.761 1.64C127.614 1.66667 128.414 1.69333 129.161 1.72C129.908 1.74667 130.681 1.76 131.481 1.76C133.108 1.76 134.774 1.72 136.481 1.64C136.748 1.64 136.934 1.73333 137.041 1.92C137.148 2.10667 137.201 2.30667 137.201 2.52C137.174 2.92 137.094 3.16 136.961 3.24C136.828 3.32 136.641 3.36 136.401 3.36C135.494 3.36 134.841 3.50667 134.441 3.8C134.068 4.06666 133.841 4.44 133.761 4.92C133.681 5.37333 133.628 5.88 133.601 6.44V18.92C133.601 19.6133 133.668 20.3467 133.801 21.12C133.961 21.8667 134.254 22.5733 134.681 23.24C135.108 23.88 135.734 24.4133 136.561 24.84C137.414 25.24 138.548 25.44 139.961 25.44C141.774 25.44 143.161 25.1467 144.121 24.56C145.108 23.9467 145.788 23.1867 146.161 22.28C146.534 21.3733 146.721 20.44 146.721 19.48V8.96C146.721 7.2 146.654 5.93333 146.521 5.16C146.388 4.36 146.094 3.86667 145.641 3.68C145.214 3.46667 144.548 3.36 143.641 3.36C143.374 3.36 143.148 3.33333 142.961 3.28C142.774 3.22667 142.668 2.97333 142.641 2.52C142.641 2.30667 142.694 2.10667 142.801 1.92C142.908 1.73333 143.094 1.64 143.361 1.64C144.214 1.66667 144.974 1.69333 145.641 1.72C146.308 1.74667 147.041 1.76 147.841 1.76C148.641 1.76 149.374 1.74667 150.041 1.72C150.708 1.69333 151.468 1.66667 152.321 1.64C152.588 1.64 152.774 1.73333 152.881 1.92C152.988 2.10667 153.041 2.30667 153.041 2.52C153.014 2.92 152.934 3.16 152.801 3.24C152.668 3.32 152.481 3.36 152.241 3.36C151.521 3.36 150.934 3.4 150.481 3.48C150.054 3.56 149.721 3.77333 149.481 4.12C149.268 4.44 149.121 4.97333 149.041 5.72C148.988 6.44 148.961 7.44 148.961 8.72V19.88C148.961 21.2933 148.654 22.5067 148.041 23.52C147.454 24.5333 146.668 25.36 145.681 26C144.721 26.6133 143.681 27.0667 142.561 27.36C141.441 27.6533 140.361 27.8 139.321 27.8ZM155.331 27.12C155.064 27.12 154.877 27.0267 154.771 26.84C154.664 26.6533 154.611 26.4533 154.611 26.24C154.637 25.7867 154.744 25.5333 154.931 25.48C155.117 25.4267 155.344 25.4 155.611 25.4C156.464 25.4 157.064 25.2533 157.411 24.96C157.757 24.64 157.971 24.2533 158.051 23.8C158.157 23.32 158.211 22.8267 158.211 22.32V6.48C158.211 5.97333 158.157 5.48 158.051 5C157.971 4.52 157.757 4.13333 157.411 3.84C157.064 3.52 156.464 3.36 155.611 3.36C155.344 3.36 155.117 3.33333 154.931 3.28C154.744 3.22667 154.637 2.97333 154.611 2.52C154.611 2.30667 154.664 2.10667 154.771 1.92C154.877 1.73333 155.064 1.64 155.331 1.64C156.184 1.66667 156.984 1.69333 157.731 1.72C158.504 1.74667 159.291 1.76 160.091 1.76H166.971C169.131 1.78666 170.877 2.12 172.211 2.76C173.571 3.4 174.557 4.21333 175.171 5.2C175.784 6.18667 176.091 7.21333 176.091 8.28C176.091 9.69333 175.517 11.0267 174.371 12.28C173.251 13.5333 171.664 14.4267 169.611 14.96C170.624 16.56 171.651 18.1733 172.691 19.8C173.731 21.4 174.931 22.9067 176.291 24.32C176.664 24.6133 177.024 24.8533 177.371 25.04C177.744 25.2267 178.184 25.3467 178.691 25.4C178.904 25.4267 179.117 25.4667 179.331 25.52C179.544 25.5467 179.664 25.7867 179.691 26.24C179.691 26.4533 179.637 26.6533 179.531 26.84C179.424 27.0267 179.237 27.12 178.971 27.12C178.411 27.0933 177.957 27.0667 177.611 27.04C177.291 27.04 176.971 27.0267 176.651 27C176.331 27 175.904 27 175.371 27C174.277 26.7867 173.344 26.4 172.571 25.84C171.824 25.28 171.091 24.5067 170.371 23.52C169.624 22.5067 168.931 21.48 168.291 20.44C167.651 19.4 167.024 18.3867 166.411 17.4C166.064 16.84 165.704 16.44 165.331 16.2C164.984 15.9333 164.317 15.8 163.331 15.8H162.171V22.32C162.197 22.8267 162.251 23.32 162.331 23.8C162.411 24.2533 162.624 24.64 162.971 24.96C163.344 25.2533 163.944 25.4 164.771 25.4C165.037 25.4 165.264 25.4267 165.451 25.48C165.637 25.5333 165.744 25.7867 165.771 26.24C165.771 26.4533 165.717 26.6533 165.611 26.84C165.504 27.0267 165.317 27.12 165.051 27.12C163.344 27.04 161.677 27 160.051 27C159.251 27 158.477 27 157.731 27C156.984 27.0267 156.184 27.0667 155.331 27.12ZM162.171 14.24H165.691C167.051 14.24 168.117 14.0533 168.891 13.68C169.691 13.3067 170.291 12.8267 170.691 12.24C171.091 11.6533 171.344 11.04 171.451 10.4C171.584 9.76 171.651 9.17333 171.651 8.64C171.651 7.76 171.451 6.90667 171.051 6.08C170.677 5.25333 169.997 4.57333 169.011 4.04C168.051 3.50667 166.704 3.24 164.971 3.24C163.824 3.24 163.064 3.46667 162.691 3.92C162.344 4.34667 162.171 5.22666 162.171 6.56V14.24ZM195.793 27.12C195.526 27.12 195.339 27.0267 195.233 26.84C195.126 26.6533 195.073 26.4533 195.073 26.24C195.099 25.7867 195.206 25.5333 195.393 25.48C195.579 25.4267 195.806 25.4 196.073 25.4C196.926 25.4 197.526 25.2533 197.873 24.96C198.219 24.64 198.433 24.2533 198.513 23.8C198.619 23.32 198.673 22.8267 198.673 22.32V3.24H195.913C195.006 3.26666 194.299 3.46666 193.793 3.84C193.286 4.18666 192.913 4.74667 192.673 5.52C192.433 6.26667 192.219 7.24 192.033 8.44C192.006 8.68 191.833 8.86667 191.513 9C191.219 9.10667 190.926 9.16 190.633 9.16C190.446 9.16 190.233 9.09333 189.993 8.96C189.779 8.82667 189.673 8.62667 189.673 8.36L189.793 2.72C189.793 2.34666 189.899 2.09333 190.113 1.96C190.326 1.82666 190.579 1.76 190.873 1.76H210.433C210.726 1.76 210.966 1.82666 211.153 1.96C211.366 2.09333 211.473 2.34666 211.473 2.72L211.633 8.36C211.633 8.62667 211.513 8.82667 211.273 8.96C211.059 9.09333 210.846 9.16 210.633 9.16C210.366 9.16 210.086 9.10667 209.793 9C209.499 8.86667 209.326 8.68 209.273 8.44C209.086 7.24 208.859 6.26667 208.593 5.52C208.353 4.74667 207.979 4.18666 207.473 3.84C206.993 3.46666 206.286 3.26666 205.353 3.24H202.633V22.32C202.659 22.8267 202.713 23.32 202.793 23.8C202.873 24.2533 203.086 24.64 203.433 24.96C203.806 25.2533 204.406 25.4 205.233 25.4C205.499 25.4 205.726 25.4267 205.913 25.48C206.099 25.5333 206.206 25.7867 206.233 26.24C206.233 26.4533 206.179 26.6533 206.073 26.84C205.966 27.0267 205.779 27.12 205.513 27.12C204.659 27.0667 203.846 27.0267 203.073 27C202.326 27 201.566 27 200.793 27C199.193 27 197.526 27.04 195.793 27.12ZM214.548 27.12C214.308 27.12 214.135 27.0267 214.028 26.84C213.922 26.6533 213.868 26.4533 213.868 26.24C213.895 25.7867 214.002 25.5333 214.188 25.48C214.375 25.4267 214.602 25.4 214.868 25.4C215.722 25.4 216.322 25.2533 216.668 24.96C217.015 24.64 217.228 24.2533 217.308 23.8C217.415 23.32 217.468 22.8267 217.468 22.32V6.44C217.468 5.93333 217.415 5.45333 217.308 5C217.228 4.52 217.015 4.13333 216.668 3.84C216.322 3.52 215.722 3.36 214.868 3.36C214.602 3.36 214.375 3.33333 214.188 3.28C214.002 3.22667 213.895 2.97333 213.868 2.52C213.868 2.30667 213.922 2.10667 214.028 1.92C214.135 1.73333 214.308 1.64 214.548 1.64C215.428 1.66667 216.242 1.69333 216.988 1.72C217.735 1.74667 218.508 1.76 219.308 1.76H231.868C232.162 1.76 232.402 1.82666 232.588 1.96C232.802 2.09333 232.908 2.34666 232.908 2.72L233.028 8.32C233.028 8.58667 232.895 8.78667 232.628 8.92C232.388 9.05333 232.162 9.12 231.948 9.12C231.655 9.12 231.388 9.06667 231.148 8.96C230.908 8.82667 230.762 8.64 230.708 8.4C230.522 7.2 230.295 6.24 230.028 5.52C229.788 4.77333 229.415 4.24 228.908 3.92C228.428 3.57333 227.722 3.38667 226.788 3.36H221.428V13.52H228.668C228.882 13.5467 229.028 13.6533 229.108 13.84C229.215 14.0267 229.268 14.2267 229.268 14.44C229.268 14.6267 229.215 14.8133 229.108 15C229.028 15.16 228.882 15.24 228.668 15.24H221.428V22.8C221.455 23.1467 221.508 23.5333 221.588 23.96C221.668 24.36 221.895 24.7067 222.268 25C222.668 25.2933 223.322 25.4267 224.228 25.4H227.908C228.842 25.3733 229.548 25.2267 230.028 24.96C230.535 24.6667 230.935 24.1867 231.228 23.52C231.522 22.8533 231.842 21.9333 232.188 20.76C232.295 20.4933 232.468 20.32 232.708 20.24C232.975 20.16 233.255 20.1467 233.548 20.2C233.762 20.2267 233.975 20.32 234.188 20.48C234.428 20.64 234.535 20.8533 234.508 21.12L233.708 26.16C233.628 26.5333 233.495 26.7733 233.308 26.88C233.148 26.96 232.895 27 232.548 27H219.348C218.548 27 217.762 27 216.988 27C216.242 27.0267 215.428 27.0667 214.548 27.12ZM236.138 27.12C235.872 27.12 235.685 27.0267 235.578 26.84C235.472 26.6533 235.418 26.4533 235.418 26.24C235.445 25.7867 235.552 25.5333 235.738 25.48C235.925 25.4267 236.152 25.4 236.418 25.4C237.138 25.4 237.685 25.2533 238.058 24.96C238.432 24.6667 238.725 24.28 238.938 23.8C239.178 23.32 239.405 22.8267 239.618 22.32L246.618 5.76C246.885 5.12 246.938 4.64 246.778 4.32C246.618 3.97333 246.352 3.73333 245.978 3.6C245.605 3.44 245.192 3.32 244.738 3.24C244.338 3.16 244.072 3.09333 243.938 3.04C243.805 2.96 243.738 2.72 243.738 2.32C243.738 1.86667 243.898 1.62667 244.218 1.6C244.538 1.54667 244.912 1.52 245.338 1.52C246.432 1.52 247.365 1.62667 248.138 1.84C248.912 2.05333 249.578 2.46666 250.138 3.08C250.698 3.66667 251.218 4.56 251.698 5.76L258.418 22.32C258.605 22.7733 258.805 23.24 259.018 23.72C259.232 24.2 259.512 24.6 259.858 24.92C260.232 25.2133 260.698 25.3733 261.258 25.4C261.552 25.4 261.778 25.4267 261.938 25.48C262.125 25.5333 262.232 25.7867 262.258 26.24C262.258 26.4533 262.192 26.6533 262.058 26.84C261.952 27.0267 261.778 27.12 261.538 27.12C260.685 27.0667 259.938 27.0267 259.298 27C258.658 27 257.938 27 257.138 27C255.565 27 253.912 27.04 252.178 27.12C251.912 27.12 251.725 27.0267 251.618 26.84C251.512 26.6533 251.458 26.4533 251.458 26.24C251.485 25.7867 251.592 25.5333 251.778 25.48C251.965 25.4267 252.192 25.4 252.458 25.4C253.765 25.4 254.472 25.16 254.578 24.68C254.712 24.2 254.592 23.4133 254.218 22.32L252.858 19H242.978C242.578 20.0133 242.285 20.7467 242.098 21.2C241.938 21.6533 241.832 21.9467 241.778 22.08C241.752 22.2133 241.725 22.2933 241.698 22.32C241.405 23.2267 241.245 23.9067 241.218 24.36C241.218 24.7867 241.432 25.0667 241.858 25.2C242.312 25.3333 243.058 25.4 244.098 25.4C244.392 25.4 244.618 25.4267 244.778 25.48C244.965 25.5333 245.072 25.7867 245.098 26.24C245.098 26.4533 245.032 26.6533 244.898 26.84C244.792 27.0267 244.618 27.12 244.378 27.12C243.525 27.0667 242.778 27.0267 242.138 27C241.525 27 240.818 27 240.018 27C239.485 27 239.032 27 238.658 27C238.312 27.0267 237.952 27.04 237.578 27.04C237.205 27.0667 236.725 27.0933 236.138 27.12ZM243.738 17.28H252.138L248.098 7H247.978L243.738 17.28ZM277.55 27.2C277.39 27.2 277.23 27.16 277.07 27.08C276.91 27.0267 276.79 26.9333 276.71 26.8L267.71 6.44H267.59L267.67 22.32C267.696 22.8267 267.736 23.32 267.79 23.8C267.87 24.2533 268.083 24.64 268.43 24.96C268.776 25.2533 269.363 25.4 270.19 25.4C270.483 25.4 270.723 25.4267 270.91 25.48C271.096 25.5333 271.203 25.7867 271.23 26.24C271.23 26.4533 271.163 26.6533 271.03 26.84C270.923 27.0267 270.75 27.12 270.51 27.12C269.95 27.0933 269.496 27.0667 269.15 27.04C268.803 27.04 268.47 27.0267 268.15 27C267.83 27 267.403 27 266.87 27C266.07 27 265.416 27 264.91 27C264.43 27.0267 263.763 27.0667 262.91 27.12C262.643 27.12 262.456 27.0267 262.35 26.84C262.243 26.6533 262.19 26.4533 262.19 26.24C262.216 25.7867 262.323 25.5333 262.51 25.48C262.696 25.4267 262.923 25.4 263.19 25.4C264.043 25.4 264.63 25.2533 264.95 24.96C265.296 24.64 265.51 24.2533 265.59 23.8C265.67 23.32 265.71 22.8267 265.71 22.32L265.79 6.44C265.79 5.58667 265.696 4.96 265.51 4.56C265.323 4.13333 265.03 3.84 264.63 3.68C264.23 3.49333 263.723 3.34667 263.11 3.24C262.736 3.16 262.47 3.09333 262.31 3.04C262.176 2.98667 262.11 2.74667 262.11 2.32C262.11 1.86667 262.27 1.62667 262.59 1.6C262.91 1.54667 263.283 1.52 263.71 1.52C265.016 1.52 266.163 1.62667 267.15 1.84C268.163 2.05333 269.043 2.46666 269.79 3.08C270.536 3.66667 271.15 4.56 271.63 5.76L278.51 21.2H278.63L286.51 1.76H288.79C289.59 1.76 290.363 1.74667 291.11 1.72C291.883 1.69333 292.696 1.66667 293.55 1.64C293.816 1.64 294.003 1.73333 294.11 1.92C294.216 2.10667 294.27 2.30667 294.27 2.52C294.243 2.97333 294.136 3.22667 293.95 3.28C293.763 3.33333 293.536 3.36 293.27 3.36C292.443 3.36 291.843 3.52 291.47 3.84C291.123 4.13333 290.91 4.52 290.83 5C290.75 5.45333 290.696 5.93333 290.67 6.44V22.32C290.696 22.8267 290.75 23.32 290.83 23.8C290.91 24.2533 291.123 24.64 291.47 24.96C291.843 25.2533 292.443 25.4 293.27 25.4C293.536 25.4 293.763 25.4267 293.95 25.48C294.136 25.5333 294.243 25.7867 294.27 26.24C294.27 26.4533 294.216 26.6533 294.11 26.84C294.003 27.0267 293.816 27.12 293.55 27.12C292.696 27.0667 291.883 27.0267 291.11 27C290.336 27 289.55 27 288.75 27C287.203 27 285.563 27.04 283.83 27.12C283.563 27.12 283.376 27.0267 283.27 26.84C283.163 26.6533 283.11 26.4533 283.11 26.24C283.136 25.7867 283.243 25.5333 283.43 25.48C283.616 25.4267 283.843 25.4 284.11 25.4C284.963 25.4 285.563 25.2533 285.91 24.96C286.256 24.64 286.47 24.2533 286.55 23.8C286.656 23.32 286.71 22.8267 286.71 22.32V6.44H286.59L278.35 26.8C278.296 26.9333 278.19 27.0267 278.03 27.08C277.87 27.16 277.71 27.2 277.55 27.2Z" fill="#000B0C"/>
</svg>
