<svg width="50" height="51" viewBox="0 0 50 51" fill="none" xmlns="http://www.w3.org/2000/svg">
<rect width="50" height="50" rx="10" transform="matrix(-1 0 0 1 50 0.165527)" fill="#FAFEFE"/>
<path d="M21.516 32.6653C22.8624 32.6738 24.1971 32.4148 25.4427 31.9035C26.6883 31.3921 27.8199 30.6386 28.772 29.6865C29.7241 28.7344 30.4777 27.6027 30.9891 26.3572C31.5004 25.1116 31.7594 23.7769 31.7509 22.4304V21.9601C32.4488 21.4488 33.0529 20.8204 33.5364 20.1029C32.8792 20.3903 32.1838 20.5809 31.4719 20.6688C32.2267 20.2191 32.793 19.5112 33.0661 18.676C32.3627 19.0981 31.5913 19.3948 30.7864 19.5529C30.2443 18.9753 29.527 18.5924 28.7454 18.4635C27.9638 18.3347 27.1615 18.467 26.4627 18.84C25.7638 19.213 25.2074 19.8059 24.8795 20.527C24.5516 21.2481 24.4704 22.0571 24.6486 22.829C23.2186 22.7588 21.8195 22.3882 20.5422 21.7413C19.265 21.0945 18.1383 20.1858 17.2355 19.0746C16.7803 19.8647 16.6423 20.7982 16.8495 21.6862C17.0567 22.5742 17.5936 23.3502 18.3515 23.8573C17.7924 23.8357 17.2462 23.6828 16.7573 23.4109V23.4507C16.7523 24.2764 17.0304 25.0788 17.5454 25.7243C18.0603 26.3698 18.7809 26.8193 19.587 26.9979C19.067 27.1377 18.5223 27.1595 17.9928 27.0616C18.2262 27.7658 18.6717 28.3805 19.2682 28.8215C19.8647 29.2625 20.5831 29.5081 21.3247 29.5247C20.0567 30.5454 18.4807 31.1073 16.8529 31.1189C16.5675 31.1107 16.2828 31.0867 16 31.0472C17.6476 32.0969 19.5624 32.6503 21.516 32.6414" fill="url(#paint0_linear_2509_6767)"/>
<defs>
<linearGradient id="paint0_linear_2509_6767" x1="16" y1="25.5405" x2="32.6937" y2="29.2914" gradientUnits="userSpaceOnUse">
<stop stop-color="#02979D"/>
<stop offset="1" stop-color="#00888D"/>
</linearGradient>
</defs>
</svg>
