<svg width="15" height="15" viewBox="0 0 15 15" fill="none" xmlns="http://www.w3.org/2000/svg">
<path d="M13.9827 5.07914V8.12262C13.9827 8.32045 13.9744 8.51066 13.9494 8.69327C13.7577 10.7476 12.4327 11.7672 9.99102 11.7672H9.65769C9.44936 11.7672 9.24934 11.8585 9.12434 12.0107L8.12436 13.2281C7.68269 13.7683 6.96601 13.7683 6.52435 13.2281L5.52434 12.0107C5.416 11.8813 5.17435 11.7672 4.99102 11.7672H4.65769C1.99936 11.7672 0.666016 11.1661 0.666016 8.12262V5.07914C0.666016 2.84979 1.79102 1.64001 4.03269 1.46501C4.23269 1.44219 4.44102 1.43457 4.65769 1.43457H9.99102C12.6494 1.43457 13.9827 2.65197 13.9827 5.07914Z" stroke="#000B0C" stroke-miterlimit="10" stroke-linecap="round" stroke-linejoin="round"/>
</svg>
