<svg width="20" height="20" viewBox="0 0 20 20" fill="none" xmlns="http://www.w3.org/2000/svg">
<path d="M14.9827 9.07914V12.1226C14.9827 12.3204 14.9744 12.5107 14.9494 12.6933C14.7577 14.7476 13.4327 15.7672 10.991 15.7672H10.6577C10.4494 15.7672 10.2493 15.8585 10.1243 16.0107L9.12436 17.2281C8.68269 17.7683 7.96601 17.7683 7.52435 17.2281L6.52434 16.0107C6.416 15.8813 6.17435 15.7672 5.99102 15.7672H5.65769C2.99936 15.7672 1.66602 15.1661 1.66602 12.1226V9.07914C1.66602 6.84979 2.79102 5.64001 5.03269 5.46501C5.23269 5.44219 5.44102 5.43457 5.65769 5.43457H10.991C13.6494 5.43457 14.9827 6.65197 14.9827 9.07914Z" stroke="#000B0C" stroke-miterlimit="10" stroke-linecap="round" stroke-linejoin="round"/>
<path d="M18.3165 6.03569V9.07916C18.3165 11.3161 17.1915 12.5183 14.9499 12.6933C14.9749 12.5107 14.9832 12.3205 14.9832 12.1226V9.07916C14.9832 6.65199 13.6499 5.43459 10.9915 5.43459H5.6582C5.44154 5.43459 5.2332 5.44221 5.0332 5.46503C5.22487 3.41829 6.54987 2.39111 8.99154 2.39111H14.3249C16.9832 2.39111 18.3165 3.60851 18.3165 6.03569Z" stroke="#000B0C" stroke-miterlimit="10" stroke-linecap="round" stroke-linejoin="round"/>
<path d="M11.2469 10.9507H11.2544" stroke="#000B0C" stroke-linecap="round" stroke-linejoin="round"/>
<path d="M8.32893 10.9507H8.33643" stroke="#000B0C" stroke-linecap="round" stroke-linejoin="round"/>
<path d="M5.41292 10.9507H5.42042" stroke="#000B0C" stroke-linecap="round" stroke-linejoin="round"/>
</svg>
