<svg width="18" height="18" viewBox="0 0 18 18" fill="none" xmlns="http://www.w3.org/2000/svg">
<path d="M13.541 17.179C12.5993 17.179 11.6077 16.9736 10.5827 16.5779C9.58268 16.1899 8.57435 15.6573 7.59102 15.0105C6.61602 14.3562 5.67435 13.6257 4.78268 12.8268C3.89935 12.0127 3.09935 11.1529 2.39102 10.2703C1.67435 9.35727 1.09935 8.44423 0.691016 7.56162C0.257682 6.61814 0.0410156 5.7051 0.0410156 4.84531C0.0410156 4.25183 0.157682 3.68879 0.382682 3.16379C0.616016 2.62357 0.991016 2.1214 1.49935 1.6877C2.14102 1.10944 2.87435 0.820312 3.65768 0.820312C3.98268 0.820312 4.31602 0.888791 4.59935 1.01053C4.92435 1.14749 5.19935 1.35292 5.39935 1.62683L7.33268 4.11488C7.50768 4.33553 7.64102 4.54857 7.73268 4.76162C7.84102 4.98988 7.89935 5.21814 7.89935 5.43879C7.89935 5.72792 7.80768 6.00944 7.63268 6.27575C7.50768 6.48118 7.31602 6.70183 7.07435 6.92249L6.50768 7.4627C6.51602 7.48553 6.52435 7.50075 6.53268 7.51596C6.63268 7.67575 6.83268 7.94966 7.21602 8.36053C7.62435 8.78662 8.00768 9.17466 8.39102 9.53227C8.88268 9.97357 9.29102 10.3236 9.67435 10.6127C10.1494 10.9779 10.4577 11.1605 10.641 11.2442L10.6243 11.2823L11.2327 10.7344C11.491 10.4986 11.741 10.3236 11.9827 10.2094C12.441 9.95075 13.0244 9.9051 13.6077 10.1257C13.8244 10.2094 14.0577 10.3236 14.3077 10.4834L17.0744 12.279C17.3827 12.4692 17.6077 12.7127 17.741 13.0018C17.866 13.291 17.9243 13.5573 17.9243 13.8236C17.9243 14.1888 17.8327 14.554 17.6577 14.8964C17.4827 15.2388 17.266 15.5355 16.991 15.8094C16.516 16.2888 15.9993 16.6312 15.3994 16.8518C14.8244 17.0649 14.1994 17.179 13.541 17.179ZM3.65768 1.96162C3.19935 1.96162 2.77435 2.14423 2.36602 2.50944C1.98268 2.83662 1.71602 3.19423 1.54935 3.58227C1.37435 3.97792 1.29102 4.3964 1.29102 4.84531C1.29102 5.55292 1.47435 6.3214 1.84102 7.1127C2.21602 7.91923 2.74102 8.75618 3.40768 9.59314C4.07435 10.4301 4.83268 11.2442 5.66602 12.0127C6.49935 12.766 7.39935 13.466 8.32435 14.0823C9.22435 14.6834 10.1493 15.1703 11.066 15.5203C12.491 16.0757 13.8244 16.2051 14.9243 15.7866C15.3493 15.6268 15.7243 15.3834 16.066 15.0334C16.2577 14.8431 16.4077 14.6377 16.5327 14.3942C16.6327 14.204 16.6827 14.0062 16.6827 13.8084C16.6827 13.6866 16.6577 13.5649 16.591 13.4279C16.566 13.3823 16.516 13.2986 16.3577 13.1997L13.591 11.404C13.4243 11.2975 13.2743 11.2214 13.1327 11.1681C12.9493 11.0997 12.8743 11.0312 12.591 11.191C12.4243 11.2671 12.2743 11.3812 12.1077 11.5334L11.4743 12.104C11.1494 12.3931 10.6494 12.4616 10.266 12.3323L10.041 12.241C9.69935 12.0736 9.29935 11.8149 8.85768 11.4725C8.45768 11.1605 8.02435 10.7953 7.49935 10.3236C7.09102 9.94314 6.68268 9.53988 6.25768 9.09096C5.86602 8.67249 5.58268 8.31488 5.40768 8.01814L5.30768 7.78988C5.25768 7.61488 5.24102 7.51596 5.24102 7.40944C5.24102 7.13553 5.34935 6.89205 5.55768 6.70183L6.18268 6.10836C6.34935 5.95618 6.47435 5.81162 6.55768 5.68227C6.62435 5.58336 6.64935 5.49966 6.64935 5.42357C6.64935 5.3627 6.62435 5.2714 6.58268 5.1801C6.52435 5.05836 6.43268 4.9214 6.31602 4.77683L4.38268 2.28118C4.29935 2.17466 4.19935 2.09857 4.07435 2.04531C3.94102 1.99205 3.79935 1.96162 3.65768 1.96162ZM10.6243 11.2899L10.491 11.8073L10.716 11.2747C10.6743 11.2671 10.641 11.2747 10.6243 11.2899Z" fill="#000B0C"/>
</svg>
