<svg width="21" height="20" viewBox="0 0 21 20" fill="none" xmlns="http://www.w3.org/2000/svg">
<path d="M10.3579 9.05814C10.2745 9.04981 10.1746 9.04981 10.0829 9.05814C8.09982 8.99147 6.52502 7.36647 6.52502 5.36647C6.52502 3.32481 8.17481 1.66647 10.2245 1.66647C12.266 1.66647 13.9241 3.32481 13.9241 5.36647C13.9157 7.36647 12.3409 8.99147 10.3579 9.05814Z" stroke="#000B0C" stroke-width="0.991935" stroke-linecap="round" stroke-linejoin="round"/>
<path d="M6.19169 12.1332C4.17528 13.4832 4.17528 15.6832 6.19169 17.0249C8.48306 18.5582 12.2409 18.5582 14.5323 17.0249C16.5487 15.6749 16.5487 13.4749 14.5323 12.1332C12.2492 10.6082 8.49139 10.6082 6.19169 12.1332Z" stroke="#000B0C" stroke-width="0.991935" stroke-linecap="round" stroke-linejoin="round"/>
</svg>
