<svg width="50" height="50" viewBox="0 0 50 50" fill="none" xmlns="http://www.w3.org/2000/svg">
<rect width="50" height="50" rx="10" transform="matrix(-1 0 0 1 50 0)" fill="#EDA12F"/>
<path d="M21.516 32.4998C22.8624 32.5083 24.1971 32.2493 25.4427 31.738C26.6883 31.2266 27.8199 30.473 28.772 29.5209C29.7241 28.5689 30.4777 27.4372 30.9891 26.1916C31.5004 24.9461 31.7594 23.6113 31.7509 22.2649V21.7946C32.4488 21.2833 33.0529 20.6549 33.5364 19.9373C32.8792 20.2248 32.1838 20.4154 31.4719 20.5033C32.2267 20.0536 32.793 19.3456 33.0661 18.5105C32.3627 18.9325 31.5913 19.2292 30.7864 19.3873C30.2443 18.8097 29.527 18.4269 28.7454 18.298C27.9638 18.1691 27.1615 18.3014 26.4627 18.6745C25.7638 19.0475 25.2074 19.6404 24.8795 20.3615C24.5516 21.0826 24.4704 21.8916 24.6486 22.6635C23.2186 22.5933 21.8195 22.2227 20.5422 21.5758C19.265 20.9289 18.1383 20.0203 17.2355 18.9091C16.7803 19.6992 16.6423 20.6327 16.8495 21.5207C17.0567 22.4086 17.5936 23.1847 18.3515 23.6917C17.7924 23.6702 17.2462 23.5173 16.7573 23.2454V23.2852C16.7523 24.1109 17.0304 24.9133 17.5454 25.5588C18.0603 26.2042 18.7809 26.6537 19.587 26.8323C19.067 26.9722 18.5223 26.994 17.9928 26.8961C18.2262 27.6003 18.6717 28.215 19.2682 28.656C19.8647 29.0969 20.5831 29.3426 21.3247 29.3592C20.0567 30.3799 18.4807 30.9418 16.8529 30.9534C16.5675 30.9451 16.2828 30.9212 16 30.8817C17.6476 31.9314 19.5624 32.4848 21.516 32.4759" fill="#FAFEFE"/>
</svg>
