<svg width="295" height="256" viewBox="0 0 295 256" fill="none" xmlns="http://www.w3.org/2000/svg">
<mask id="path-1-inside-1_373_4987" fill="white">
<path d="M0 15.002C0 6.71768 6.71573 0.00195312 15 0.00195312H280C288.284 0.00195312 295 6.71768 295 15.002V255.002H0V15.002Z"/>
</mask>
<path d="M0 15.002C0 6.71768 6.71573 0.00195312 15 0.00195312H280C288.284 0.00195312 295 6.71768 295 15.002V255.002H0V15.002Z" fill="#EEEEEE"/>
<path d="M-0.13 15.002C-0.13 6.64588 6.64393 -0.128047 15 -0.128047H280C288.356 -0.128047 295.13 6.64588 295.13 15.002H294.87C294.87 6.78948 288.212 0.131953 280 0.131953H15C6.78753 0.131953 0.13 6.78948 0.13 15.002H-0.13ZM295 255.002H0H295ZM-0.13 255.002V15.002C-0.13 6.64588 6.64393 -0.128047 15 -0.128047V0.131953C6.78753 0.131953 0.13 6.78948 0.13 15.002V255.002H-0.13ZM280 -0.128047C288.356 -0.128047 295.13 6.64588 295.13 15.002V255.002H294.87V15.002C294.87 6.78948 288.212 0.131953 280 0.131953V-0.128047Z" fill="#02979D" mask="url(#path-1-inside-1_373_4987)"/>
</svg>
