<svg width="25" height="24" viewBox="0 0 25 24" fill="none" xmlns="http://www.w3.org/2000/svg">
<path d="M21.9286 7.75H3.96339C3.55419 7.75 3.21484 7.41 3.21484 7C3.21484 6.59 3.55419 6.25 3.96339 6.25H21.9286C22.3378 6.25 22.6771 6.59 22.6771 7C22.6771 7.41 22.3378 7.75 21.9286 7.75Z" fill="#000B0C"/>
<path d="M18.9343 12.75H6.95753C6.54833 12.75 6.20898 12.41 6.20898 12C6.20898 11.59 6.54833 11.25 6.95753 11.25H18.9343C19.3435 11.25 19.6829 11.59 19.6829 12C19.6829 12.41 19.3435 12.75 18.9343 12.75Z" fill="#000B0C"/>
<path d="M14.942 17.75H10.9497C10.5405 17.75 10.2012 17.41 10.2012 17C10.2012 16.59 10.5405 16.25 10.9497 16.25H14.942C15.3512 16.25 15.6905 16.59 15.6905 17C15.6905 17.41 15.3512 17.75 14.942 17.75Z" fill="#000B0C"/>
</svg>
