<svg width="1438" height="136" viewBox="0 0 1438 136" fill="none" xmlns="http://www.w3.org/2000/svg">
<path d="M1234 68.747C1315.6 140.372 1404 98.5907 1438 68.747V0H0V68.747C62.4 149.325 150 102.321 186 68.747C170 153.162 294 149.843 294 85.3478C334 131.862 392.586 107.117 380 60.1645C392 104.93 458 88.9981 464 68.747C496 105.838 532 84.2018 546 68.747C531.455 138.808 636.32 142.814 642.697 90.4214C646.515 116.732 730 142.529 730 73.3743C760 167.851 909 147 924 63.3335C910.793 137 1008 139.853 1008 95.3374C1021 143 1117 137 1132 104.93C1132 141.851 1198 141.851 1198 107.117C1233.2 116.071 1236.67 85.2676 1234 68.747Z" fill="#EBF7F7"/>
</svg>
