<svg width="29" height="28" viewBox="0 0 29 28" fill="none" xmlns="http://www.w3.org/2000/svg">
<path d="M8.26282 24.0337C10.0592 25.0837 12.2149 25.6671 14.3706 25.6671C20.9575 25.6671 26.3467 20.4171 26.3467 14.0004C26.3467 7.58374 20.9575 2.33374 14.3706 2.33374C7.78378 2.33374 2.39453 7.58374 2.39453 14.0004C2.39453 16.1004 2.99334 18.0837 3.95142 19.8337L2.89929 23.7758C2.67608 24.6122 3.44639 25.3743 4.28029 25.1422L8.26282 24.0337Z" stroke="#02979D" stroke-width="1.67824" stroke-miterlimit="10" stroke-linecap="round" stroke-linejoin="round"/>
<path d="M19.759 17.3235C19.759 17.5125 19.7158 17.7067 19.624 17.8957C19.5323 18.0847 19.4135 18.2632 19.257 18.4312C18.9925 18.7147 18.7011 18.9195 18.3718 19.0507C18.048 19.182 17.6972 19.2502 17.3194 19.2502C16.7688 19.2502 16.1805 19.1242 15.5598 18.867C14.9391 18.6097 14.3184 18.2632 13.7031 17.8275C13.0824 17.3865 12.4941 16.8982 11.9328 16.3575C11.3769 15.8115 10.8749 15.2392 10.427 14.6407C9.98437 14.0422 9.62815 13.4437 9.36908 12.8505C9.11 12.252 8.98047 11.6797 8.98047 11.1337C8.98047 10.7767 9.04524 10.4355 9.17477 10.1205C9.30431 9.80024 9.50941 9.50624 9.79547 9.24374C10.1409 8.91299 10.5187 8.75024 10.9181 8.75024C11.0692 8.75024 11.2204 8.78174 11.3553 8.84474C11.4956 8.90774 11.6198 9.00224 11.7169 9.13874L12.9691 10.8555C13.0663 10.9867 13.1364 11.1075 13.185 11.223C13.2336 11.3332 13.2606 11.4435 13.2606 11.5432C13.2606 11.6692 13.2228 11.7952 13.1472 11.916C13.0771 12.0367 12.9745 12.1627 12.845 12.2887L12.4348 12.7035C12.3754 12.7612 12.3484 12.8295 12.3484 12.9135C12.3484 12.9555 12.3538 12.9922 12.3646 13.0342C12.3808 13.0762 12.397 13.1077 12.4078 13.1392C12.5049 13.3125 12.6722 13.5382 12.9097 13.8112C13.1526 14.0842 13.4117 14.3625 13.6923 14.6407C13.9838 14.919 14.2645 15.1762 14.5505 15.4125C14.8312 15.6435 15.0633 15.801 15.2468 15.8955C15.2738 15.906 15.3062 15.9217 15.3439 15.9375C15.3871 15.9532 15.4303 15.9585 15.4789 15.9585C15.5706 15.9585 15.6408 15.927 15.7002 15.8692L16.1104 15.4755C16.2453 15.3442 16.3748 15.2445 16.499 15.1815C16.6231 15.108 16.7472 15.0712 16.8822 15.0712C16.9847 15.0712 17.0927 15.0922 17.2114 15.1395C17.3302 15.1867 17.4543 15.255 17.5892 15.3442L19.3757 16.578C19.5161 16.6725 19.6132 16.7827 19.6726 16.914C19.7266 17.0452 19.759 17.1765 19.759 17.3235Z" stroke="#02979D" stroke-width="1.67824" stroke-miterlimit="10"/>
</svg>
